{"glyphs":{"0":{"ha":883,"x_min":60,"x_max":822,"o":"m 447 994 q 658 919 574 994 q 783 729 743 844 q 822 489 822 614 q 779 249 822 367 q 650 54 736 131 q 442 -22 564 -22 q 223 52 308 -22 q 99 241 138 126 q 60 482 60 356 q 104 723 60 604 q 237 918 149 842 q 447 994 325 994 m 444 897 q 311 791 351 897 q 271 511 271 685 q 307 199 271 322 q 450 76 343 76 q 576 181 540 76 q 611 460 611 285 q 576 779 611 661 q 444 897 542 897 z "},"1":{"ha":564,"x_min":8,"x_max":510,"o":"m 410 228 q 406 103 410 139 q 510 107 450 107 l 510 0 l 111 0 l 111 92 q 168 101 149 93 q 199 133 188 108 q 210 213 210 158 l 210 769 l 58 679 l 8 763 l 326 994 l 410 994 l 410 228 z "},"2":{"ha":740,"x_min":54,"x_max":674,"o":"m 358 994 q 510 968 439 994 q 625 883 581 942 q 669 732 669 824 q 644 630 669 682 q 553 507 619 578 q 364 336 486 436 q 254 227 293 279 q 208 143 215 175 l 481 136 q 558 153 532 133 q 585 226 585 172 l 674 226 l 663 0 l 54 0 q 84 160 54 90 q 157 278 114 229 q 271 393 200 328 q 413 562 369 485 q 457 715 457 639 q 427 844 457 792 q 326 896 397 896 q 259 879 290 896 q 211 838 228 863 q 232 803 225 824 q 239 765 239 783 q 215 706 239 735 q 147 676 192 676 q 81 706 106 676 q 56 778 56 735 q 92 873 56 822 q 198 959 129 924 q 358 994 267 994 z "},"3":{"ha":778,"x_min":49,"x_max":722,"o":"m 363 994 q 587 935 503 994 q 671 749 671 876 q 649 664 671 708 q 581 583 628 619 q 463 531 535 546 l 463 529 q 656 435 590 506 q 722 272 722 365 q 619 56 722 133 q 350 -22 517 -22 q 183 8 251 -22 q 82 84 115 38 q 49 182 49 131 q 76 257 49 226 q 146 288 103 288 q 212 260 190 288 q 233 199 233 232 q 228 166 233 183 q 211 135 222 149 q 260 94 225 110 q 336 79 296 79 q 467 130 421 79 q 513 263 513 181 q 465 407 513 347 q 307 465 417 467 q 235 461 285 465 l 235 561 q 275 560 250 560 q 418 609 367 560 q 469 739 469 658 q 438 855 469 813 q 340 897 407 897 q 274 880 304 897 q 231 839 243 863 q 247 806 242 825 q 253 771 253 786 q 230 711 253 740 q 163 682 207 682 q 95 710 119 682 q 71 782 71 739 q 105 876 71 826 q 205 960 139 926 q 363 994 271 994 z "},"4":{"ha":760,"x_min":17,"x_max":714,"o":"m 578 376 l 714 376 l 714 251 l 578 251 l 578 228 q 572 103 578 135 q 676 107 618 107 l 676 0 l 281 0 l 281 92 q 338 101 318 93 q 368 133 357 108 q 379 213 379 158 l 379 251 l 17 251 l 17 382 l 493 994 l 578 994 l 578 376 m 381 686 l 379 686 l 146 381 l 379 379 l 381 686 z "},"5":{"ha":750,"x_min":61,"x_max":706,"o":"m 636 838 l 200 829 l 200 582 q 280 606 232 596 q 368 615 328 615 q 555 573 479 615 q 668 460 631 531 q 706 303 706 389 q 655 126 706 200 q 522 15 604 53 q 347 -22 440 -22 q 196 6 261 -22 q 96 78 131 35 q 61 168 61 122 q 88 242 61 211 q 160 274 115 274 q 224 246 204 274 q 244 185 244 218 q 229 128 244 153 q 272 91 238 106 q 338 76 306 76 q 453 135 415 76 q 492 274 492 193 q 325 514 492 514 q 247 501 292 514 q 158 463 203 489 l 99 508 l 93 972 l 453 972 q 533 990 507 972 q 558 1063 558 1008 l 646 1063 l 636 838 z "},"6":{"ha":799,"x_min":64,"x_max":739,"o":"m 444 994 q 584 967 526 994 q 669 896 642 939 q 697 808 697 853 q 674 739 697 768 q 610 710 650 710 q 540 737 563 710 q 518 797 518 764 q 523 828 518 811 q 538 858 528 846 q 503 886 526 875 q 451 897 481 897 q 313 790 356 897 q 265 542 269 683 q 347 595 289 571 q 456 619 404 619 q 668 533 597 619 q 739 299 739 446 q 694 138 739 211 q 572 21 650 64 q 399 -22 494 -22 q 142 99 219 -22 q 64 447 64 219 q 97 678 64 553 q 215 899 131 804 q 444 994 300 994 m 404 508 q 323 482 361 508 q 265 417 285 456 q 299 184 265 293 q 406 75 333 75 q 501 128 472 75 q 529 264 529 181 q 404 508 529 508 z "},"7":{"ha":651,"x_min":21,"x_max":622,"o":"m 622 846 q 500 544 544 688 q 394 154 456 400 q 376 83 374 71 q 341 8 365 39 q 279 -22 317 -22 q 219 1 239 -22 q 200 58 200 25 q 201 76 200 71 q 229 174 206 108 q 325 409 253 239 q 506 832 397 579 l 214 835 q 135 813 163 836 q 108 736 108 790 l 21 736 l 31 972 l 622 972 l 622 846 z "},"8":{"ha":794,"x_min":78,"x_max":736,"o":"m 408 994 q 548 967 482 994 q 654 885 614 939 q 694 758 694 832 q 646 633 694 693 q 529 532 597 574 l 529 531 q 736 239 736 404 q 638 44 736 111 q 393 -22 539 -22 q 247 1 319 -22 q 126 79 175 25 q 78 219 78 133 q 132 363 78 293 q 261 476 186 433 l 261 478 q 134 599 175 532 q 93 729 93 667 q 140 875 93 815 q 260 965 188 935 q 408 994 332 994 m 419 897 q 324 860 361 897 q 288 768 288 822 q 331 665 288 715 q 439 588 375 614 q 513 668 483 621 q 544 753 543 715 q 511 858 547 819 q 419 897 475 897 m 357 426 q 275 328 303 385 q 247 225 247 271 q 290 118 247 161 q 397 75 332 75 q 499 113 461 75 q 538 210 538 151 q 495 323 538 267 q 357 426 453 379 z "},"9":{"ha":800,"x_min":60,"x_max":735,"o":"m 394 994 q 653 868 571 994 q 735 525 735 742 q 652 145 735 313 q 354 -22 569 -22 q 163 30 225 -22 q 100 160 100 82 q 126 231 100 200 q 192 263 151 263 q 260 236 239 263 q 281 175 281 210 q 275 144 281 163 q 261 115 269 126 q 294 88 271 99 q 347 76 317 76 q 493 180 446 76 q 533 432 540 283 q 453 378 508 403 q 347 353 399 353 q 133 442 206 353 q 60 676 60 531 q 102 841 60 768 q 220 954 144 914 q 394 994 296 994 m 393 897 q 301 842 333 897 q 269 708 269 786 q 296 540 269 615 q 397 464 322 464 q 476 490 439 464 q 533 556 514 517 q 501 802 533 707 q 393 897 468 897 z "},"\u0000":{"ha":0,"x_min":0,"x_max":0,"o":""},"\r":{"ha":365,"x_min":0,"x_max":0,"o":""}," ":{"ha":365,"x_min":0,"x_max":0,"o":""},"A":{"ha":928,"x_min":6,"x_max":922,"o":"m 803 240 q 826 172 814 213 q 842 103 839 131 q 922 107 888 107 l 922 0 l 549 0 l 549 92 q 615 147 615 92 q 600 214 615 175 l 572 290 l 271 285 l 249 219 q 230 169 244 208 q 204 107 215 131 q 303 111 249 111 l 303 0 l 6 0 l 6 96 q 66 117 42 96 q 104 167 90 138 q 139 254 118 197 l 410 997 l 507 997 l 803 240 m 419 753 q 368 569 397 653 l 306 389 l 538 389 l 474 563 q 421 753 433 676 l 419 753 z "},"Á":{"ha":928,"x_min":6,"x_max":922,"o":"m 671 1276 q 685 1235 685 1257 q 669 1185 685 1210 q 629 1146 653 1161 l 432 1042 l 382 1110 l 536 1274 q 571 1298 551 1289 q 610 1307 590 1307 q 671 1276 646 1307 m 803 240 q 826 172 814 213 q 842 103 839 131 q 922 107 888 107 l 922 0 l 549 0 l 549 92 q 615 147 615 92 q 600 214 615 175 l 572 290 l 271 285 l 249 219 q 230 169 244 208 q 204 107 215 131 q 303 111 249 111 l 303 0 l 6 0 l 6 96 q 66 117 42 96 q 104 167 90 138 q 139 254 118 197 l 410 997 l 507 997 l 803 240 m 419 753 q 368 569 397 653 l 306 389 l 538 389 l 474 563 q 421 753 433 676 l 419 753 z "},"Ă":{"ha":928,"x_min":6,"x_max":922,"o":"m 803 240 q 826 172 814 213 q 842 103 839 131 q 922 107 888 107 l 922 0 l 549 0 l 549 92 q 615 147 615 92 q 600 214 615 175 l 572 290 l 271 285 l 249 219 q 230 169 244 208 q 204 107 215 131 q 303 111 249 111 l 303 0 l 6 0 l 6 96 q 66 117 42 96 q 104 167 90 138 q 139 254 118 197 l 410 997 l 507 997 l 803 240 m 419 753 q 368 569 397 653 l 306 389 l 538 389 l 474 563 q 421 753 433 676 l 419 753 m 467 1086 q 326 1126 392 1086 q 229 1254 260 1167 l 288 1283 q 365 1228 322 1249 q 467 1207 407 1207 q 568 1228 526 1207 q 644 1283 610 1249 l 703 1254 q 607 1126 672 1167 q 467 1086 542 1086 z "},"Ắ":{"ha":928,"x_min":6,"x_max":922,"o":"m 803 240 q 826 172 814 213 q 842 103 839 131 q 922 107 888 107 l 922 0 l 549 0 l 549 92 q 615 147 615 92 q 600 214 615 175 l 572 290 l 271 285 l 249 219 q 230 169 244 208 q 204 107 215 131 q 303 111 249 111 l 303 0 l 6 0 l 6 96 q 66 117 42 96 q 104 167 90 138 q 139 254 118 197 l 410 997 l 507 997 l 803 240 m 419 753 q 368 569 397 653 l 306 389 l 538 389 l 474 563 q 421 753 433 676 l 419 753 m 467 1086 q 326 1126 392 1086 q 229 1254 260 1167 l 288 1283 q 365 1228 322 1249 q 467 1207 407 1207 q 568 1228 526 1207 q 644 1283 610 1249 l 703 1254 q 607 1126 672 1167 q 467 1086 542 1086 m 574 1658 q 599 1601 599 1635 q 588 1558 599 1581 q 561 1521 578 1536 l 393 1374 l 329 1431 l 443 1625 q 481 1662 458 1649 q 526 1675 503 1675 q 574 1658 550 1675 z "},"Ặ":{"ha":928,"x_min":6,"x_max":922,"o":"m 803 240 q 826 172 814 213 q 842 103 839 131 q 922 107 888 107 l 922 0 l 549 0 l 549 92 q 615 147 615 92 q 600 214 615 175 l 572 290 l 271 285 l 249 219 q 230 169 244 208 q 204 107 215 131 q 303 111 249 111 l 303 0 l 6 0 l 6 96 q 66 117 42 96 q 104 167 90 138 q 139 254 118 197 l 410 997 l 507 997 l 803 240 m 419 753 q 368 569 397 653 l 306 389 l 538 389 l 474 563 q 421 753 433 676 l 419 753 m 465 -86 q 524 -112 500 -86 q 547 -176 547 -139 q 525 -240 547 -214 q 467 -265 503 -265 q 405 -240 429 -265 q 381 -176 381 -214 q 406 -112 381 -139 q 465 -86 431 -86 m 467 1086 q 326 1126 392 1086 q 229 1254 260 1167 l 288 1283 q 365 1228 322 1249 q 467 1207 407 1207 q 568 1228 526 1207 q 644 1283 610 1249 l 703 1254 q 607 1126 672 1167 q 467 1086 542 1086 z "},"Ằ":{"ha":928,"x_min":6,"x_max":922,"o":"m 803 240 q 826 172 814 213 q 842 103 839 131 q 922 107 888 107 l 922 0 l 549 0 l 549 92 q 615 147 615 92 q 600 214 615 175 l 572 290 l 271 285 l 249 219 q 230 169 244 208 q 204 107 215 131 q 303 111 249 111 l 303 0 l 6 0 l 6 96 q 66 117 42 96 q 104 167 90 138 q 139 254 118 197 l 410 997 l 507 997 l 803 240 m 419 753 q 368 569 397 653 l 306 389 l 538 389 l 474 563 q 421 753 433 676 l 419 753 m 683 1299 q 461 1111 615 1111 q 335 1155 394 1111 q 244 1292 275 1199 l 335 1338 q 392 1265 361 1292 q 467 1239 422 1239 q 540 1266 510 1239 q 593 1339 569 1293 l 683 1299 m 286 1614 q 333 1631 307 1631 q 379 1617 357 1631 q 415 1581 401 1603 l 529 1386 l 465 1329 l 297 1476 q 270 1514 281 1493 q 260 1556 260 1535 q 286 1614 260 1589 z "},"Ẳ":{"ha":928,"x_min":6,"x_max":922,"o":"m 803 240 q 826 172 814 213 q 842 103 839 131 q 922 107 888 107 l 922 0 l 549 0 l 549 92 q 615 147 615 92 q 600 214 615 175 l 572 290 l 271 285 l 249 219 q 230 169 244 208 q 204 107 215 131 q 303 111 249 111 l 303 0 l 6 0 l 6 96 q 66 117 42 96 q 104 167 90 138 q 139 254 118 197 l 410 997 l 507 997 l 803 240 m 419 753 q 368 569 397 653 l 306 389 l 538 389 l 474 563 q 421 753 433 676 l 419 753 m 683 1299 q 461 1111 615 1111 q 335 1155 394 1111 q 244 1292 275 1199 l 335 1338 q 392 1265 361 1292 q 467 1239 422 1239 q 540 1266 510 1239 q 593 1339 569 1293 l 683 1299 m 439 1624 q 565 1588 519 1624 q 611 1490 611 1553 q 598 1447 611 1464 q 560 1411 585 1431 q 531 1385 539 1394 q 522 1363 522 1376 l 431 1363 q 440 1392 431 1381 q 468 1419 450 1404 q 497 1449 488 1436 q 507 1482 507 1463 q 492 1525 507 1510 q 439 1540 478 1540 q 394 1529 410 1540 q 376 1503 379 1518 q 385 1492 383 1499 q 388 1474 388 1486 q 374 1451 388 1461 q 332 1442 361 1442 q 292 1456 304 1442 q 281 1499 281 1471 q 319 1585 281 1546 q 439 1624 357 1624 z "},"Ẵ":{"ha":928,"x_min":6,"x_max":922,"o":"m 803 240 q 826 172 814 213 q 842 103 839 131 q 922 107 888 107 l 922 0 l 549 0 l 549 92 q 615 147 615 92 q 600 214 615 175 l 572 290 l 271 285 l 249 219 q 230 169 244 208 q 204 107 215 131 q 303 111 249 111 l 303 0 l 6 0 l 6 96 q 66 117 42 96 q 104 167 90 138 q 139 254 118 197 l 410 997 l 507 997 l 803 240 m 419 753 q 368 569 397 653 l 306 389 l 538 389 l 474 563 q 421 753 433 676 l 419 753 m 683 1299 q 461 1111 615 1111 q 335 1155 394 1111 q 244 1292 275 1199 l 335 1338 q 392 1265 361 1292 q 467 1239 422 1239 q 540 1266 510 1239 q 593 1339 569 1293 l 683 1299 m 732 1528 q 658 1406 704 1447 q 567 1365 613 1365 q 519 1373 540 1365 q 469 1396 497 1381 q 431 1414 446 1408 q 399 1419 417 1419 q 355 1406 378 1419 q 313 1363 332 1393 l 235 1408 q 303 1511 257 1471 q 397 1551 350 1551 q 449 1544 428 1551 q 493 1522 469 1536 q 530 1504 514 1510 q 567 1499 546 1499 q 613 1517 590 1499 q 653 1568 635 1535 l 732 1528 z "},"Â":{"ha":928,"x_min":6,"x_max":922,"o":"m 803 240 q 826 172 814 213 q 842 103 839 131 q 922 107 888 107 l 922 0 l 549 0 l 549 92 q 615 147 615 92 q 600 214 615 175 l 572 290 l 271 285 l 249 219 q 230 169 244 208 q 204 107 215 131 q 303 111 249 111 l 303 0 l 6 0 l 6 96 q 66 117 42 96 q 104 167 90 138 q 139 254 118 197 l 410 997 l 507 997 l 803 240 m 419 753 q 368 569 397 653 l 306 389 l 538 389 l 474 563 q 421 753 433 676 l 419 753 m 485 1349 l 756 1140 l 713 1075 l 464 1196 l 211 1078 l 174 1140 l 457 1349 l 485 1349 z "},"Ấ":{"ha":928,"x_min":6,"x_max":922,"o":"m 888 1465 q 913 1408 913 1442 q 902 1365 913 1388 q 875 1328 892 1343 l 707 1181 l 643 1238 l 757 1432 q 794 1469 772 1456 q 840 1482 817 1482 q 888 1465 865 1482 m 481 1283 l 704 1111 l 669 1058 l 464 1158 l 256 1060 l 224 1111 l 458 1283 l 481 1283 m 803 240 q 826 172 814 213 q 842 103 839 131 q 922 107 888 107 l 922 0 l 549 0 l 549 92 q 615 147 615 92 q 600 214 615 175 l 572 290 l 271 285 l 249 219 q 230 169 244 208 q 204 107 215 131 q 303 111 249 111 l 303 0 l 6 0 l 6 96 q 66 117 42 96 q 104 167 90 138 q 139 254 118 197 l 410 997 l 507 997 l 803 240 m 419 753 q 368 569 397 653 l 306 389 l 538 389 l 474 563 q 421 753 433 676 l 419 753 z "},"Ậ":{"ha":928,"x_min":6,"x_max":922,"o":"m 803 240 q 826 172 814 213 q 842 103 839 131 q 922 107 888 107 l 922 0 l 549 0 l 549 92 q 615 147 615 92 q 600 214 615 175 l 572 290 l 271 285 l 249 219 q 230 169 244 208 q 204 107 215 131 q 303 111 249 111 l 303 0 l 6 0 l 6 96 q 66 117 42 96 q 104 167 90 138 q 139 254 118 197 l 410 997 l 507 997 l 803 240 m 419 753 q 368 569 397 653 l 306 389 l 538 389 l 474 563 q 421 753 433 676 l 419 753 m 465 -86 q 524 -112 500 -86 q 547 -176 547 -139 q 525 -240 547 -214 q 467 -265 503 -265 q 405 -240 429 -265 q 381 -176 381 -214 q 406 -112 381 -139 q 465 -86 431 -86 m 485 1349 l 756 1140 l 713 1075 l 464 1196 l 211 1078 l 174 1140 l 457 1349 l 485 1349 z "},"Ầ":{"ha":928,"x_min":6,"x_max":922,"o":"m 497 1525 q 544 1542 518 1542 q 590 1528 568 1542 q 626 1492 613 1514 l 740 1297 l 676 1240 l 508 1388 q 481 1425 492 1404 q 471 1467 471 1446 q 497 1525 471 1500 m 481 1283 l 704 1111 l 669 1058 l 464 1158 l 256 1060 l 224 1111 l 458 1283 l 481 1283 m 803 240 q 826 172 814 213 q 842 103 839 131 q 922 107 888 107 l 922 0 l 549 0 l 549 92 q 615 147 615 92 q 600 214 615 175 l 572 290 l 271 285 l 249 219 q 230 169 244 208 q 204 107 215 131 q 303 111 249 111 l 303 0 l 6 0 l 6 96 q 66 117 42 96 q 104 167 90 138 q 139 254 118 197 l 410 997 l 507 997 l 803 240 m 419 753 q 368 569 397 653 l 306 389 l 538 389 l 474 563 q 421 753 433 676 l 419 753 z "},"Ẩ":{"ha":928,"x_min":6,"x_max":922,"o":"m 646 1510 q 772 1474 726 1510 q 818 1376 818 1439 q 805 1333 818 1350 q 767 1297 792 1317 q 738 1272 746 1281 q 729 1249 729 1263 l 638 1249 q 647 1278 638 1267 q 675 1306 657 1290 q 704 1335 694 1322 q 714 1368 714 1349 q 699 1411 714 1396 q 646 1426 685 1426 q 601 1415 617 1426 q 583 1389 586 1404 q 592 1378 590 1385 q 594 1360 594 1372 q 581 1338 594 1347 q 539 1328 568 1328 q 499 1342 511 1328 q 488 1385 488 1357 q 526 1471 488 1432 q 646 1510 564 1510 m 481 1283 l 704 1111 l 669 1058 l 464 1158 l 256 1060 l 224 1111 l 458 1283 l 481 1283 m 803 240 q 826 172 814 213 q 842 103 839 131 q 922 107 888 107 l 922 0 l 549 0 l 549 92 q 615 147 615 92 q 600 214 615 175 l 572 290 l 271 285 l 249 219 q 230 169 244 208 q 204 107 215 131 q 303 111 249 111 l 303 0 l 6 0 l 6 96 q 66 117 42 96 q 104 167 90 138 q 139 254 118 197 l 410 997 l 507 997 l 803 240 m 419 753 q 368 569 397 653 l 306 389 l 538 389 l 474 563 q 421 753 433 676 l 419 753 z "},"Ẫ":{"ha":928,"x_min":6,"x_max":922,"o":"m 739 1489 q 665 1367 711 1408 q 574 1326 619 1326 q 526 1334 547 1326 q 476 1357 504 1342 q 438 1375 453 1369 q 406 1381 424 1381 q 362 1367 385 1381 q 319 1324 339 1354 l 242 1369 q 310 1472 264 1432 q 404 1513 357 1513 q 456 1505 435 1513 q 500 1483 476 1497 q 537 1465 521 1471 q 574 1460 553 1460 q 619 1478 597 1460 q 660 1529 642 1496 l 739 1489 m 481 1283 l 704 1111 l 669 1058 l 464 1158 l 256 1060 l 224 1111 l 458 1283 l 481 1283 m 803 240 q 826 172 814 213 q 842 103 839 131 q 922 107 888 107 l 922 0 l 549 0 l 549 92 q 615 147 615 92 q 600 214 615 175 l 572 290 l 271 285 l 249 219 q 230 169 244 208 q 204 107 215 131 q 303 111 249 111 l 303 0 l 6 0 l 6 96 q 66 117 42 96 q 104 167 90 138 q 139 254 118 197 l 410 997 l 507 997 l 803 240 m 419 753 q 368 569 397 653 l 306 389 l 538 389 l 474 563 q 421 753 433 676 l 419 753 z "},"Ä":{"ha":928,"x_min":6,"x_max":922,"o":"m 803 240 q 826 172 814 213 q 842 103 839 131 q 922 107 888 107 l 922 0 l 549 0 l 549 92 q 615 147 615 92 q 600 214 615 175 l 572 290 l 271 285 l 249 219 q 230 169 244 208 q 204 107 215 131 q 303 111 249 111 l 303 0 l 6 0 l 6 96 q 66 117 42 96 q 104 167 90 138 q 139 254 118 197 l 410 997 l 507 997 l 803 240 m 419 753 q 368 569 397 653 l 306 389 l 538 389 l 474 563 q 421 753 433 676 l 419 753 m 344 1318 q 410 1287 383 1318 q 436 1211 436 1256 q 408 1138 436 1168 q 343 1107 381 1107 q 278 1138 306 1107 q 250 1211 250 1168 q 278 1286 250 1254 q 344 1318 307 1318 m 586 1318 q 651 1287 625 1318 q 678 1211 678 1256 q 650 1138 678 1168 q 585 1107 622 1107 q 520 1138 547 1107 q 493 1211 493 1168 q 521 1286 493 1254 q 586 1318 549 1318 z "},"Ạ":{"ha":928,"x_min":6,"x_max":922,"o":"m 803 240 q 826 172 814 213 q 842 103 839 131 q 922 107 888 107 l 922 0 l 549 0 l 549 92 q 615 147 615 92 q 600 214 615 175 l 572 290 l 271 285 l 249 219 q 230 169 244 208 q 204 107 215 131 q 303 111 249 111 l 303 0 l 6 0 l 6 96 q 66 117 42 96 q 104 167 90 138 q 139 254 118 197 l 410 997 l 507 997 l 803 240 m 419 753 q 368 569 397 653 l 306 389 l 538 389 l 474 563 q 421 753 433 676 l 419 753 m 465 -86 q 524 -112 500 -86 q 547 -176 547 -139 q 525 -240 547 -214 q 467 -265 503 -265 q 405 -240 429 -265 q 381 -176 381 -214 q 406 -112 381 -139 q 465 -86 431 -86 z "},"À":{"ha":928,"x_min":6,"x_max":922,"o":"m 803 240 q 826 172 814 213 q 842 103 839 131 q 922 107 888 107 l 922 0 l 549 0 l 549 92 q 615 147 615 92 q 600 214 615 175 l 572 290 l 271 285 l 249 219 q 230 169 244 208 q 204 107 215 131 q 303 111 249 111 l 303 0 l 6 0 l 6 96 q 66 117 42 96 q 104 167 90 138 q 139 254 118 197 l 410 997 l 507 997 l 803 240 m 419 753 q 368 569 397 653 l 306 389 l 538 389 l 474 563 q 421 753 433 676 l 419 753 m 257 1276 q 318 1307 282 1307 q 357 1298 338 1307 q 392 1274 376 1289 l 546 1110 l 496 1042 l 299 1146 q 259 1185 275 1161 q 243 1235 243 1210 q 257 1276 243 1257 z "},"Ả":{"ha":928,"x_min":6,"x_max":922,"o":"m 803 240 q 826 172 814 213 q 842 103 839 131 q 922 107 888 107 l 922 0 l 549 0 l 549 92 q 615 147 615 92 q 600 214 615 175 l 572 290 l 271 285 l 249 219 q 230 169 244 208 q 204 107 215 131 q 303 111 249 111 l 303 0 l 6 0 l 6 96 q 66 117 42 96 q 104 167 90 138 q 139 254 118 197 l 410 997 l 507 997 l 803 240 m 419 753 q 368 569 397 653 l 306 389 l 538 389 l 474 563 q 421 753 433 676 l 419 753 m 444 1315 q 571 1280 525 1315 q 617 1182 617 1244 q 603 1139 617 1156 q 565 1103 590 1122 q 536 1077 544 1086 q 528 1054 528 1068 l 436 1054 q 446 1084 436 1072 q 474 1111 456 1096 q 503 1141 493 1128 q 513 1174 513 1154 q 498 1217 513 1201 q 444 1232 483 1232 q 400 1221 415 1232 q 382 1194 385 1210 q 391 1184 389 1190 q 393 1165 393 1178 q 380 1143 393 1153 q 338 1133 367 1133 q 298 1148 310 1133 q 286 1190 286 1163 q 324 1276 286 1238 q 444 1315 363 1315 z "},"Ā":{"ha":928,"x_min":6,"x_max":922,"o":"m 803 240 q 826 172 814 213 q 842 103 839 131 q 922 107 888 107 l 922 0 l 549 0 l 549 92 q 615 147 615 92 q 600 214 615 175 l 572 290 l 271 285 l 249 219 q 230 169 244 208 q 204 107 215 131 q 303 111 249 111 l 303 0 l 6 0 l 6 96 q 66 117 42 96 q 104 167 90 138 q 139 254 118 197 l 410 997 l 507 997 l 803 240 m 419 753 q 368 569 397 653 l 306 389 l 538 389 l 474 563 q 421 753 433 676 l 419 753 m 661 1282 l 661 1154 l 267 1149 l 267 1282 l 661 1282 z "},"Ą":{"ha":928,"x_min":6,"x_max":922,"o":"m 833 -1 q 709 -81 761 -32 q 657 -185 657 -131 q 673 -227 657 -211 q 718 -243 689 -243 q 804 -203 760 -243 l 853 -262 q 767 -340 815 -311 q 669 -369 718 -369 q 560 -333 601 -369 q 519 -226 519 -296 q 566 -103 519 -162 q 689 0 613 -44 l 549 0 l 549 92 q 615 147 615 92 q 600 214 615 175 l 572 290 l 271 285 l 249 219 q 230 169 244 208 q 204 107 215 131 q 303 111 249 111 l 303 0 l 6 0 l 6 96 q 66 117 42 96 q 104 167 90 138 q 139 254 118 197 l 410 997 l 507 997 l 803 240 q 826 172 814 213 q 842 103 839 131 q 922 107 888 107 l 922 0 l 833 0 l 833 -1 m 538 389 l 474 563 q 421 753 433 676 l 419 753 q 368 569 397 653 l 306 389 l 538 389 z "},"Å":{"ha":928,"x_min":6,"x_max":922,"o":"m 803 240 q 826 172 814 213 q 842 103 839 131 q 922 107 888 107 l 922 0 l 549 0 l 549 92 q 615 147 615 92 q 600 214 615 175 l 572 290 l 271 285 l 249 219 q 230 169 244 208 q 204 107 215 131 q 303 111 249 111 l 303 0 l 6 0 l 6 96 q 66 117 42 96 q 104 167 90 138 q 139 254 118 197 l 410 997 l 507 997 l 803 240 m 419 753 q 368 569 397 653 l 306 389 l 538 389 l 474 563 q 421 753 433 676 l 419 753 m 464 1397 q 590 1353 535 1397 q 650 1229 646 1310 q 624 1131 651 1174 q 554 1066 597 1089 q 465 1043 511 1043 q 335 1088 390 1043 q 279 1218 279 1132 q 306 1310 279 1269 q 376 1374 333 1351 q 464 1397 418 1397 m 464 1324 q 419 1299 436 1324 q 403 1229 403 1274 q 422 1148 403 1178 q 469 1118 440 1118 q 511 1140 496 1118 q 526 1204 526 1161 q 510 1292 526 1261 q 464 1324 493 1324 z "},"Ã":{"ha":928,"x_min":6,"x_max":922,"o":"m 803 240 q 826 172 814 213 q 842 103 839 131 q 922 107 888 107 l 922 0 l 549 0 l 549 92 q 615 147 615 92 q 600 214 615 175 l 572 290 l 271 285 l 249 219 q 230 169 244 208 q 204 107 215 131 q 303 111 249 111 l 303 0 l 6 0 l 6 96 q 66 117 42 96 q 104 167 90 138 q 139 254 118 197 l 410 997 l 507 997 l 803 240 m 419 753 q 368 569 397 653 l 306 389 l 538 389 l 474 563 q 421 753 433 676 l 419 753 m 756 1281 q 672 1144 722 1183 q 571 1106 622 1106 q 517 1115 542 1106 q 461 1142 492 1124 q 411 1167 432 1158 q 365 1175 390 1175 q 304 1158 335 1175 q 249 1103 274 1142 l 171 1154 q 253 1265 200 1226 q 360 1303 306 1303 q 417 1293 392 1303 q 475 1265 443 1283 q 524 1242 507 1249 q 564 1235 542 1235 q 624 1260 592 1235 q 676 1325 657 1286 l 756 1281 z "},"Æ":{"ha":1299,"x_min":-8,"x_max":1243,"o":"m 1204 703 l 1113 703 q 1063 845 1113 806 q 944 882 1014 885 l 894 881 q 842 872 861 879 q 812 838 822 864 q 801 760 801 811 l 801 551 l 964 551 q 958 672 963 575 l 1065 672 l 1065 335 l 974 335 q 956 417 974 390 q 911 451 939 443 q 838 457 883 458 l 801 456 l 801 228 q 796 106 801 153 l 982 106 q 1102 153 1053 106 q 1151 306 1151 201 l 1243 306 l 1235 0 l 501 0 l 501 92 q 558 101 539 93 q 589 133 578 108 q 600 213 600 158 l 600 288 q 467 285 558 288 l 328 281 l 279 210 q 192 104 225 129 l 192 103 l 303 107 l 303 0 l -8 0 l -8 92 q 71 129 35 92 q 157 238 107 167 l 606 868 l 606 869 l 501 865 l 501 972 l 1196 972 l 1204 703 m 608 694 q 508 544 574 642 l 396 383 l 600 383 l 600 503 q 608 694 600 594 z "},"B":{"ha":918,"x_min":69,"x_max":879,"o":"m 454 975 q 715 915 621 976 q 810 736 810 854 q 759 610 810 668 q 610 526 708 553 l 610 525 q 811 436 743 504 q 879 276 879 368 q 785 72 879 144 q 542 0 692 0 l 69 0 l 69 92 q 126 101 107 93 q 157 133 146 108 q 168 213 168 158 l 168 744 q 174 869 168 822 l 69 865 l 69 972 l 454 975 m 454 878 q 408 871 425 878 q 380 838 390 864 q 369 761 369 813 l 369 546 l 442 547 q 560 599 524 549 q 597 733 597 650 q 556 843 597 808 q 454 878 514 878 m 482 449 q 369 447 406 449 l 369 221 q 364 99 369 146 q 499 100 456 99 q 621 152 581 104 q 661 281 661 200 q 610 409 661 369 q 482 449 558 449 z "},"C":{"ha":956,"x_min":49,"x_max":943,"o":"m 535 994 q 655 976 590 994 q 774 926 719 958 l 775 926 l 769 985 l 876 985 l 876 661 l 786 661 q 553 894 749 892 q 395 840 460 894 q 299 694 331 785 q 267 500 267 604 q 301 288 267 381 q 401 142 336 194 q 558 90 467 90 q 733 136 647 90 q 876 261 818 182 l 943 200 q 742 26 851 74 q 525 -22 632 -22 q 276 43 385 -22 q 108 222 168 108 q 49 472 49 335 q 105 724 49 604 q 271 919 161 844 q 535 994 381 994 z "},"Ć":{"ha":956,"x_min":49,"x_max":943,"o":"m 535 994 q 655 976 590 994 q 774 926 719 958 l 775 926 l 769 985 l 876 985 l 876 661 l 786 661 q 553 894 749 892 q 395 840 460 894 q 299 694 331 785 q 267 500 267 604 q 301 288 267 381 q 401 142 336 194 q 558 90 467 90 q 733 136 647 90 q 876 261 818 182 l 943 200 q 742 26 851 74 q 525 -22 632 -22 q 276 43 385 -22 q 108 222 168 108 q 49 472 49 335 q 105 724 49 604 q 271 919 161 844 q 535 994 381 994 m 743 1276 q 757 1235 757 1257 q 741 1185 757 1210 q 701 1146 725 1161 l 504 1042 l 454 1110 l 608 1274 q 643 1298 624 1289 q 682 1307 663 1307 q 743 1276 718 1307 z "},"Č":{"ha":956,"x_min":49,"x_max":943,"o":"m 535 994 q 655 976 590 994 q 774 926 719 958 l 775 926 l 769 985 l 876 985 l 876 661 l 786 661 q 553 894 749 892 q 395 840 460 894 q 299 694 331 785 q 267 500 267 604 q 301 288 267 381 q 401 142 336 194 q 558 90 467 90 q 733 136 647 90 q 876 261 818 182 l 943 200 q 742 26 851 74 q 525 -22 632 -22 q 276 43 385 -22 q 108 222 168 108 q 49 472 49 335 q 105 724 49 604 q 271 919 161 844 q 535 994 381 994 m 814 1338 l 850 1275 l 567 1063 l 540 1063 l 269 1271 l 313 1335 l 560 1214 l 814 1338 z "},"Ç":{"ha":960,"x_min":50,"x_max":943,"o":"m 535 994 q 656 976 592 994 q 774 926 719 958 l 775 926 l 771 985 l 878 985 l 878 661 l 786 661 q 553 894 749 892 q 397 840 461 894 q 300 694 332 785 q 268 500 268 604 q 302 287 268 379 q 402 142 336 194 q 560 90 468 90 q 733 136 647 90 q 876 261 819 182 l 943 200 q 743 26 853 74 q 525 -22 633 -22 l 513 -22 l 486 -93 l 488 -93 q 531 -78 503 -85 q 578 -72 558 -72 q 656 -99 624 -72 q 688 -174 688 -126 q 634 -278 688 -233 q 507 -347 581 -322 q 368 -382 433 -372 l 357 -306 q 465 -268 408 -296 q 522 -203 522 -240 q 512 -176 522 -185 q 486 -168 501 -168 q 456 -174 472 -168 q 429 -189 440 -181 l 372 -168 l 408 -10 q 219 84 300 15 q 94 253 138 153 q 50 472 50 354 q 106 724 50 604 q 271 919 161 844 q 535 994 381 994 z "},"Ĉ":{"ha":956,"x_min":49,"x_max":943,"o":"m 535 994 q 655 976 590 994 q 774 926 719 958 l 775 926 l 769 985 l 876 985 l 876 661 l 786 661 q 553 894 749 892 q 395 840 460 894 q 299 694 331 785 q 267 500 267 604 q 301 288 267 381 q 401 142 336 194 q 558 90 467 90 q 733 136 647 90 q 876 261 818 182 l 943 200 q 742 26 851 74 q 525 -22 632 -22 q 276 43 385 -22 q 108 222 168 108 q 49 472 49 335 q 105 724 49 604 q 271 919 161 844 q 535 994 381 994 m 581 1349 l 851 1140 l 808 1075 l 560 1196 l 307 1078 l 269 1140 l 553 1349 l 581 1349 z "},"D":{"ha":1054,"x_min":69,"x_max":1006,"o":"m 474 974 q 767 905 647 974 q 947 726 888 836 q 1006 496 1006 617 q 949 260 1006 374 q 772 74 893 147 q 467 0 650 0 l 69 0 l 69 92 q 126 101 107 93 q 157 133 146 108 q 168 213 168 158 l 168 744 q 174 869 168 822 l 69 865 l 69 972 l 474 974 m 457 881 q 390 857 410 881 q 369 763 369 833 l 369 228 q 364 103 369 150 q 390 104 371 104 l 450 103 q 496 101 468 101 q 658 153 593 101 q 755 287 724 204 q 786 467 786 369 q 700 779 786 678 q 457 881 614 881 z "},"Ð":{"ha":1054,"x_min":42,"x_max":1006,"o":"m 474 975 q 767 906 647 975 q 947 728 888 838 q 1006 496 1006 618 q 949 260 1006 374 q 772 74 893 147 q 467 0 650 0 l 69 0 l 69 92 q 126 101 107 94 q 157 134 146 108 q 168 213 168 160 l 168 435 l 42 433 l 42 543 l 168 543 l 168 746 q 174 869 168 822 l 69 867 l 69 974 l 474 975 m 463 882 q 391 859 413 882 q 369 764 369 836 l 369 543 l 585 543 l 585 439 l 369 436 l 369 229 q 364 104 369 151 q 407 105 385 106 q 446 104 429 104 q 496 103 465 103 q 658 153 593 103 q 755 287 724 204 q 786 467 786 369 q 701 780 786 678 q 463 882 617 882 z "},"Ď":{"ha":1054,"x_min":69,"x_max":1006,"o":"m 474 974 q 767 905 647 974 q 947 726 888 836 q 1006 496 1006 617 q 949 260 1006 374 q 772 74 893 147 q 467 0 650 0 l 69 0 l 69 92 q 126 101 107 93 q 157 133 146 108 q 168 213 168 158 l 168 744 q 174 869 168 822 l 69 865 l 69 972 l 474 974 m 457 881 q 390 857 410 881 q 369 763 369 833 l 369 228 q 364 103 369 150 q 390 104 371 104 l 450 103 q 496 101 468 101 q 658 153 593 101 q 755 287 724 204 q 786 467 786 369 q 700 779 786 678 q 457 881 614 881 m 754 1338 l 790 1275 l 507 1063 l 481 1063 l 210 1271 l 253 1335 l 500 1214 l 754 1338 z "},"Đ":{"ha":1054,"x_min":42,"x_max":1006,"o":"m 474 975 q 767 906 647 975 q 947 728 888 838 q 1006 496 1006 618 q 949 260 1006 374 q 772 74 893 147 q 467 0 650 0 l 69 0 l 69 92 q 126 101 107 94 q 157 134 146 108 q 168 213 168 160 l 168 435 l 42 433 l 42 543 l 168 543 l 168 746 q 174 869 168 822 l 69 867 l 69 974 l 474 975 m 463 882 q 391 859 413 882 q 369 764 369 836 l 369 543 l 585 543 l 585 439 l 369 436 l 369 229 q 364 104 369 151 q 407 105 385 106 q 446 104 429 104 q 496 103 465 103 q 658 153 593 103 q 755 287 724 204 q 786 467 786 369 q 701 780 786 678 q 463 882 617 882 z "},"E":{"ha":867,"x_min":69,"x_max":810,"o":"m 772 703 l 681 703 q 631 845 681 806 q 513 882 582 885 l 463 881 q 410 872 429 879 q 380 838 390 864 q 369 760 369 811 l 369 551 l 532 551 q 526 672 531 575 l 633 672 l 633 335 l 542 335 q 524 417 542 390 q 479 451 507 443 q 406 457 451 458 l 369 456 l 369 228 q 364 106 369 153 l 550 106 q 670 153 621 106 q 719 306 719 201 l 810 306 l 803 0 l 69 0 l 69 92 q 126 101 107 93 q 157 133 146 108 q 168 213 168 158 l 168 744 q 174 869 168 822 l 69 865 l 69 972 l 764 972 l 772 703 z "},"É":{"ha":867,"x_min":69,"x_max":810,"o":"m 772 703 l 681 703 q 631 845 681 806 q 513 882 582 885 l 463 881 q 410 872 429 879 q 380 838 390 864 q 369 760 369 811 l 369 551 l 532 551 q 526 672 531 575 l 633 672 l 633 335 l 542 335 q 524 417 542 390 q 479 451 507 443 q 406 457 451 458 l 369 456 l 369 228 q 364 106 369 153 l 550 106 q 670 153 621 106 q 719 306 719 201 l 810 306 l 803 0 l 69 0 l 69 92 q 126 101 107 93 q 157 133 146 108 q 168 213 168 158 l 168 744 q 174 869 168 822 l 69 865 l 69 972 l 764 972 l 772 703 m 633 1276 q 647 1235 647 1257 q 631 1185 647 1210 q 592 1146 615 1161 l 394 1042 l 344 1110 l 499 1274 q 533 1298 514 1289 q 572 1307 553 1307 q 633 1276 608 1307 z "},"Ě":{"ha":867,"x_min":69,"x_max":810,"o":"m 772 703 l 681 703 q 631 845 681 806 q 513 882 582 885 l 463 881 q 410 872 429 879 q 380 838 390 864 q 369 760 369 811 l 369 551 l 532 551 q 526 672 531 575 l 633 672 l 633 335 l 542 335 q 524 417 542 390 q 479 451 507 443 q 406 457 451 458 l 369 456 l 369 228 q 364 106 369 153 l 550 106 q 670 153 621 106 q 719 306 719 201 l 810 306 l 803 0 l 69 0 l 69 92 q 126 101 107 93 q 157 133 146 108 q 168 213 168 158 l 168 744 q 174 869 168 822 l 69 865 l 69 972 l 764 972 l 772 703 m 704 1338 l 740 1275 l 457 1063 l 431 1063 l 160 1271 l 203 1335 l 450 1214 l 704 1338 z "},"Ê":{"ha":867,"x_min":69,"x_max":810,"o":"m 772 703 l 681 703 q 631 845 681 806 q 513 882 582 885 l 463 881 q 410 872 429 879 q 380 838 390 864 q 369 760 369 811 l 369 551 l 532 551 q 526 672 531 575 l 633 672 l 633 335 l 542 335 q 524 417 542 390 q 479 451 507 443 q 406 457 451 458 l 369 456 l 369 228 q 364 106 369 153 l 550 106 q 670 153 621 106 q 719 306 719 201 l 810 306 l 803 0 l 69 0 l 69 92 q 126 101 107 93 q 157 133 146 108 q 168 213 168 158 l 168 744 q 174 869 168 822 l 69 865 l 69 972 l 764 972 l 772 703 m 471 1349 l 742 1140 l 699 1075 l 450 1196 l 197 1078 l 160 1140 l 443 1349 l 471 1349 z "},"Ế":{"ha":867,"x_min":69,"x_max":899,"o":"m 874 1465 q 899 1408 899 1442 q 888 1365 899 1388 q 861 1328 878 1343 l 693 1181 l 629 1238 l 743 1432 q 781 1469 758 1456 q 826 1482 803 1482 q 874 1465 851 1482 m 467 1283 l 690 1111 l 656 1058 l 450 1158 l 242 1060 l 210 1111 l 444 1283 l 467 1283 m 772 703 l 681 703 q 631 845 681 806 q 513 882 582 885 l 463 881 q 410 872 429 879 q 380 838 390 864 q 369 760 369 811 l 369 551 l 532 551 q 526 672 531 575 l 633 672 l 633 335 l 542 335 q 524 417 542 390 q 479 451 507 443 q 406 457 451 458 l 369 456 l 369 228 q 364 106 369 153 l 550 106 q 670 153 621 106 q 719 306 719 201 l 810 306 l 803 0 l 69 0 l 69 92 q 126 101 107 93 q 157 133 146 108 q 168 213 168 158 l 168 744 q 174 869 168 822 l 69 865 l 69 972 l 764 972 l 772 703 z "},"Ệ":{"ha":867,"x_min":69,"x_max":810,"o":"m 772 703 l 681 703 q 631 845 681 806 q 513 882 582 885 l 463 881 q 410 872 429 879 q 380 838 390 864 q 369 760 369 811 l 369 551 l 532 551 q 526 672 531 575 l 633 672 l 633 335 l 542 335 q 524 417 542 390 q 479 451 507 443 q 406 457 451 458 l 369 456 l 369 228 q 364 106 369 153 l 550 106 q 670 153 621 106 q 719 306 719 201 l 810 306 l 803 0 l 69 0 l 69 92 q 126 101 107 93 q 157 133 146 108 q 168 213 168 158 l 168 744 q 174 869 168 822 l 69 865 l 69 972 l 764 972 l 772 703 m 533 -86 q 592 -112 568 -86 q 615 -176 615 -139 q 593 -240 615 -214 q 535 -265 571 -265 q 473 -240 497 -265 q 449 -176 449 -214 q 474 -112 449 -139 q 533 -86 499 -86 m 471 1349 l 742 1140 l 699 1075 l 450 1196 l 197 1078 l 160 1140 l 443 1349 l 471 1349 z "},"Ề":{"ha":867,"x_min":69,"x_max":810,"o":"m 483 1525 q 531 1542 504 1542 q 576 1528 554 1542 q 613 1492 599 1514 l 726 1297 l 663 1240 l 494 1388 q 467 1425 478 1404 q 457 1467 457 1446 q 483 1525 457 1500 m 467 1283 l 690 1111 l 656 1058 l 450 1158 l 242 1060 l 210 1111 l 444 1283 l 467 1283 m 772 703 l 681 703 q 631 845 681 806 q 513 882 582 885 l 463 881 q 410 872 429 879 q 380 838 390 864 q 369 760 369 811 l 369 551 l 532 551 q 526 672 531 575 l 633 672 l 633 335 l 542 335 q 524 417 542 390 q 479 451 507 443 q 406 457 451 458 l 369 456 l 369 228 q 364 106 369 153 l 550 106 q 670 153 621 106 q 719 306 719 201 l 810 306 l 803 0 l 69 0 l 69 92 q 126 101 107 93 q 157 133 146 108 q 168 213 168 158 l 168 744 q 174 869 168 822 l 69 865 l 69 972 l 764 972 l 772 703 z "},"Ể":{"ha":867,"x_min":69,"x_max":810,"o":"m 632 1510 q 758 1474 713 1510 q 804 1376 804 1439 q 791 1333 804 1350 q 753 1297 778 1317 q 724 1272 732 1281 q 715 1249 715 1263 l 624 1249 q 633 1278 624 1267 q 661 1306 643 1290 q 690 1335 681 1322 q 700 1368 700 1349 q 685 1411 700 1396 q 632 1426 671 1426 q 588 1415 603 1426 q 569 1389 572 1404 q 578 1378 576 1385 q 581 1360 581 1372 q 567 1338 581 1347 q 525 1328 554 1328 q 485 1342 497 1328 q 474 1385 474 1357 q 512 1471 474 1432 q 632 1510 550 1510 m 467 1283 l 690 1111 l 656 1058 l 450 1158 l 242 1060 l 210 1111 l 444 1283 l 467 1283 m 772 703 l 681 703 q 631 845 681 806 q 513 882 582 885 l 463 881 q 410 872 429 879 q 380 838 390 864 q 369 760 369 811 l 369 551 l 532 551 q 526 672 531 575 l 633 672 l 633 335 l 542 335 q 524 417 542 390 q 479 451 507 443 q 406 457 451 458 l 369 456 l 369 228 q 364 106 369 153 l 550 106 q 670 153 621 106 q 719 306 719 201 l 810 306 l 803 0 l 69 0 l 69 92 q 126 101 107 93 q 157 133 146 108 q 168 213 168 158 l 168 744 q 174 869 168 822 l 69 865 l 69 972 l 764 972 l 772 703 z "},"Ễ":{"ha":867,"x_min":69,"x_max":810,"o":"m 725 1489 q 651 1367 697 1408 q 560 1326 606 1326 q 512 1334 533 1326 q 463 1357 490 1342 q 424 1375 439 1369 q 392 1381 410 1381 q 348 1367 371 1381 q 306 1324 325 1354 l 228 1369 q 297 1472 250 1432 q 390 1513 343 1513 q 442 1505 421 1513 q 486 1483 463 1497 q 523 1465 507 1471 q 560 1460 539 1460 q 606 1478 583 1460 q 646 1529 628 1496 l 725 1489 m 467 1283 l 690 1111 l 656 1058 l 450 1158 l 242 1060 l 210 1111 l 444 1283 l 467 1283 m 772 703 l 681 703 q 631 845 681 806 q 513 882 582 885 l 463 881 q 410 872 429 879 q 380 838 390 864 q 369 760 369 811 l 369 551 l 532 551 q 526 672 531 575 l 633 672 l 633 335 l 542 335 q 524 417 542 390 q 479 451 507 443 q 406 457 451 458 l 369 456 l 369 228 q 364 106 369 153 l 550 106 q 670 153 621 106 q 719 306 719 201 l 810 306 l 803 0 l 69 0 l 69 92 q 126 101 107 93 q 157 133 146 108 q 168 213 168 158 l 168 744 q 174 869 168 822 l 69 865 l 69 972 l 764 972 l 772 703 z "},"Ë":{"ha":867,"x_min":69,"x_max":810,"o":"m 772 703 l 681 703 q 631 845 681 806 q 513 882 582 885 l 463 881 q 410 872 429 879 q 380 838 390 864 q 369 760 369 811 l 369 551 l 532 551 q 526 672 531 575 l 633 672 l 633 335 l 542 335 q 524 417 542 390 q 479 451 507 443 q 406 457 451 458 l 369 456 l 369 228 q 364 106 369 153 l 550 106 q 670 153 621 106 q 719 306 719 201 l 810 306 l 803 0 l 69 0 l 69 92 q 126 101 107 93 q 157 133 146 108 q 168 213 168 158 l 168 744 q 174 869 168 822 l 69 865 l 69 972 l 764 972 l 772 703 m 331 1318 q 396 1287 369 1318 q 422 1211 422 1256 q 394 1138 422 1168 q 329 1107 367 1107 q 264 1138 292 1107 q 236 1211 236 1168 q 265 1286 236 1254 q 331 1318 293 1318 m 572 1318 q 638 1287 611 1318 q 664 1211 664 1256 q 636 1138 664 1168 q 571 1107 608 1107 q 506 1138 533 1107 q 479 1211 479 1168 q 507 1286 479 1254 q 572 1318 535 1318 z "},"Ė":{"ha":867,"x_min":69,"x_max":810,"o":"m 772 703 l 681 703 q 631 845 681 806 q 513 882 582 885 l 463 881 q 410 872 429 879 q 380 838 390 864 q 369 760 369 811 l 369 551 l 532 551 q 526 672 531 575 l 633 672 l 633 335 l 542 335 q 524 417 542 390 q 479 451 507 443 q 406 457 451 458 l 369 456 l 369 228 q 364 106 369 153 l 550 106 q 670 153 621 106 q 719 306 719 201 l 810 306 l 803 0 l 69 0 l 69 92 q 126 101 107 93 q 157 133 146 108 q 168 213 168 158 l 168 744 q 174 869 168 822 l 69 865 l 69 972 l 764 972 l 772 703 m 451 1324 q 526 1290 496 1324 q 556 1210 556 1257 q 527 1128 556 1161 q 453 1096 499 1096 q 375 1129 406 1096 q 344 1210 344 1163 q 376 1290 344 1257 q 451 1324 408 1324 z "},"Ẹ":{"ha":867,"x_min":69,"x_max":810,"o":"m 772 703 l 681 703 q 631 845 681 806 q 513 882 582 885 l 463 881 q 410 872 429 879 q 380 838 390 864 q 369 760 369 811 l 369 551 l 532 551 q 526 672 531 575 l 633 672 l 633 335 l 542 335 q 524 417 542 390 q 479 451 507 443 q 406 457 451 458 l 369 456 l 369 228 q 364 106 369 153 l 550 106 q 670 153 621 106 q 719 306 719 201 l 810 306 l 803 0 l 69 0 l 69 92 q 126 101 107 93 q 157 133 146 108 q 168 213 168 158 l 168 744 q 174 869 168 822 l 69 865 l 69 972 l 764 972 l 772 703 m 533 -86 q 592 -112 568 -86 q 615 -176 615 -139 q 593 -240 615 -214 q 535 -265 571 -265 q 473 -240 497 -265 q 449 -176 449 -214 q 474 -112 449 -139 q 533 -86 499 -86 z "},"È":{"ha":867,"x_min":69,"x_max":810,"o":"m 772 703 l 681 703 q 631 845 681 806 q 513 882 582 885 l 463 881 q 410 872 429 879 q 380 838 390 864 q 369 760 369 811 l 369 551 l 532 551 q 526 672 531 575 l 633 672 l 633 335 l 542 335 q 524 417 542 390 q 479 451 507 443 q 406 457 451 458 l 369 456 l 369 228 q 364 106 369 153 l 550 106 q 670 153 621 106 q 719 306 719 201 l 810 306 l 803 0 l 69 0 l 69 92 q 126 101 107 93 q 157 133 146 108 q 168 213 168 158 l 168 744 q 174 869 168 822 l 69 865 l 69 972 l 764 972 l 772 703 m 243 1276 q 304 1307 268 1307 q 343 1298 324 1307 q 378 1274 363 1289 l 532 1110 l 482 1042 l 285 1146 q 245 1185 261 1161 q 229 1235 229 1210 q 243 1276 229 1257 z "},"Ẻ":{"ha":867,"x_min":69,"x_max":810,"o":"m 772 703 l 681 703 q 631 845 681 806 q 513 882 582 885 l 463 881 q 410 872 429 879 q 380 838 390 864 q 369 760 369 811 l 369 551 l 532 551 q 526 672 531 575 l 633 672 l 633 335 l 542 335 q 524 417 542 390 q 479 451 507 443 q 406 457 451 458 l 369 456 l 369 228 q 364 106 369 153 l 550 106 q 670 153 621 106 q 719 306 719 201 l 810 306 l 803 0 l 69 0 l 69 92 q 126 101 107 93 q 157 133 146 108 q 168 213 168 158 l 168 744 q 174 869 168 822 l 69 865 l 69 972 l 764 972 l 772 703 m 431 1315 q 557 1280 511 1315 q 603 1182 603 1244 q 590 1139 603 1156 q 551 1103 576 1122 q 522 1077 531 1086 q 514 1054 514 1068 l 422 1054 q 432 1084 422 1072 q 460 1111 442 1096 q 489 1141 479 1128 q 499 1174 499 1154 q 484 1217 499 1201 q 431 1232 469 1232 q 386 1221 401 1232 q 368 1194 371 1210 q 377 1184 375 1190 q 379 1165 379 1178 q 366 1143 379 1153 q 324 1133 353 1133 q 284 1148 296 1133 q 272 1190 272 1163 q 310 1276 272 1238 q 431 1315 349 1315 z "},"Ē":{"ha":867,"x_min":69,"x_max":810,"o":"m 772 703 l 681 703 q 631 845 681 806 q 513 882 582 885 l 463 881 q 410 872 429 879 q 380 838 390 864 q 369 760 369 811 l 369 551 l 532 551 q 526 672 531 575 l 633 672 l 633 335 l 542 335 q 524 417 542 390 q 479 451 507 443 q 406 457 451 458 l 369 456 l 369 228 q 364 106 369 153 l 550 106 q 670 153 621 106 q 719 306 719 201 l 810 306 l 803 0 l 69 0 l 69 92 q 126 101 107 93 q 157 133 146 108 q 168 213 168 158 l 168 744 q 174 869 168 822 l 69 865 l 69 972 l 764 972 l 772 703 m 647 1282 l 647 1154 l 253 1149 l 253 1282 l 647 1282 z "},"Ę":{"ha":867,"x_min":69,"x_max":810,"o":"m 767 0 q 651 -78 699 -31 q 603 -176 603 -126 q 619 -220 603 -204 q 664 -236 635 -236 q 750 -196 706 -236 l 799 -256 q 713 -333 761 -304 q 615 -362 664 -362 q 506 -326 547 -362 q 465 -219 465 -289 q 508 -101 465 -158 q 624 0 551 -44 l 69 0 l 69 92 q 126 101 107 93 q 157 133 146 108 q 168 213 168 158 l 168 744 q 174 869 168 822 l 69 865 l 69 972 l 764 972 l 772 703 l 681 703 q 631 845 681 806 q 513 882 582 885 l 463 881 q 410 872 429 879 q 380 838 390 864 q 369 760 369 811 l 369 551 l 532 551 q 526 672 531 575 l 633 672 l 633 335 l 542 335 q 524 417 542 390 q 479 451 507 443 q 406 457 451 458 l 369 456 l 369 228 q 364 106 369 153 l 550 106 q 670 153 621 106 q 719 306 719 201 l 810 306 l 803 0 l 767 0 z "},"Ẽ":{"ha":867,"x_min":69,"x_max":810,"o":"m 772 703 l 681 703 q 631 845 681 806 q 513 882 582 885 l 463 881 q 410 872 429 879 q 380 838 390 864 q 369 760 369 811 l 369 551 l 532 551 q 526 672 531 575 l 633 672 l 633 335 l 542 335 q 524 417 542 390 q 479 451 507 443 q 406 457 451 458 l 369 456 l 369 228 q 364 106 369 153 l 550 106 q 670 153 621 106 q 719 306 719 201 l 810 306 l 803 0 l 69 0 l 69 92 q 126 101 107 93 q 157 133 146 108 q 168 213 168 158 l 168 744 q 174 869 168 822 l 69 865 l 69 972 l 764 972 l 772 703 m 699 1283 q 625 1162 671 1203 q 533 1121 579 1121 q 485 1128 507 1121 q 436 1151 464 1136 q 398 1169 413 1164 q 365 1175 383 1175 q 322 1162 344 1175 q 279 1118 299 1149 l 201 1164 q 270 1267 224 1226 q 364 1307 317 1307 q 415 1299 394 1307 q 460 1278 436 1292 q 497 1260 481 1265 q 533 1254 513 1254 q 579 1272 557 1254 q 619 1324 601 1290 l 699 1283 z "},"F":{"ha":793,"x_min":69,"x_max":772,"o":"m 772 703 l 681 703 q 631 845 681 806 q 513 882 582 885 l 463 881 q 410 872 429 879 q 380 838 390 864 q 369 760 369 811 l 369 518 l 513 518 q 507 638 511 536 l 614 638 l 614 300 l 522 300 q 505 383 522 356 q 459 417 488 410 q 386 422 431 424 l 369 422 l 369 228 q 364 103 369 150 q 488 107 408 107 l 488 0 l 69 0 l 69 92 q 126 101 107 93 q 157 133 146 108 q 168 213 168 158 l 168 744 q 174 869 168 822 l 69 865 l 69 972 l 764 972 l 772 703 z "},"G":{"ha":1047,"x_min":50,"x_max":1024,"o":"m 532 994 q 667 976 592 994 q 796 926 743 958 l 797 926 l 792 985 l 899 985 l 899 661 l 808 661 q 721 833 790 774 q 550 894 651 893 q 394 840 458 894 q 299 694 331 785 q 267 500 267 604 q 343 201 267 315 q 557 88 419 88 q 659 97 601 88 q 753 125 717 107 l 753 254 q 758 379 753 332 q 690 376 722 376 l 654 375 l 654 482 l 1024 482 l 1024 390 q 969 381 989 389 q 940 347 950 372 q 931 269 931 321 l 931 47 l 897 47 q 834 40 865 47 q 754 18 803 33 q 633 -12 682 -3 q 522 -22 585 -22 q 269 43 375 -22 q 106 220 163 108 q 50 472 50 332 q 105 724 50 604 q 269 919 160 844 q 532 994 378 994 z "},"Ğ":{"ha":1047,"x_min":50,"x_max":1024,"o":"m 532 994 q 667 976 592 994 q 796 926 743 958 l 797 926 l 792 985 l 899 985 l 899 661 l 808 661 q 721 833 790 774 q 550 894 651 893 q 394 840 458 894 q 299 694 331 785 q 267 500 267 604 q 343 201 267 315 q 557 88 419 88 q 659 97 601 88 q 753 125 717 107 l 753 254 q 758 379 753 332 q 690 376 722 376 l 654 375 l 654 482 l 1024 482 l 1024 390 q 969 381 989 389 q 940 347 950 372 q 931 269 931 321 l 931 47 l 897 47 q 834 40 865 47 q 754 18 803 33 q 633 -12 682 -3 q 522 -22 585 -22 q 269 43 375 -22 q 106 220 163 108 q 50 472 50 332 q 105 724 50 604 q 269 919 160 844 q 532 994 378 994 m 540 1086 q 399 1126 465 1086 q 303 1254 333 1167 l 361 1283 q 438 1228 396 1249 q 540 1207 481 1207 q 642 1228 600 1207 q 718 1283 683 1249 l 776 1254 q 681 1126 746 1167 q 540 1086 615 1086 z "},"Ĝ":{"ha":1047,"x_min":50,"x_max":1024,"o":"m 532 994 q 667 976 592 994 q 796 926 743 958 l 797 926 l 792 985 l 899 985 l 899 661 l 808 661 q 721 833 790 774 q 550 894 651 893 q 394 840 458 894 q 299 694 331 785 q 267 500 267 604 q 343 201 267 315 q 557 88 419 88 q 659 97 601 88 q 753 125 717 107 l 753 254 q 758 379 753 332 q 690 376 722 376 l 654 375 l 654 482 l 1024 482 l 1024 390 q 969 381 989 389 q 940 347 950 372 q 931 269 931 321 l 931 47 l 897 47 q 834 40 865 47 q 754 18 803 33 q 633 -12 682 -3 q 522 -22 585 -22 q 269 43 375 -22 q 106 220 163 108 q 50 472 50 332 q 105 724 50 604 q 269 919 160 844 q 532 994 378 994 m 558 1349 l 829 1140 l 786 1075 l 538 1196 l 285 1078 l 247 1140 l 531 1349 l 558 1349 z "},"Ģ":{"ha":1047,"x_min":50,"x_max":1024,"o":"m 532 994 q 667 976 592 994 q 796 926 743 958 l 797 926 l 792 985 l 899 985 l 899 661 l 808 661 q 721 833 790 774 q 550 894 651 893 q 394 840 458 894 q 299 694 331 785 q 267 500 267 604 q 343 201 267 315 q 557 88 419 88 q 659 97 601 88 q 753 125 717 107 l 753 254 q 758 379 753 332 q 690 376 722 376 l 654 375 l 654 482 l 1024 482 l 1024 390 q 969 381 989 389 q 940 347 950 372 q 931 269 931 321 l 931 47 l 897 47 q 834 40 865 47 q 754 18 803 33 q 633 -12 682 -3 q 522 -22 585 -22 q 269 43 375 -22 q 106 220 163 108 q 50 472 50 332 q 105 724 50 604 q 269 919 160 844 q 532 994 378 994 m 664 -50 q 693 -150 693 -99 q 656 -272 693 -210 q 556 -394 619 -335 l 493 -346 q 538 -249 524 -293 q 551 -162 551 -206 q 539 -75 551 -121 l 664 -50 z "},"H":{"ha":1121,"x_min":69,"x_max":1051,"o":"m 1051 881 q 994 872 1014 879 q 964 839 975 864 q 953 760 953 814 l 953 228 q 947 103 953 150 q 1051 107 992 107 l 1051 0 l 653 0 l 653 92 q 710 101 690 93 q 740 133 729 108 q 751 213 751 158 l 751 438 l 369 433 l 369 228 q 364 103 369 150 q 468 107 408 107 l 468 0 l 69 0 l 69 92 q 126 101 107 93 q 157 133 146 108 q 168 213 168 158 l 168 744 q 174 869 168 822 l 69 865 l 69 972 l 468 972 l 468 881 q 411 872 431 879 q 381 839 392 864 q 369 760 369 814 l 369 543 l 751 543 l 751 744 q 757 869 751 838 l 653 865 l 653 972 l 1051 972 l 1051 881 z "},"Ĥ":{"ha":1121,"x_min":69,"x_max":1051,"o":"m 1051 881 q 994 872 1014 879 q 964 839 975 864 q 953 760 953 814 l 953 228 q 947 103 953 150 q 1051 107 992 107 l 1051 0 l 653 0 l 653 92 q 710 101 690 93 q 740 133 729 108 q 751 213 751 158 l 751 438 l 369 433 l 369 228 q 364 103 369 150 q 468 107 408 107 l 468 0 l 69 0 l 69 92 q 126 101 107 93 q 157 133 146 108 q 168 213 168 158 l 168 744 q 174 869 168 822 l 69 865 l 69 972 l 468 972 l 468 881 q 411 872 431 879 q 381 839 392 864 q 369 760 369 814 l 369 543 l 751 543 l 751 744 q 757 869 751 838 l 653 865 l 653 972 l 1051 972 l 1051 881 m 581 1349 l 851 1140 l 808 1075 l 560 1196 l 307 1078 l 269 1140 l 553 1349 l 581 1349 z "},"I":{"ha":538,"x_min":69,"x_max":468,"o":"m 468 881 q 411 872 431 879 q 381 839 392 864 q 369 760 369 814 l 369 228 q 364 103 369 150 q 468 107 408 107 l 468 0 l 69 0 l 69 92 q 126 101 107 93 q 157 133 146 108 q 168 213 168 158 l 168 744 q 174 869 168 822 l 69 865 l 69 972 l 468 972 l 468 881 z "},"Í":{"ha":538,"x_min":69,"x_max":468,"o":"m 468 881 q 411 872 431 879 q 381 839 392 864 q 369 760 369 814 l 369 228 q 364 103 369 150 q 468 107 408 107 l 468 0 l 69 0 l 69 92 q 126 101 107 93 q 157 133 146 108 q 168 213 168 158 l 168 744 q 174 869 168 822 l 69 865 l 69 972 l 468 972 l 468 881 m 450 1276 q 464 1235 464 1257 q 448 1185 464 1210 q 408 1146 432 1161 l 211 1042 l 161 1110 l 315 1274 q 350 1298 331 1289 q 389 1307 369 1307 q 450 1276 425 1307 z "},"Î":{"ha":538,"x_min":35,"x_max":508,"o":"m 290 1349 l 508 1140 l 464 1075 l 271 1196 l 72 1078 l 35 1140 l 264 1349 l 290 1349 m 468 881 q 411 872 431 879 q 381 839 392 864 q 369 760 369 814 l 369 228 q 364 103 369 150 q 468 107 408 107 l 468 0 l 69 0 l 69 92 q 126 101 107 93 q 157 133 146 108 q 168 213 168 158 l 168 744 q 174 869 168 822 l 69 865 l 69 972 l 468 972 l 468 881 z "},"Ï":{"ha":538,"x_min":64,"x_max":492,"o":"m 157 1318 q 222 1287 196 1318 q 249 1211 249 1256 q 221 1138 249 1168 q 156 1107 193 1107 q 91 1138 118 1107 q 64 1211 64 1168 q 92 1286 64 1254 q 157 1318 119 1318 m 400 1318 q 465 1287 439 1318 q 492 1211 492 1256 q 464 1138 492 1168 q 399 1107 436 1107 q 333 1138 361 1107 q 306 1211 306 1168 q 334 1286 306 1254 q 400 1318 363 1318 m 468 881 q 411 872 431 879 q 381 839 392 864 q 369 760 369 814 l 369 228 q 364 103 369 150 q 468 107 408 107 l 468 0 l 69 0 l 69 92 q 126 101 107 93 q 157 133 146 108 q 168 213 168 158 l 168 744 q 174 869 168 822 l 69 865 l 69 972 l 468 972 l 468 881 z "},"İ":{"ha":538,"x_min":69,"x_max":468,"o":"m 468 881 q 411 872 431 879 q 381 839 392 864 q 369 760 369 814 l 369 228 q 364 103 369 150 q 468 107 408 107 l 468 0 l 69 0 l 69 92 q 126 101 107 93 q 157 133 146 108 q 168 213 168 158 l 168 744 q 174 869 168 822 l 69 865 l 69 972 l 468 972 l 468 881 m 268 1324 q 342 1290 313 1324 q 372 1210 372 1257 q 344 1128 372 1161 q 269 1096 315 1096 q 192 1129 222 1096 q 161 1210 161 1163 q 193 1290 161 1257 q 268 1324 225 1324 z "},"Ị":{"ha":538,"x_min":69,"x_max":468,"o":"m 468 881 q 411 872 431 879 q 381 839 392 864 q 369 760 369 814 l 369 228 q 364 103 369 150 q 468 107 408 107 l 468 0 l 69 0 l 69 92 q 126 101 107 93 q 157 133 146 108 q 168 213 168 158 l 168 744 q 174 869 168 822 l 69 865 l 69 972 l 468 972 l 468 881 m 271 -86 q 329 -112 306 -86 q 353 -176 353 -139 q 331 -240 353 -214 q 272 -265 308 -265 q 210 -240 235 -265 q 186 -176 186 -214 q 211 -112 186 -139 q 271 -86 236 -86 z "},"Ì":{"ha":538,"x_min":46,"x_max":468,"o":"m 468 881 q 411 872 431 879 q 381 839 392 864 q 369 760 369 814 l 369 228 q 364 103 369 150 q 468 107 408 107 l 468 0 l 69 0 l 69 92 q 126 101 107 93 q 157 133 146 108 q 168 213 168 158 l 168 744 q 174 869 168 822 l 69 865 l 69 972 l 468 972 l 468 881 m 60 1276 q 121 1307 85 1307 q 160 1298 140 1307 q 194 1274 179 1289 l 349 1110 l 299 1042 l 101 1146 q 62 1185 78 1161 q 46 1235 46 1210 q 60 1276 46 1257 z "},"Ỉ":{"ha":538,"x_min":69,"x_max":468,"o":"m 468 881 q 411 872 431 879 q 381 839 392 864 q 369 760 369 814 l 369 228 q 364 103 369 150 q 468 107 408 107 l 468 0 l 69 0 l 69 92 q 126 101 107 93 q 157 133 146 108 q 168 213 168 158 l 168 744 q 174 869 168 822 l 69 865 l 69 972 l 468 972 l 468 881 m 247 1315 q 374 1280 328 1315 q 419 1182 419 1244 q 406 1139 419 1156 q 368 1103 393 1122 q 339 1077 347 1086 q 331 1054 331 1068 l 239 1054 q 249 1084 239 1072 q 276 1111 258 1096 q 306 1141 296 1128 q 315 1174 315 1154 q 301 1217 315 1201 q 247 1232 286 1232 q 203 1221 218 1232 q 185 1194 188 1210 q 194 1184 192 1190 q 196 1165 196 1178 q 183 1143 196 1153 q 140 1133 169 1133 q 101 1148 113 1133 q 89 1190 89 1163 q 127 1276 89 1238 q 247 1315 165 1315 z "},"Ī":{"ha":538,"x_min":69,"x_max":468,"o":"m 468 881 q 411 872 431 879 q 381 839 392 864 q 369 760 369 814 l 369 228 q 364 103 369 150 q 468 107 408 107 l 468 0 l 69 0 l 69 92 q 126 101 107 93 q 157 133 146 108 q 168 213 168 158 l 168 744 q 174 869 168 822 l 69 865 l 69 972 l 468 972 l 468 881 m 464 1282 l 464 1154 l 69 1149 l 69 1282 l 464 1282 z "},"Į":{"ha":538,"x_min":69,"x_max":485,"o":"m 485 -262 q 399 -340 447 -311 q 301 -369 350 -369 q 192 -333 233 -369 q 151 -226 151 -296 q 198 -103 151 -162 q 321 0 244 -44 l 69 0 l 69 92 q 126 101 107 93 q 157 133 146 108 q 168 213 168 158 l 168 744 q 174 869 168 822 l 69 865 l 69 972 l 468 972 l 468 881 q 411 872 431 879 q 381 839 392 864 q 369 760 369 814 l 369 228 q 364 103 369 150 q 468 107 408 107 l 468 0 l 465 0 l 465 -1 q 341 -81 393 -32 q 289 -185 289 -131 q 305 -227 289 -211 q 350 -243 321 -243 q 436 -203 392 -243 l 485 -262 z "},"Ĩ":{"ha":538,"x_min":18,"x_max":515,"o":"m 468 881 q 411 872 431 879 q 381 839 392 864 q 369 760 369 814 l 369 228 q 364 103 369 150 q 468 107 408 107 l 468 0 l 69 0 l 69 92 q 126 101 107 93 q 157 133 146 108 q 168 213 168 158 l 168 744 q 174 869 168 822 l 69 865 l 69 972 l 468 972 l 468 881 m 515 1283 q 442 1162 488 1203 q 350 1121 396 1121 q 302 1128 324 1121 q 253 1151 281 1136 q 215 1169 229 1164 q 182 1175 200 1175 q 138 1162 161 1175 q 96 1118 115 1149 l 18 1164 q 87 1267 40 1226 q 181 1307 133 1307 q 232 1299 211 1307 q 276 1278 253 1292 q 313 1260 297 1265 q 350 1254 329 1254 q 396 1272 374 1254 q 436 1324 418 1290 l 515 1283 z "},"J":{"ha":626,"x_min":1,"x_max":589,"o":"m 589 881 q 532 872 551 879 q 501 839 513 864 q 490 760 490 814 l 490 353 q 417 67 490 157 q 200 -22 344 -22 q 59 20 117 -22 q 1 126 1 63 q 29 208 1 175 q 106 242 57 242 q 173 215 150 242 q 197 151 196 189 q 185 100 199 129 q 203 83 190 88 q 228 78 217 78 q 289 188 289 78 l 289 744 q 294 869 289 838 l 190 865 l 190 972 l 589 972 l 589 881 z "},"Ĵ":{"ha":626,"x_min":1,"x_max":624,"o":"m 406 1349 l 624 1140 l 579 1075 l 386 1196 l 188 1078 l 150 1140 l 379 1349 l 406 1349 m 589 881 q 532 872 551 879 q 501 839 513 864 q 490 760 490 814 l 490 353 q 417 67 490 157 q 200 -22 344 -22 q 59 20 117 -22 q 1 126 1 63 q 29 208 1 175 q 106 242 57 242 q 173 215 150 242 q 197 151 196 189 q 185 100 199 129 q 203 83 190 88 q 228 78 217 78 q 289 188 289 78 l 289 744 q 294 869 289 838 l 190 865 l 190 972 l 589 972 l 589 881 z "},"K":{"ha":989,"x_min":69,"x_max":988,"o":"m 924 881 q 812 850 864 878 q 708 739 760 822 l 575 525 l 575 524 q 663 443 628 492 l 806 242 q 988 92 908 96 l 988 0 l 774 0 q 713 49 758 1 q 638 142 668 97 l 500 342 q 458 397 481 369 q 419 438 436 425 l 369 438 l 369 228 q 364 103 369 150 q 468 107 408 107 l 468 0 l 69 0 l 69 92 q 126 101 107 93 q 157 133 146 108 q 168 213 168 158 l 168 744 q 174 869 168 822 l 69 865 l 69 972 l 468 972 l 468 881 q 411 872 431 879 q 381 839 392 864 q 369 760 369 814 l 369 549 l 469 549 l 576 731 q 671 869 643 847 l 671 871 q 618 867 640 868 q 583 865 596 867 l 583 972 l 924 972 l 924 881 z "},"Ķ":{"ha":989,"x_min":69,"x_max":988,"o":"m 924 881 q 812 850 864 878 q 708 739 760 822 l 575 525 l 575 524 q 663 443 628 492 l 806 242 q 988 92 908 96 l 988 0 l 774 0 q 713 49 758 1 q 638 142 668 97 l 500 342 q 458 397 481 369 q 419 438 436 425 l 369 438 l 369 228 q 364 103 369 150 q 468 107 408 107 l 468 0 l 69 0 l 69 92 q 126 101 107 93 q 157 133 146 108 q 168 213 168 158 l 168 744 q 174 869 168 822 l 69 865 l 69 972 l 468 972 l 468 881 q 411 872 431 879 q 381 839 392 864 q 369 760 369 814 l 369 549 l 469 549 l 576 731 q 671 869 643 847 l 671 871 q 618 867 640 868 q 583 865 596 867 l 583 972 l 924 972 l 924 881 m 631 -50 q 660 -150 660 -99 q 623 -272 660 -210 q 522 -394 586 -335 l 460 -346 q 504 -249 490 -293 q 518 -162 518 -206 q 506 -75 518 -121 l 631 -50 z "},"L":{"ha":839,"x_min":69,"x_max":818,"o":"m 468 881 q 411 872 431 879 q 381 839 392 864 q 369 760 369 814 l 369 228 q 364 106 369 153 l 550 106 q 679 165 633 107 q 725 333 725 222 l 818 333 l 810 0 l 69 0 l 69 92 q 126 101 107 93 q 157 133 146 108 q 168 213 168 158 l 168 744 q 174 869 168 822 l 69 865 l 69 972 l 468 972 l 468 881 z "},"Ĺ":{"ha":839,"x_min":69,"x_max":818,"o":"m 468 881 q 411 872 431 879 q 381 839 392 864 q 369 760 369 814 l 369 228 q 364 106 369 153 l 550 106 q 679 165 633 107 q 725 333 725 222 l 818 333 l 810 0 l 69 0 l 69 92 q 126 101 107 93 q 157 133 146 108 q 168 213 168 158 l 168 744 q 174 869 168 822 l 69 865 l 69 972 l 468 972 l 468 881 m 468 1276 q 482 1235 482 1257 q 466 1185 482 1210 q 426 1146 450 1161 l 229 1042 l 179 1110 l 333 1274 q 368 1298 349 1289 q 407 1307 388 1307 q 468 1276 443 1307 z "},"Ľ":{"ha":839,"x_min":69,"x_max":818,"o":"m 733 972 q 753 903 753 933 q 717 778 753 842 q 626 660 682 714 l 572 700 q 626 886 626 799 q 610 996 626 933 l 733 972 m 468 881 q 411 872 431 879 q 381 839 392 864 q 369 760 369 814 l 369 228 q 364 106 369 153 l 550 106 q 679 165 633 107 q 725 333 725 222 l 818 333 l 810 0 l 69 0 l 69 92 q 126 101 107 93 q 157 133 146 108 q 168 213 168 158 l 168 744 q 174 869 168 822 l 69 865 l 69 972 l 468 972 l 468 881 z "},"Ļ":{"ha":839,"x_min":69,"x_max":818,"o":"m 468 881 q 411 872 431 879 q 381 839 392 864 q 369 760 369 814 l 369 228 q 364 106 369 153 l 550 106 q 679 165 633 107 q 725 333 725 222 l 818 333 l 810 0 l 69 0 l 69 92 q 126 101 107 93 q 157 133 146 108 q 168 213 168 158 l 168 744 q 174 869 168 822 l 69 865 l 69 972 l 468 972 l 468 881 m 546 -50 q 575 -150 575 -99 q 538 -272 575 -210 q 438 -394 501 -335 l 375 -346 q 419 -249 406 -293 q 433 -162 433 -206 q 421 -75 433 -121 l 546 -50 z "},"Ł":{"ha":840,"x_min":63,"x_max":818,"o":"m 468 881 q 411 871 431 878 q 381 838 392 864 q 369 760 369 813 l 369 633 l 606 808 l 606 651 l 369 476 l 369 228 q 364 104 369 136 l 550 106 q 680 163 633 106 q 726 332 726 221 l 818 332 l 810 0 l 69 0 l 69 90 q 127 100 107 93 q 158 133 147 107 q 169 211 169 158 l 169 325 l 63 246 l 63 406 l 169 485 l 169 744 q 174 868 169 833 l 69 865 l 69 972 l 468 972 l 468 881 z "},"M":{"ha":1350,"x_min":65,"x_max":1292,"o":"m 1271 881 q 1213 872 1233 879 q 1181 839 1192 864 q 1171 760 1169 814 l 1192 228 q 1186 103 1196 157 q 1292 107 1232 107 l 1292 0 l 906 0 l 906 92 q 963 101 943 93 q 994 133 983 108 q 1004 213 1006 158 l 993 507 l 990 560 q 982 747 983 694 l 981 747 l 696 -14 l 567 -14 l 379 443 q 330 579 358 492 q 282 757 301 667 l 281 757 q 285 526 285 631 l 285 479 l 283 228 q 276 103 283 142 q 382 107 322 107 l 382 0 l 65 0 l 65 92 q 122 101 103 93 q 153 133 142 108 q 164 213 164 158 l 172 744 q 178 869 175 846 l 74 865 l 74 972 l 381 972 l 590 435 q 635 315 611 381 q 668 215 658 250 l 669 215 q 700 301 675 229 q 735 399 719 358 l 950 972 l 1271 972 l 1271 881 z "},"N":{"ha":1074,"x_min":67,"x_max":1025,"o":"m 1025 881 q 968 872 988 879 q 938 839 949 864 q 926 760 926 814 l 926 -14 l 808 -14 l 364 554 q 288 658 329 599 l 286 658 l 289 228 q 283 103 289 150 q 388 107 328 107 l 388 0 l 71 0 l 71 92 q 128 101 108 93 q 158 133 147 108 q 169 213 169 158 l 167 744 q 172 869 167 838 l 67 865 l 67 972 l 285 972 l 710 436 q 807 304 768 360 l 808 304 l 808 744 q 813 869 808 835 l 708 865 l 708 972 l 1025 972 l 1025 881 z "},"Ń":{"ha":1074,"x_min":67,"x_max":1025,"o":"m 1025 881 q 968 872 988 879 q 938 839 949 864 q 926 760 926 814 l 926 -14 l 808 -14 l 364 554 q 288 658 329 599 l 286 658 l 289 228 q 283 103 289 150 q 388 107 328 107 l 388 0 l 71 0 l 71 92 q 128 101 108 93 q 158 133 147 108 q 169 213 169 158 l 167 744 q 172 869 167 838 l 67 865 l 67 972 l 285 972 l 710 436 q 807 304 768 360 l 808 304 l 808 744 q 813 869 808 835 l 708 865 l 708 972 l 1025 972 l 1025 881 m 721 1276 q 735 1235 735 1257 q 719 1185 735 1210 q 679 1146 703 1161 l 482 1042 l 432 1110 l 586 1274 q 621 1298 601 1289 q 660 1307 640 1307 q 721 1276 696 1307 z "},"Ň":{"ha":1074,"x_min":67,"x_max":1025,"o":"m 1025 881 q 968 872 988 879 q 938 839 949 864 q 926 760 926 814 l 926 -14 l 808 -14 l 364 554 q 288 658 329 599 l 286 658 l 289 228 q 283 103 289 150 q 388 107 328 107 l 388 0 l 71 0 l 71 92 q 128 101 108 93 q 158 133 147 108 q 169 213 169 158 l 167 744 q 172 869 167 838 l 67 865 l 67 972 l 285 972 l 710 436 q 807 304 768 360 l 808 304 l 808 744 q 813 869 808 835 l 708 865 l 708 972 l 1025 972 l 1025 881 m 792 1338 l 828 1275 l 544 1063 l 518 1063 l 247 1271 l 290 1335 l 538 1214 l 792 1338 z "},"Ņ":{"ha":1074,"x_min":67,"x_max":1025,"o":"m 1025 881 q 968 872 988 879 q 938 839 949 864 q 926 760 926 814 l 926 -14 l 808 -14 l 364 554 q 288 658 329 599 l 286 658 l 289 228 q 283 103 289 150 q 388 107 328 107 l 388 0 l 71 0 l 71 92 q 128 101 108 93 q 158 133 147 108 q 169 213 169 158 l 167 744 q 172 869 167 838 l 67 865 l 67 972 l 285 972 l 710 436 q 807 304 768 360 l 808 304 l 808 744 q 813 869 808 835 l 708 865 l 708 972 l 1025 972 l 1025 881 m 626 -50 q 656 -150 656 -99 q 619 -272 656 -210 q 518 -394 582 -335 l 456 -346 q 500 -249 486 -293 q 514 -162 514 -206 q 501 -75 514 -121 l 626 -50 z "},"Ñ":{"ha":1074,"x_min":67,"x_max":1025,"o":"m 1025 881 q 968 872 988 879 q 938 839 949 864 q 926 760 926 814 l 926 -14 l 808 -14 l 364 554 q 288 658 329 599 l 286 658 l 289 228 q 283 103 289 150 q 388 107 328 107 l 388 0 l 71 0 l 71 92 q 128 101 108 93 q 158 133 147 108 q 169 213 169 158 l 167 744 q 172 869 167 838 l 67 865 l 67 972 l 285 972 l 710 436 q 807 304 768 360 l 808 304 l 808 744 q 813 869 808 835 l 708 865 l 708 972 l 1025 972 l 1025 881 m 829 1281 q 746 1144 796 1183 q 644 1106 696 1106 q 590 1115 615 1106 q 535 1142 565 1124 q 485 1167 506 1158 q 439 1175 464 1175 q 378 1158 408 1175 q 322 1103 347 1142 l 244 1154 q 326 1265 274 1226 q 433 1303 379 1303 q 491 1293 465 1303 q 549 1265 517 1283 q 598 1242 581 1249 q 638 1235 615 1235 q 698 1260 665 1235 q 750 1325 731 1286 l 829 1281 z "},"O":{"ha":1068,"x_min":49,"x_max":1019,"o":"m 536 994 q 805 919 696 994 q 967 726 914 843 q 1019 486 1019 610 q 964 248 1019 365 q 798 54 908 131 q 532 -22 688 -22 q 257 51 365 -22 q 99 240 149 125 q 49 486 49 356 q 104 726 49 610 q 270 919 160 843 q 536 994 381 994 m 525 893 q 375 835 433 893 q 292 688 317 776 q 267 503 267 599 q 294 308 267 406 q 385 145 322 211 q 546 79 449 79 q 693 136 636 79 q 775 281 750 193 q 800 463 800 368 q 731 776 800 660 q 525 893 661 893 z "},"Ó":{"ha":1068,"x_min":49,"x_max":1019,"o":"m 536 994 q 805 919 696 994 q 967 726 914 843 q 1019 486 1019 610 q 964 248 1019 365 q 798 54 908 131 q 532 -22 688 -22 q 257 51 365 -22 q 99 240 149 125 q 49 486 49 356 q 104 726 49 610 q 270 919 160 843 q 536 994 381 994 m 525 893 q 375 835 433 893 q 292 688 317 776 q 267 503 267 599 q 294 308 267 406 q 385 145 322 211 q 546 79 449 79 q 693 136 636 79 q 775 281 750 193 q 800 463 800 368 q 731 776 800 660 q 525 893 661 893 m 717 1276 q 731 1235 731 1257 q 715 1185 731 1210 q 675 1146 699 1161 l 478 1042 l 428 1110 l 582 1274 q 617 1298 597 1289 q 656 1307 636 1307 q 717 1276 692 1307 z "},"Ô":{"ha":1068,"x_min":49,"x_max":1019,"o":"m 536 994 q 805 919 696 994 q 967 726 914 843 q 1019 486 1019 610 q 964 248 1019 365 q 798 54 908 131 q 532 -22 688 -22 q 257 51 365 -22 q 99 240 149 125 q 49 486 49 356 q 104 726 49 610 q 270 919 160 843 q 536 994 381 994 m 525 893 q 375 835 433 893 q 292 688 317 776 q 267 503 267 599 q 294 308 267 406 q 385 145 322 211 q 546 79 449 79 q 693 136 636 79 q 775 281 750 193 q 800 463 800 368 q 731 776 800 660 q 525 893 661 893 m 554 1349 l 825 1140 l 782 1075 l 533 1196 l 281 1078 l 243 1140 l 526 1349 l 554 1349 z "},"Ố":{"ha":1068,"x_min":49,"x_max":1019,"o":"m 957 1465 q 982 1408 982 1442 q 972 1365 982 1388 q 944 1328 961 1343 l 776 1181 l 713 1238 l 826 1432 q 864 1469 842 1456 q 910 1482 886 1482 q 957 1465 933 1482 m 550 1283 l 774 1111 l 739 1058 l 533 1158 l 325 1060 l 293 1111 l 528 1283 l 550 1283 m 536 994 q 805 919 696 994 q 967 726 914 843 q 1019 486 1019 610 q 964 248 1019 365 q 798 54 908 131 q 532 -22 688 -22 q 257 51 365 -22 q 99 240 149 125 q 49 486 49 356 q 104 726 49 610 q 270 919 160 843 q 536 994 381 994 m 525 893 q 375 835 433 893 q 292 688 317 776 q 267 503 267 599 q 294 308 267 406 q 385 145 322 211 q 546 79 449 79 q 693 136 636 79 q 775 281 750 193 q 800 463 800 368 q 731 776 800 660 q 525 893 661 893 z "},"Ộ":{"ha":1068,"x_min":49,"x_max":1019,"o":"m 536 994 q 805 919 696 994 q 967 726 914 843 q 1019 486 1019 610 q 964 248 1019 365 q 798 54 908 131 q 532 -22 688 -22 q 257 51 365 -22 q 99 240 149 125 q 49 486 49 356 q 104 726 49 610 q 270 919 160 843 q 536 994 381 994 m 525 893 q 375 835 433 893 q 292 688 317 776 q 267 503 267 599 q 294 308 267 406 q 385 145 322 211 q 546 79 449 79 q 693 136 636 79 q 775 281 750 193 q 800 463 800 368 q 731 776 800 660 q 525 893 661 893 m 536 -86 q 594 -112 571 -86 q 618 -176 618 -139 q 596 -240 618 -214 q 538 -265 574 -265 q 476 -240 500 -265 q 451 -176 451 -214 q 476 -112 451 -139 q 536 -86 501 -86 m 554 1349 l 825 1140 l 782 1075 l 533 1196 l 281 1078 l 243 1140 l 526 1349 l 554 1349 z "},"Ồ":{"ha":1068,"x_min":49,"x_max":1019,"o":"m 567 1525 q 614 1542 588 1542 q 660 1528 638 1542 q 696 1492 682 1514 l 810 1297 l 746 1240 l 578 1388 q 551 1425 561 1404 q 540 1467 540 1446 q 567 1525 540 1500 m 550 1283 l 774 1111 l 739 1058 l 533 1158 l 325 1060 l 293 1111 l 528 1283 l 550 1283 m 536 994 q 805 919 696 994 q 967 726 914 843 q 1019 486 1019 610 q 964 248 1019 365 q 798 54 908 131 q 532 -22 688 -22 q 257 51 365 -22 q 99 240 149 125 q 49 486 49 356 q 104 726 49 610 q 270 919 160 843 q 536 994 381 994 m 525 893 q 375 835 433 893 q 292 688 317 776 q 267 503 267 599 q 294 308 267 406 q 385 145 322 211 q 546 79 449 79 q 693 136 636 79 q 775 281 750 193 q 800 463 800 368 q 731 776 800 660 q 525 893 661 893 z "},"Ổ":{"ha":1068,"x_min":49,"x_max":1019,"o":"m 715 1510 q 842 1474 796 1510 q 888 1376 888 1439 q 874 1333 888 1350 q 836 1297 861 1317 q 807 1272 815 1281 q 799 1249 799 1263 l 707 1249 q 717 1278 707 1267 q 744 1306 726 1290 q 774 1335 764 1322 q 783 1368 783 1349 q 769 1411 783 1396 q 715 1426 754 1426 q 671 1415 686 1426 q 653 1389 656 1404 q 662 1378 660 1385 q 664 1360 664 1372 q 651 1338 664 1347 q 608 1328 638 1328 q 569 1342 581 1328 q 557 1385 557 1357 q 595 1471 557 1432 q 715 1510 633 1510 m 550 1283 l 774 1111 l 739 1058 l 533 1158 l 325 1060 l 293 1111 l 528 1283 l 550 1283 m 536 994 q 805 919 696 994 q 967 726 914 843 q 1019 486 1019 610 q 964 248 1019 365 q 798 54 908 131 q 532 -22 688 -22 q 257 51 365 -22 q 99 240 149 125 q 49 486 49 356 q 104 726 49 610 q 270 919 160 843 q 536 994 381 994 m 525 893 q 375 835 433 893 q 292 688 317 776 q 267 503 267 599 q 294 308 267 406 q 385 145 322 211 q 546 79 449 79 q 693 136 636 79 q 775 281 750 193 q 800 463 800 368 q 731 776 800 660 q 525 893 661 893 z "},"Ỗ":{"ha":1068,"x_min":49,"x_max":1019,"o":"m 808 1489 q 735 1367 781 1408 q 643 1326 689 1326 q 595 1334 617 1326 q 546 1357 574 1342 q 508 1375 522 1369 q 475 1381 493 1381 q 431 1367 454 1381 q 389 1324 408 1354 l 311 1369 q 380 1472 333 1432 q 474 1513 426 1513 q 525 1505 504 1513 q 569 1483 546 1497 q 606 1465 590 1471 q 643 1460 622 1460 q 689 1478 667 1460 q 729 1529 711 1496 l 808 1489 m 550 1283 l 774 1111 l 739 1058 l 533 1158 l 325 1060 l 293 1111 l 528 1283 l 550 1283 m 536 994 q 805 919 696 994 q 967 726 914 843 q 1019 486 1019 610 q 964 248 1019 365 q 798 54 908 131 q 532 -22 688 -22 q 257 51 365 -22 q 99 240 149 125 q 49 486 49 356 q 104 726 49 610 q 270 919 160 843 q 536 994 381 994 m 525 893 q 375 835 433 893 q 292 688 317 776 q 267 503 267 599 q 294 308 267 406 q 385 145 322 211 q 546 79 449 79 q 693 136 636 79 q 775 281 750 193 q 800 463 800 368 q 731 776 800 660 q 525 893 661 893 z "},"Ö":{"ha":1068,"x_min":49,"x_max":1019,"o":"m 536 994 q 805 919 696 994 q 967 726 914 843 q 1019 486 1019 610 q 964 248 1019 365 q 798 54 908 131 q 532 -22 688 -22 q 257 51 365 -22 q 99 240 149 125 q 49 486 49 356 q 104 726 49 610 q 270 919 160 843 q 536 994 381 994 m 525 893 q 375 835 433 893 q 292 688 317 776 q 267 503 267 599 q 294 308 267 406 q 385 145 322 211 q 546 79 449 79 q 693 136 636 79 q 775 281 750 193 q 800 463 800 368 q 731 776 800 660 q 525 893 661 893 m 414 1318 q 479 1287 453 1318 q 506 1211 506 1256 q 478 1138 506 1168 q 413 1107 450 1107 q 347 1138 375 1107 q 319 1211 319 1168 q 348 1286 319 1254 q 414 1318 376 1318 m 656 1318 q 721 1287 694 1318 q 747 1211 747 1256 q 719 1138 747 1168 q 654 1107 692 1107 q 590 1138 617 1107 q 563 1211 563 1168 q 590 1286 563 1254 q 656 1318 618 1318 z "},"Ọ":{"ha":1068,"x_min":49,"x_max":1019,"o":"m 536 994 q 805 919 696 994 q 967 726 914 843 q 1019 486 1019 610 q 964 248 1019 365 q 798 54 908 131 q 532 -22 688 -22 q 257 51 365 -22 q 99 240 149 125 q 49 486 49 356 q 104 726 49 610 q 270 919 160 843 q 536 994 381 994 m 525 893 q 375 835 433 893 q 292 688 317 776 q 267 503 267 599 q 294 308 267 406 q 385 145 322 211 q 546 79 449 79 q 693 136 636 79 q 775 281 750 193 q 800 463 800 368 q 731 776 800 660 q 525 893 661 893 m 536 -86 q 594 -112 571 -86 q 618 -176 618 -139 q 596 -240 618 -214 q 538 -265 574 -265 q 476 -240 500 -265 q 451 -176 451 -214 q 476 -112 451 -139 q 536 -86 501 -86 z "},"Ò":{"ha":1068,"x_min":49,"x_max":1019,"o":"m 536 994 q 805 919 696 994 q 967 726 914 843 q 1019 486 1019 610 q 964 248 1019 365 q 798 54 908 131 q 532 -22 688 -22 q 257 51 365 -22 q 99 240 149 125 q 49 486 49 356 q 104 726 49 610 q 270 919 160 843 q 536 994 381 994 m 525 893 q 375 835 433 893 q 292 688 317 776 q 267 503 267 599 q 294 308 267 406 q 385 145 322 211 q 546 79 449 79 q 693 136 636 79 q 775 281 750 193 q 800 463 800 368 q 731 776 800 660 q 525 893 661 893 m 326 1276 q 388 1307 351 1307 q 426 1298 407 1307 q 461 1274 446 1289 l 615 1110 l 565 1042 l 368 1146 q 328 1185 344 1161 q 313 1235 313 1210 q 326 1276 313 1257 z "},"Ỏ":{"ha":1068,"x_min":49,"x_max":1019,"o":"m 536 994 q 805 919 696 994 q 967 726 914 843 q 1019 486 1019 610 q 964 248 1019 365 q 798 54 908 131 q 532 -22 688 -22 q 257 51 365 -22 q 99 240 149 125 q 49 486 49 356 q 104 726 49 610 q 270 919 160 843 q 536 994 381 994 m 525 893 q 375 835 433 893 q 292 688 317 776 q 267 503 267 599 q 294 308 267 406 q 385 145 322 211 q 546 79 449 79 q 693 136 636 79 q 775 281 750 193 q 800 463 800 368 q 731 776 800 660 q 525 893 661 893 m 514 1315 q 640 1280 594 1315 q 686 1182 686 1244 q 673 1139 686 1156 q 635 1103 660 1122 q 606 1077 614 1086 q 597 1054 597 1068 l 506 1054 q 515 1084 506 1072 q 543 1111 525 1096 q 572 1141 563 1128 q 582 1174 582 1154 q 567 1217 582 1201 q 514 1232 553 1232 q 469 1221 485 1232 q 451 1194 454 1210 q 460 1184 458 1190 q 463 1165 463 1178 q 449 1143 463 1153 q 407 1133 436 1133 q 367 1148 379 1133 q 356 1190 356 1163 q 394 1276 356 1238 q 514 1315 432 1315 z "},"Ơ":{"ha":1068,"x_min":49,"x_max":1019,"o":"m 832 900 q 972 716 925 828 q 1019 486 1019 604 q 964 248 1019 365 q 798 54 908 131 q 532 -22 688 -22 q 257 51 365 -22 q 99 240 149 125 q 49 486 49 356 q 104 726 49 610 q 270 919 160 843 q 536 994 381 994 q 704 968 625 994 q 781 1005 751 971 q 810 1079 810 1039 l 961 1079 q 927 969 961 1015 q 832 900 893 924 m 546 79 q 693 136 636 79 q 775 281 750 193 q 800 463 800 368 q 731 776 800 660 q 525 893 661 893 q 375 835 433 893 q 292 688 317 776 q 267 503 267 599 q 294 308 267 406 q 385 145 322 211 q 546 79 449 79 z "},"Ớ":{"ha":1068,"x_min":49,"x_max":1019,"o":"m 832 900 q 972 716 925 828 q 1019 486 1019 604 q 964 248 1019 365 q 798 54 908 131 q 532 -22 688 -22 q 257 51 365 -22 q 99 240 149 125 q 49 486 49 356 q 104 726 49 610 q 270 919 160 843 q 536 994 381 994 q 704 968 625 994 q 781 1005 751 971 q 810 1079 810 1039 l 961 1079 q 927 969 961 1015 q 832 900 893 924 m 546 79 q 693 136 636 79 q 775 281 750 193 q 800 463 800 368 q 731 776 800 660 q 525 893 661 893 q 375 835 433 893 q 292 688 317 776 q 267 503 267 599 q 294 308 267 406 q 385 145 322 211 q 546 79 449 79 m 643 1347 q 668 1290 668 1324 q 658 1247 668 1269 q 631 1210 647 1225 l 463 1063 l 399 1119 l 513 1314 q 550 1351 528 1338 q 596 1364 572 1364 q 643 1347 619 1364 z "},"Ợ":{"ha":1068,"x_min":49,"x_max":1019,"o":"m 832 900 q 972 716 925 828 q 1019 486 1019 604 q 964 248 1019 365 q 798 54 908 131 q 532 -22 688 -22 q 257 51 365 -22 q 99 240 149 125 q 49 486 49 356 q 104 726 49 610 q 270 919 160 843 q 536 994 381 994 q 704 968 625 994 q 781 1005 751 971 q 810 1079 810 1039 l 961 1079 q 927 969 961 1015 q 832 900 893 924 m 546 79 q 693 136 636 79 q 775 281 750 193 q 800 463 800 368 q 731 776 800 660 q 525 893 661 893 q 375 835 433 893 q 292 688 317 776 q 267 503 267 599 q 294 308 267 406 q 385 145 322 211 q 546 79 449 79 m 536 -86 q 594 -112 571 -86 q 618 -176 618 -139 q 596 -240 618 -214 q 538 -265 574 -265 q 476 -240 500 -265 q 451 -176 451 -214 q 476 -112 451 -139 q 536 -86 501 -86 z "},"Ờ":{"ha":1068,"x_min":49,"x_max":1019,"o":"m 832 900 q 972 716 925 828 q 1019 486 1019 604 q 964 248 1019 365 q 798 54 908 131 q 532 -22 688 -22 q 257 51 365 -22 q 99 240 149 125 q 49 486 49 356 q 104 726 49 610 q 270 919 160 843 q 536 994 381 994 q 704 968 625 994 q 781 1005 751 971 q 810 1079 810 1039 l 961 1079 q 927 969 961 1015 q 832 900 893 924 m 546 79 q 693 136 636 79 q 775 281 750 193 q 800 463 800 368 q 731 776 800 660 q 525 893 661 893 q 375 835 433 893 q 292 688 317 776 q 267 503 267 599 q 294 308 267 406 q 385 145 322 211 q 546 79 449 79 m 425 1347 q 472 1364 446 1364 q 518 1350 496 1364 q 554 1314 540 1336 l 668 1119 l 604 1063 l 436 1210 q 409 1247 419 1226 q 399 1289 399 1268 q 425 1347 399 1322 z "},"Ở":{"ha":1068,"x_min":49,"x_max":1019,"o":"m 832 900 q 972 716 925 828 q 1019 486 1019 604 q 964 248 1019 365 q 798 54 908 131 q 532 -22 688 -22 q 257 51 365 -22 q 99 240 149 125 q 49 486 49 356 q 104 726 49 610 q 270 919 160 843 q 536 994 381 994 q 704 968 625 994 q 781 1005 751 971 q 810 1079 810 1039 l 961 1079 q 927 969 961 1015 q 832 900 893 924 m 546 79 q 693 136 636 79 q 775 281 750 193 q 800 463 800 368 q 731 776 800 660 q 525 893 661 893 q 375 835 433 893 q 292 688 317 776 q 267 503 267 599 q 294 308 267 406 q 385 145 322 211 q 546 79 449 79 m 514 1315 q 640 1280 594 1315 q 686 1182 686 1244 q 673 1139 686 1156 q 635 1103 660 1122 q 606 1077 614 1086 q 597 1054 597 1068 l 506 1054 q 515 1084 506 1072 q 543 1111 525 1096 q 572 1141 563 1128 q 582 1174 582 1154 q 567 1217 582 1201 q 514 1232 553 1232 q 469 1221 485 1232 q 451 1194 454 1210 q 460 1184 458 1190 q 463 1165 463 1178 q 449 1143 463 1153 q 407 1133 436 1133 q 367 1148 379 1133 q 356 1190 356 1163 q 394 1276 356 1238 q 514 1315 432 1315 z "},"Ỡ":{"ha":1068,"x_min":49,"x_max":1019,"o":"m 832 900 q 972 716 925 828 q 1019 486 1019 604 q 964 248 1019 365 q 798 54 908 131 q 532 -22 688 -22 q 257 51 365 -22 q 99 240 149 125 q 49 486 49 356 q 104 726 49 610 q 270 919 160 843 q 536 994 381 994 q 704 968 625 994 q 781 1005 751 971 q 810 1079 810 1039 l 961 1079 q 927 969 961 1015 q 832 900 893 924 m 546 79 q 693 136 636 79 q 775 281 750 193 q 800 463 800 368 q 731 776 800 660 q 525 893 661 893 q 375 835 433 893 q 292 688 317 776 q 267 503 267 599 q 294 308 267 406 q 385 145 322 211 q 546 79 449 79 m 782 1283 q 708 1162 754 1203 q 617 1121 663 1121 q 569 1128 590 1121 q 519 1151 547 1136 q 481 1169 496 1164 q 449 1175 467 1175 q 405 1162 428 1175 q 363 1118 382 1149 l 285 1164 q 353 1267 307 1226 q 447 1307 400 1307 q 499 1299 478 1307 q 543 1278 519 1292 q 580 1260 564 1265 q 617 1254 596 1254 q 663 1272 640 1254 q 703 1324 685 1290 l 782 1283 z "},"Ő":{"ha":1068,"x_min":49,"x_max":1019,"o":"m 536 994 q 805 919 696 994 q 967 726 914 843 q 1019 486 1019 610 q 964 248 1019 365 q 798 54 908 131 q 532 -22 688 -22 q 257 51 365 -22 q 99 240 149 125 q 49 486 49 356 q 104 726 49 610 q 270 919 160 843 q 536 994 381 994 m 525 893 q 375 835 433 893 q 292 688 317 776 q 267 503 267 599 q 294 308 267 406 q 385 145 322 211 q 546 79 449 79 q 693 136 636 79 q 775 281 750 193 q 800 463 800 368 q 731 776 800 660 q 525 893 661 893 m 621 1318 q 642 1272 642 1299 q 629 1227 642 1250 q 597 1186 617 1204 l 435 1038 l 372 1094 l 490 1268 q 535 1313 510 1296 q 585 1331 560 1331 q 621 1318 604 1331 m 896 1264 q 906 1233 906 1250 q 885 1185 906 1208 q 833 1143 864 1161 l 638 1036 l 593 1107 l 750 1249 q 844 1292 800 1292 q 896 1264 881 1292 z "},"Ō":{"ha":1068,"x_min":49,"x_max":1019,"o":"m 536 994 q 805 919 696 994 q 967 726 914 843 q 1019 486 1019 610 q 964 248 1019 365 q 798 54 908 131 q 532 -22 688 -22 q 257 51 365 -22 q 99 240 149 125 q 49 486 49 356 q 104 726 49 610 q 270 919 160 843 q 536 994 381 994 m 525 893 q 375 835 433 893 q 292 688 317 776 q 267 503 267 599 q 294 308 267 406 q 385 145 322 211 q 546 79 449 79 q 693 136 636 79 q 775 281 750 193 q 800 463 800 368 q 731 776 800 660 q 525 893 661 893 m 731 1282 l 731 1154 l 336 1149 l 336 1282 l 731 1282 z "},"Ø":{"ha":1067,"x_min":49,"x_max":1019,"o":"m 938 1024 l 853 882 q 978 702 936 808 q 1019 486 1019 596 q 964 248 1019 365 q 798 54 908 131 q 532 -22 688 -22 q 342 10 425 -22 l 256 -137 l 151 -68 l 232 69 q 94 251 140 140 q 49 486 49 363 q 104 726 49 610 q 270 919 160 843 q 536 994 381 994 q 746 953 651 994 l 828 1093 l 938 1024 m 525 893 q 375 835 433 893 q 292 688 317 776 q 267 503 267 599 q 281 362 267 433 q 325 231 296 290 l 679 839 q 525 893 614 893 m 408 124 q 547 79 468 79 q 694 137 638 79 q 775 281 750 194 q 800 463 800 368 q 758 721 800 615 l 408 124 z "},"Õ":{"ha":1068,"x_min":49,"x_max":1019,"o":"m 536 994 q 805 919 696 994 q 967 726 914 843 q 1019 486 1019 610 q 964 248 1019 365 q 798 54 908 131 q 532 -22 688 -22 q 257 51 365 -22 q 99 240 149 125 q 49 486 49 356 q 104 726 49 610 q 270 919 160 843 q 536 994 381 994 m 525 893 q 375 835 433 893 q 292 688 317 776 q 267 503 267 599 q 294 308 267 406 q 385 145 322 211 q 546 79 449 79 q 693 136 636 79 q 775 281 750 193 q 800 463 800 368 q 731 776 800 660 q 525 893 661 893 m 825 1281 q 742 1144 792 1183 q 640 1106 692 1106 q 586 1115 611 1106 q 531 1142 561 1124 q 481 1167 501 1158 q 435 1175 460 1175 q 374 1158 404 1175 q 318 1103 343 1142 l 240 1154 q 322 1265 269 1226 q 429 1303 375 1303 q 487 1293 461 1303 q 544 1265 513 1283 q 594 1242 576 1249 q 633 1235 611 1235 q 694 1260 661 1235 q 746 1325 726 1286 l 825 1281 z "},"Œ":{"ha":1428,"x_min":50,"x_max":1371,"o":"m 550 994 q 729 972 644 994 l 1325 972 l 1333 703 l 1242 703 q 1192 845 1242 806 q 1072 882 1143 885 l 1022 881 q 969 872 989 879 q 940 838 950 864 q 929 760 929 811 l 929 551 l 1093 551 q 1088 672 1092 575 l 1194 672 l 1194 335 l 1103 335 q 1085 417 1103 390 q 1040 451 1068 443 q 967 457 1013 458 l 929 456 l 929 228 q 925 106 929 142 l 1111 106 q 1231 153 1182 106 q 1279 306 1279 201 l 1371 306 l 1363 0 l 729 0 q 525 -22 643 -25 q 276 45 385 -19 q 109 220 168 110 q 50 468 50 331 q 103 723 50 603 q 269 919 157 843 q 550 994 382 994 m 549 894 q 392 840 456 894 q 299 694 329 785 q 268 500 268 604 q 353 199 268 308 q 594 89 439 89 q 729 114 669 89 l 729 849 q 549 894 660 894 z "},"P":{"ha":888,"x_min":69,"x_max":864,"o":"m 464 975 q 758 901 651 976 q 864 671 864 825 q 819 519 864 592 q 686 401 775 447 q 469 351 597 356 l 415 350 l 369 351 l 369 229 q 364 103 369 150 q 482 107 408 107 l 482 0 l 69 0 l 69 92 q 126 101 107 93 q 157 133 146 108 q 168 213 168 158 l 168 744 q 174 869 168 822 l 69 865 l 69 972 l 464 975 m 463 878 q 392 857 414 878 q 369 768 369 836 l 369 456 q 432 451 399 451 q 597 508 544 451 q 649 672 649 564 q 463 878 649 878 z "},"Þ":{"ha":879,"x_min":69,"x_max":857,"o":"m 468 881 q 416 874 435 879 q 385 849 397 868 q 371 792 374 831 l 454 793 q 857 510 857 797 q 813 364 857 431 q 678 256 768 297 q 460 211 589 214 q 369 210 390 208 q 364 103 367 125 q 468 107 408 107 l 468 0 l 69 0 l 69 92 q 126 101 107 93 q 157 133 146 108 q 168 213 168 158 l 168 744 q 174 869 168 822 l 69 865 l 69 972 l 468 972 l 468 881 m 369 694 l 369 313 q 421 310 400 310 q 588 360 535 310 q 642 511 642 410 q 584 661 642 628 q 451 694 526 694 l 369 694 z "},"Q":{"ha":1069,"x_min":50,"x_max":1103,"o":"m 538 994 q 806 919 697 994 q 967 726 914 843 q 1019 486 1019 610 q 984 295 1019 390 q 878 123 949 200 q 707 8 807 46 l 707 7 q 814 -8 772 7 q 907 -71 856 -22 l 969 -131 q 1047 -197 1025 -183 q 1103 -210 1068 -210 l 1103 -303 l 1043 -303 q 938 -298 974 -303 q 874 -278 903 -293 q 804 -228 844 -262 q 717 -142 771 -199 q 615 -50 656 -78 q 519 -22 575 -22 q 253 52 358 -22 q 99 242 147 126 q 50 486 50 357 q 106 726 50 610 q 272 919 161 843 q 538 994 382 994 m 526 893 q 376 835 433 893 q 293 688 318 776 q 268 503 268 599 q 296 308 268 406 q 386 145 324 211 q 546 79 449 79 q 693 136 636 79 q 776 281 750 193 q 801 463 801 368 q 732 776 801 660 q 526 893 663 893 z "},"R":{"ha":953,"x_min":69,"x_max":933,"o":"m 464 975 q 758 908 654 976 q 861 688 861 840 q 799 517 861 592 q 617 408 738 443 l 617 407 q 668 373 642 397 q 713 319 694 349 l 778 222 q 856 121 825 149 q 933 92 888 93 l 933 0 l 704 0 q 657 48 681 17 q 603 131 633 79 l 500 297 q 442 378 465 353 l 369 378 l 369 229 q 364 103 369 150 q 482 107 408 107 l 482 0 l 69 0 l 69 92 q 126 101 107 93 q 157 133 146 108 q 168 213 168 158 l 168 744 q 174 869 168 822 l 69 865 l 69 972 l 464 975 m 463 878 q 392 857 414 878 q 369 768 369 836 l 369 483 q 436 478 411 478 q 601 528 550 478 q 651 688 651 579 q 592 840 651 803 q 463 878 533 878 z "},"Ŕ":{"ha":953,"x_min":69,"x_max":933,"o":"m 464 975 q 758 908 654 976 q 861 688 861 840 q 799 517 861 592 q 617 408 738 443 l 617 407 q 668 373 642 397 q 713 319 694 349 l 778 222 q 856 121 825 149 q 933 92 888 93 l 933 0 l 704 0 q 657 48 681 17 q 603 131 633 79 l 500 297 q 442 378 465 353 l 369 378 l 369 229 q 364 103 369 150 q 482 107 408 107 l 482 0 l 69 0 l 69 92 q 126 101 107 93 q 157 133 146 108 q 168 213 168 158 l 168 744 q 174 869 168 822 l 69 865 l 69 972 l 464 975 m 463 878 q 392 857 414 878 q 369 768 369 836 l 369 483 q 436 478 411 478 q 601 528 550 478 q 651 688 651 579 q 592 840 651 803 q 463 878 533 878 m 660 1276 q 674 1235 674 1257 q 658 1185 674 1210 q 618 1146 642 1161 l 421 1042 l 371 1110 l 525 1274 q 560 1298 540 1289 q 599 1307 579 1307 q 660 1276 635 1307 z "},"Ř":{"ha":953,"x_min":69,"x_max":933,"o":"m 464 975 q 758 908 654 976 q 861 688 861 840 q 799 517 861 592 q 617 408 738 443 l 617 407 q 668 373 642 397 q 713 319 694 349 l 778 222 q 856 121 825 149 q 933 92 888 93 l 933 0 l 704 0 q 657 48 681 17 q 603 131 633 79 l 500 297 q 442 378 465 353 l 369 378 l 369 229 q 364 103 369 150 q 482 107 408 107 l 482 0 l 69 0 l 69 92 q 126 101 107 93 q 157 133 146 108 q 168 213 168 158 l 168 744 q 174 869 168 822 l 69 865 l 69 972 l 464 975 m 463 878 q 392 857 414 878 q 369 768 369 836 l 369 483 q 436 478 411 478 q 601 528 550 478 q 651 688 651 579 q 592 840 651 803 q 463 878 533 878 m 731 1338 l 767 1275 l 483 1063 l 457 1063 l 186 1271 l 229 1335 l 476 1214 l 731 1338 z "},"Ŗ":{"ha":953,"x_min":69,"x_max":933,"o":"m 464 975 q 758 908 654 976 q 861 688 861 840 q 799 517 861 592 q 617 408 738 443 l 617 407 q 668 373 642 397 q 713 319 694 349 l 778 222 q 856 121 825 149 q 933 92 888 93 l 933 0 l 704 0 q 657 48 681 17 q 603 131 633 79 l 500 297 q 442 378 465 353 l 369 378 l 369 229 q 364 103 369 150 q 482 107 408 107 l 482 0 l 69 0 l 69 92 q 126 101 107 93 q 157 133 146 108 q 168 213 168 158 l 168 744 q 174 869 168 822 l 69 865 l 69 972 l 464 975 m 463 878 q 392 857 414 878 q 369 768 369 836 l 369 483 q 436 478 411 478 q 601 528 550 478 q 651 688 651 579 q 592 840 651 803 q 463 878 533 878 m 596 -50 q 625 -150 625 -99 q 588 -272 625 -210 q 488 -394 551 -335 l 425 -346 q 469 -249 456 -293 q 483 -162 483 -206 q 471 -75 483 -121 l 596 -50 z "},"S":{"ha":831,"x_min":60,"x_max":782,"o":"m 385 994 q 510 977 444 994 q 618 928 575 960 l 619 928 l 614 985 l 722 985 l 722 661 l 631 661 q 551 835 613 775 q 393 894 489 894 q 285 860 331 894 q 240 775 240 826 q 292 672 240 714 q 465 581 343 631 q 694 452 606 525 q 782 258 782 379 q 738 113 782 176 q 613 13 693 49 q 426 -22 532 -22 q 305 -4 369 -22 q 186 46 240 14 l 185 46 l 189 -12 l 82 -12 l 82 313 l 174 313 q 261 138 192 199 q 431 78 331 78 q 550 116 503 78 q 597 208 597 154 q 566 285 597 253 q 497 335 535 317 q 375 386 458 353 q 141 525 222 447 q 60 729 60 603 q 92 853 60 793 q 197 954 124 914 q 385 994 269 994 z "},"Ś":{"ha":831,"x_min":60,"x_max":782,"o":"m 385 994 q 510 977 444 994 q 618 928 575 960 l 619 928 l 614 985 l 722 985 l 722 661 l 631 661 q 551 835 613 775 q 393 894 489 894 q 285 860 331 894 q 240 775 240 826 q 292 672 240 714 q 465 581 343 631 q 694 452 606 525 q 782 258 782 379 q 738 113 782 176 q 613 13 693 49 q 426 -22 532 -22 q 305 -4 369 -22 q 186 46 240 14 l 185 46 l 189 -12 l 82 -12 l 82 313 l 174 313 q 261 138 192 199 q 431 78 331 78 q 550 116 503 78 q 597 208 597 154 q 566 285 597 253 q 497 335 535 317 q 375 386 458 353 q 141 525 222 447 q 60 729 60 603 q 92 853 60 793 q 197 954 124 914 q 385 994 269 994 m 599 1276 q 613 1235 613 1257 q 597 1185 613 1210 q 557 1146 581 1161 l 360 1042 l 310 1110 l 464 1274 q 499 1298 479 1289 q 538 1307 518 1307 q 599 1276 574 1307 z "},"Š":{"ha":831,"x_min":60,"x_max":782,"o":"m 385 994 q 510 977 444 994 q 618 928 575 960 l 619 928 l 614 985 l 722 985 l 722 661 l 631 661 q 551 835 613 775 q 393 894 489 894 q 285 860 331 894 q 240 775 240 826 q 292 672 240 714 q 465 581 343 631 q 694 452 606 525 q 782 258 782 379 q 738 113 782 176 q 613 13 693 49 q 426 -22 532 -22 q 305 -4 369 -22 q 186 46 240 14 l 185 46 l 189 -12 l 82 -12 l 82 313 l 174 313 q 261 138 192 199 q 431 78 331 78 q 550 116 503 78 q 597 208 597 154 q 566 285 597 253 q 497 335 535 317 q 375 386 458 353 q 141 525 222 447 q 60 729 60 603 q 92 853 60 793 q 197 954 124 914 q 385 994 269 994 m 669 1338 l 706 1275 l 422 1063 l 396 1063 l 125 1271 l 168 1335 l 415 1214 l 669 1338 z "},"Ş":{"ha":831,"x_min":60,"x_max":782,"o":"m 782 258 q 703 72 782 147 q 489 -18 624 -4 l 461 -96 l 463 -96 q 508 -81 479 -87 q 557 -74 538 -74 q 631 -99 603 -75 q 658 -171 658 -124 q 561 -299 658 -256 q 343 -360 464 -343 l 332 -287 q 448 -256 397 -275 q 499 -200 499 -236 q 488 -174 499 -182 q 460 -165 476 -165 q 431 -171 446 -165 q 404 -185 415 -176 l 353 -162 l 388 -21 q 283 1 336 -15 q 186 46 231 18 l 185 46 l 189 -12 l 82 -12 l 82 313 l 174 313 q 261 138 192 199 q 431 78 331 78 q 550 116 503 78 q 597 208 597 154 q 566 285 597 253 q 497 335 535 317 q 375 386 458 353 q 141 525 222 447 q 60 729 60 603 q 92 853 60 793 q 197 954 124 914 q 385 994 269 994 q 510 977 444 994 q 618 928 575 960 l 619 928 l 614 985 l 722 985 l 722 661 l 631 661 q 551 835 613 775 q 393 894 489 894 q 285 860 331 894 q 240 775 240 826 q 292 672 240 714 q 465 581 343 631 q 694 452 606 525 q 782 258 782 379 z "},"Ŝ":{"ha":831,"x_min":60,"x_max":782,"o":"m 385 994 q 510 977 444 994 q 618 928 575 960 l 619 928 l 614 985 l 722 985 l 722 661 l 631 661 q 551 835 613 775 q 393 894 489 894 q 285 860 331 894 q 240 775 240 826 q 292 672 240 714 q 465 581 343 631 q 694 452 606 525 q 782 258 782 379 q 738 113 782 176 q 613 13 693 49 q 426 -22 532 -22 q 305 -4 369 -22 q 186 46 240 14 l 185 46 l 189 -12 l 82 -12 l 82 313 l 174 313 q 261 138 192 199 q 431 78 331 78 q 550 116 503 78 q 597 208 597 154 q 566 285 597 253 q 497 335 535 317 q 375 386 458 353 q 141 525 222 447 q 60 729 60 603 q 92 853 60 793 q 197 954 124 914 q 385 994 269 994 m 436 1349 l 707 1140 l 664 1075 l 415 1196 l 163 1078 l 125 1140 l 408 1349 l 436 1349 z "},"Ș":{"ha":831,"x_min":60,"x_max":782,"o":"m 385 994 q 510 977 444 994 q 618 928 575 960 l 619 928 l 614 985 l 722 985 l 722 661 l 631 661 q 551 835 613 775 q 393 894 489 894 q 285 860 331 894 q 240 775 240 826 q 292 672 240 714 q 465 581 343 631 q 694 452 606 525 q 782 258 782 379 q 738 113 782 176 q 613 13 693 49 q 426 -22 532 -22 q 305 -4 369 -22 q 186 46 240 14 l 185 46 l 189 -12 l 82 -12 l 82 313 l 174 313 q 261 138 192 199 q 431 78 331 78 q 550 116 503 78 q 597 208 597 154 q 566 285 597 253 q 497 335 535 317 q 375 386 458 353 q 141 525 222 447 q 60 729 60 603 q 92 853 60 793 q 197 954 124 914 q 385 994 269 994 m 497 -50 q 526 -150 526 -99 q 490 -272 526 -210 q 389 -394 453 -335 l 326 -346 q 371 -249 357 -293 q 385 -162 385 -206 q 372 -75 385 -121 l 497 -50 z "},"T":{"ha":903,"x_min":22,"x_max":879,"o":"m 879 658 l 788 658 q 742 824 788 768 q 617 879 697 881 l 550 879 l 550 228 q 544 103 550 135 q 656 107 590 107 l 656 0 l 250 0 l 250 92 q 307 101 288 93 q 338 133 326 108 q 349 213 349 158 l 349 878 l 285 878 q 158 822 203 876 q 114 658 114 768 l 22 658 l 29 972 l 871 972 l 879 658 z "},"Ť":{"ha":903,"x_min":22,"x_max":879,"o":"m 879 658 l 788 658 q 742 824 788 768 q 617 879 697 881 l 550 879 l 550 228 q 544 103 550 135 q 656 107 590 107 l 656 0 l 250 0 l 250 92 q 307 101 288 93 q 338 133 326 108 q 349 213 349 158 l 349 878 l 285 878 q 158 822 203 876 q 114 658 114 768 l 22 658 l 29 972 l 871 972 l 879 658 m 706 1338 l 742 1275 l 458 1063 l 432 1063 l 161 1271 l 204 1335 l 451 1214 l 706 1338 z "},"Ţ":{"ha":903,"x_min":22,"x_max":879,"o":"m 879 658 l 788 658 q 742 824 788 768 q 617 879 697 881 l 550 879 l 550 228 q 544 103 550 135 q 656 107 590 107 l 656 0 l 507 0 l 472 -96 l 474 -96 q 519 -81 490 -87 q 568 -74 549 -74 q 642 -99 614 -75 q 669 -171 669 -124 q 572 -299 669 -256 q 354 -360 475 -343 l 343 -287 q 459 -256 408 -275 q 510 -200 510 -236 q 499 -174 510 -182 q 471 -165 488 -165 q 442 -171 457 -165 q 415 -185 426 -176 l 364 -162 l 404 0 l 250 0 l 250 92 q 307 101 288 93 q 338 133 326 108 q 349 213 349 158 l 349 878 l 285 878 q 158 822 203 876 q 114 658 114 768 l 22 658 l 29 972 l 871 972 l 879 658 z "},"Ț":{"ha":903,"x_min":22,"x_max":879,"o":"m 879 658 l 788 658 q 742 824 788 768 q 617 879 697 881 l 550 879 l 550 228 q 544 103 550 135 q 656 107 590 107 l 656 0 l 250 0 l 250 92 q 307 101 288 93 q 338 133 326 108 q 349 213 349 158 l 349 878 l 285 878 q 158 822 203 876 q 114 658 114 768 l 22 658 l 29 972 l 871 972 l 879 658 m 508 -50 q 538 -150 538 -99 q 501 -272 538 -210 q 400 -394 464 -335 l 338 -346 q 382 -249 368 -293 q 396 -162 396 -206 q 383 -75 396 -121 l 508 -50 z "},"U":{"ha":1056,"x_min":36,"x_max":1022,"o":"m 1022 881 q 965 872 985 879 q 935 839 946 864 q 924 760 924 814 l 924 413 q 819 81 924 185 q 535 -22 714 -22 q 226 94 317 -22 q 135 408 135 210 l 135 744 q 140 869 135 822 l 36 865 l 36 972 l 435 972 l 435 881 q 378 872 399 879 q 347 839 358 864 q 336 760 336 814 l 336 378 q 569 83 336 83 q 740 158 679 83 q 800 381 800 233 l 800 744 q 806 869 800 838 l 700 865 l 700 972 l 1022 972 l 1022 881 z "},"Ú":{"ha":1056,"x_min":36,"x_max":1022,"o":"m 1022 881 q 965 872 985 879 q 935 839 946 864 q 924 760 924 814 l 924 413 q 819 81 924 185 q 535 -22 714 -22 q 226 94 317 -22 q 135 408 135 210 l 135 744 q 140 869 135 822 l 36 865 l 36 972 l 435 972 l 435 881 q 378 872 399 879 q 347 839 358 864 q 336 760 336 814 l 336 378 q 569 83 336 83 q 740 158 679 83 q 800 381 800 233 l 800 744 q 806 869 800 838 l 700 865 l 700 972 l 1022 972 l 1022 881 m 718 1276 q 732 1235 732 1257 q 716 1185 732 1210 q 676 1146 700 1161 l 479 1042 l 429 1110 l 583 1274 q 618 1298 599 1289 q 657 1307 638 1307 q 718 1276 693 1307 z "},"Ŭ":{"ha":1056,"x_min":36,"x_max":1022,"o":"m 1022 881 q 965 872 985 879 q 935 839 946 864 q 924 760 924 814 l 924 413 q 819 81 924 185 q 535 -22 714 -22 q 226 94 317 -22 q 135 408 135 210 l 135 744 q 140 869 135 822 l 36 865 l 36 972 l 435 972 l 435 881 q 378 872 399 879 q 347 839 358 864 q 336 760 336 814 l 336 378 q 569 83 336 83 q 740 158 679 83 q 800 381 800 233 l 800 744 q 806 869 800 838 l 700 865 l 700 972 l 1022 972 l 1022 881 m 538 1086 q 397 1126 463 1086 q 300 1254 331 1167 l 358 1283 q 435 1228 393 1249 q 538 1207 478 1207 q 639 1228 597 1207 q 715 1283 681 1249 l 774 1254 q 678 1126 743 1167 q 538 1086 613 1086 z "},"Û":{"ha":1056,"x_min":36,"x_max":1022,"o":"m 1022 881 q 965 872 985 879 q 935 839 946 864 q 924 760 924 814 l 924 413 q 819 81 924 185 q 535 -22 714 -22 q 226 94 317 -22 q 135 408 135 210 l 135 744 q 140 869 135 822 l 36 865 l 36 972 l 435 972 l 435 881 q 378 872 399 879 q 347 839 358 864 q 336 760 336 814 l 336 378 q 569 83 336 83 q 740 158 679 83 q 800 381 800 233 l 800 744 q 806 869 800 838 l 700 865 l 700 972 l 1022 972 l 1022 881 m 556 1349 l 826 1140 l 783 1075 l 535 1196 l 282 1078 l 244 1140 l 528 1349 l 556 1349 z "},"Ü":{"ha":1056,"x_min":36,"x_max":1022,"o":"m 1022 881 q 965 872 985 879 q 935 839 946 864 q 924 760 924 814 l 924 413 q 819 81 924 185 q 535 -22 714 -22 q 226 94 317 -22 q 135 408 135 210 l 135 744 q 140 869 135 822 l 36 865 l 36 972 l 435 972 l 435 881 q 378 872 399 879 q 347 839 358 864 q 336 760 336 814 l 336 378 q 569 83 336 83 q 740 158 679 83 q 800 381 800 233 l 800 744 q 806 869 800 838 l 700 865 l 700 972 l 1022 972 l 1022 881 m 415 1318 q 481 1287 454 1318 q 507 1211 507 1256 q 479 1138 507 1168 q 414 1107 451 1107 q 349 1138 376 1107 q 321 1211 321 1168 q 349 1286 321 1254 q 415 1318 378 1318 m 657 1318 q 722 1287 696 1318 q 749 1211 749 1256 q 721 1138 749 1168 q 656 1107 693 1107 q 591 1138 618 1107 q 564 1211 564 1168 q 592 1286 564 1254 q 657 1318 619 1318 z "},"Ụ":{"ha":1056,"x_min":36,"x_max":1022,"o":"m 1022 881 q 965 872 985 879 q 935 839 946 864 q 924 760 924 814 l 924 413 q 819 81 924 185 q 535 -22 714 -22 q 226 94 317 -22 q 135 408 135 210 l 135 744 q 140 869 135 822 l 36 865 l 36 972 l 435 972 l 435 881 q 378 872 399 879 q 347 839 358 864 q 336 760 336 814 l 336 378 q 569 83 336 83 q 740 158 679 83 q 800 381 800 233 l 800 744 q 806 869 800 838 l 700 865 l 700 972 l 1022 972 l 1022 881 m 529 -86 q 588 -112 564 -86 q 611 -176 611 -139 q 589 -240 611 -214 q 531 -265 567 -265 q 469 -240 493 -265 q 444 -176 444 -214 q 469 -112 444 -139 q 529 -86 494 -86 z "},"Ù":{"ha":1056,"x_min":36,"x_max":1022,"o":"m 1022 881 q 965 872 985 879 q 935 839 946 864 q 924 760 924 814 l 924 413 q 819 81 924 185 q 535 -22 714 -22 q 226 94 317 -22 q 135 408 135 210 l 135 744 q 140 869 135 822 l 36 865 l 36 972 l 435 972 l 435 881 q 378 872 399 879 q 347 839 358 864 q 336 760 336 814 l 336 378 q 569 83 336 83 q 740 158 679 83 q 800 381 800 233 l 800 744 q 806 869 800 838 l 700 865 l 700 972 l 1022 972 l 1022 881 m 328 1276 q 389 1307 353 1307 q 428 1298 408 1307 q 463 1274 447 1289 l 617 1110 l 567 1042 l 369 1146 q 330 1185 346 1161 q 314 1235 314 1210 q 328 1276 314 1257 z "},"Ủ":{"ha":1056,"x_min":36,"x_max":1022,"o":"m 1022 881 q 965 872 985 879 q 935 839 946 864 q 924 760 924 814 l 924 413 q 819 81 924 185 q 535 -22 714 -22 q 226 94 317 -22 q 135 408 135 210 l 135 744 q 140 869 135 822 l 36 865 l 36 972 l 435 972 l 435 881 q 378 872 399 879 q 347 839 358 864 q 336 760 336 814 l 336 378 q 569 83 336 83 q 740 158 679 83 q 800 381 800 233 l 800 744 q 806 869 800 838 l 700 865 l 700 972 l 1022 972 l 1022 881 m 515 1315 q 642 1280 596 1315 q 688 1182 688 1244 q 674 1139 688 1156 q 636 1103 661 1122 q 607 1077 615 1086 q 599 1054 599 1068 l 507 1054 q 517 1084 507 1072 q 544 1111 526 1096 q 574 1141 564 1128 q 583 1174 583 1154 q 569 1217 583 1201 q 515 1232 554 1232 q 471 1221 486 1232 q 453 1194 456 1210 q 462 1184 460 1190 q 464 1165 464 1178 q 451 1143 464 1153 q 408 1133 438 1133 q 369 1148 381 1133 q 357 1190 357 1163 q 395 1276 357 1238 q 515 1315 433 1315 z "},"Ư":{"ha":1056,"x_min":36,"x_max":1151,"o":"m 1151 1079 q 1091 940 1151 992 q 925 879 1031 888 l 924 413 q 819 81 924 185 q 535 -22 714 -22 q 226 94 317 -22 q 135 408 135 210 l 135 744 q 140 869 135 822 l 36 865 l 36 972 l 435 972 l 435 881 q 378 872 399 879 q 347 839 358 864 q 336 760 336 814 l 336 378 q 569 83 336 83 q 740 158 679 83 q 800 381 800 233 l 800 744 q 806 869 800 838 l 700 865 l 700 972 l 918 972 q 978 1013 956 982 q 1000 1079 1000 1044 l 1151 1079 z "},"Ứ":{"ha":1056,"x_min":36,"x_max":1151,"o":"m 1151 1079 q 1091 940 1151 992 q 925 879 1031 888 l 924 413 q 819 81 924 185 q 535 -22 714 -22 q 226 94 317 -22 q 135 408 135 210 l 135 744 q 140 869 135 822 l 36 865 l 36 972 l 435 972 l 435 881 q 378 872 399 879 q 347 839 358 864 q 336 760 336 814 l 336 378 q 569 83 336 83 q 740 158 679 83 q 800 381 800 233 l 800 744 q 806 869 800 838 l 700 865 l 700 972 l 918 972 q 978 1013 956 982 q 1000 1079 1000 1044 l 1151 1079 m 644 1347 q 669 1290 669 1324 q 659 1247 669 1269 q 632 1210 649 1225 l 464 1063 l 400 1119 l 514 1314 q 551 1351 529 1338 q 597 1364 574 1364 q 644 1347 621 1364 z "},"Ự":{"ha":1056,"x_min":36,"x_max":1151,"o":"m 1151 1079 q 1091 940 1151 992 q 925 879 1031 888 l 924 413 q 819 81 924 185 q 535 -22 714 -22 q 226 94 317 -22 q 135 408 135 210 l 135 744 q 140 869 135 822 l 36 865 l 36 972 l 435 972 l 435 881 q 378 872 399 879 q 347 839 358 864 q 336 760 336 814 l 336 378 q 569 83 336 83 q 740 158 679 83 q 800 381 800 233 l 800 744 q 806 869 800 838 l 700 865 l 700 972 l 918 972 q 978 1013 956 982 q 1000 1079 1000 1044 l 1151 1079 m 529 -86 q 588 -112 564 -86 q 611 -176 611 -139 q 589 -240 611 -214 q 531 -265 567 -265 q 469 -240 493 -265 q 444 -176 444 -214 q 469 -112 444 -139 q 529 -86 494 -86 z "},"Ừ":{"ha":1056,"x_min":36,"x_max":1151,"o":"m 1151 1079 q 1091 940 1151 992 q 925 879 1031 888 l 924 413 q 819 81 924 185 q 535 -22 714 -22 q 226 94 317 -22 q 135 408 135 210 l 135 744 q 140 869 135 822 l 36 865 l 36 972 l 435 972 l 435 881 q 378 872 399 879 q 347 839 358 864 q 336 760 336 814 l 336 378 q 569 83 336 83 q 740 158 679 83 q 800 381 800 233 l 800 744 q 806 869 800 838 l 700 865 l 700 972 l 918 972 q 978 1013 956 982 q 1000 1079 1000 1044 l 1151 1079 m 426 1347 q 474 1364 447 1364 q 519 1350 497 1364 q 556 1314 542 1336 l 669 1119 l 606 1063 l 438 1210 q 410 1247 421 1226 q 400 1289 400 1268 q 426 1347 400 1322 z "},"Ử":{"ha":1056,"x_min":36,"x_max":1151,"o":"m 1151 1079 q 1091 940 1151 992 q 925 879 1031 888 l 924 413 q 819 81 924 185 q 535 -22 714 -22 q 226 94 317 -22 q 135 408 135 210 l 135 744 q 140 869 135 822 l 36 865 l 36 972 l 435 972 l 435 881 q 378 872 399 879 q 347 839 358 864 q 336 760 336 814 l 336 378 q 569 83 336 83 q 740 158 679 83 q 800 381 800 233 l 800 744 q 806 869 800 838 l 700 865 l 700 972 l 918 972 q 978 1013 956 982 q 1000 1079 1000 1044 l 1151 1079 m 515 1315 q 642 1280 596 1315 q 688 1182 688 1244 q 674 1139 688 1156 q 636 1103 661 1122 q 607 1077 615 1086 q 599 1054 599 1068 l 507 1054 q 517 1084 507 1072 q 544 1111 526 1096 q 574 1141 564 1128 q 583 1174 583 1154 q 569 1217 583 1201 q 515 1232 554 1232 q 471 1221 486 1232 q 453 1194 456 1210 q 462 1184 460 1190 q 464 1165 464 1178 q 451 1143 464 1153 q 408 1133 438 1133 q 369 1148 381 1133 q 357 1190 357 1163 q 395 1276 357 1238 q 515 1315 433 1315 z "},"Ữ":{"ha":1056,"x_min":36,"x_max":1151,"o":"m 1151 1079 q 1091 940 1151 992 q 925 879 1031 888 l 924 413 q 819 81 924 185 q 535 -22 714 -22 q 226 94 317 -22 q 135 408 135 210 l 135 744 q 140 869 135 822 l 36 865 l 36 972 l 435 972 l 435 881 q 378 872 399 879 q 347 839 358 864 q 336 760 336 814 l 336 378 q 569 83 336 83 q 740 158 679 83 q 800 381 800 233 l 800 744 q 806 869 800 838 l 700 865 l 700 972 l 918 972 q 978 1013 956 982 q 1000 1079 1000 1044 l 1151 1079 m 783 1283 q 710 1162 756 1203 q 618 1121 664 1121 q 570 1128 592 1121 q 521 1151 549 1136 q 483 1169 497 1164 q 450 1175 468 1175 q 406 1162 429 1175 q 364 1118 383 1149 l 286 1164 q 355 1267 308 1226 q 449 1307 401 1307 q 500 1299 479 1307 q 544 1278 521 1292 q 581 1260 565 1265 q 618 1254 597 1254 q 664 1272 642 1254 q 704 1324 686 1290 l 783 1283 z "},"Ű":{"ha":1056,"x_min":36,"x_max":1022,"o":"m 1022 881 q 965 872 985 879 q 935 839 946 864 q 924 760 924 814 l 924 413 q 819 81 924 185 q 535 -22 714 -22 q 226 94 317 -22 q 135 408 135 210 l 135 744 q 140 869 135 822 l 36 865 l 36 972 l 435 972 l 435 881 q 378 872 399 879 q 347 839 358 864 q 336 760 336 814 l 336 378 q 569 83 336 83 q 740 158 679 83 q 800 381 800 233 l 800 744 q 806 869 800 838 l 700 865 l 700 972 l 1022 972 l 1022 881 m 622 1318 q 643 1272 643 1299 q 631 1227 643 1250 q 599 1186 618 1204 l 436 1038 l 374 1094 l 492 1268 q 536 1313 511 1296 q 586 1331 561 1331 q 622 1318 606 1331 m 897 1264 q 907 1233 907 1250 q 886 1185 907 1208 q 835 1143 865 1161 l 639 1036 l 594 1107 l 751 1249 q 846 1292 801 1292 q 897 1264 882 1292 z "},"Ū":{"ha":1056,"x_min":36,"x_max":1022,"o":"m 1022 881 q 965 872 985 879 q 935 839 946 864 q 924 760 924 814 l 924 413 q 819 81 924 185 q 535 -22 714 -22 q 226 94 317 -22 q 135 408 135 210 l 135 744 q 140 869 135 822 l 36 865 l 36 972 l 435 972 l 435 881 q 378 872 399 879 q 347 839 358 864 q 336 760 336 814 l 336 378 q 569 83 336 83 q 740 158 679 83 q 800 381 800 233 l 800 744 q 806 869 800 838 l 700 865 l 700 972 l 1022 972 l 1022 881 m 732 1282 l 732 1154 l 338 1149 l 338 1282 l 732 1282 z "},"Ų":{"ha":1056,"x_min":36,"x_max":1022,"o":"m 1022 972 l 1022 881 q 965 872 985 879 q 935 839 946 864 q 924 760 924 814 l 924 413 q 706 7 924 92 l 706 6 q 581 -74 633 -25 q 529 -178 529 -124 q 545 -220 529 -204 q 590 -236 561 -236 q 676 -196 632 -236 l 725 -256 q 639 -333 688 -304 q 542 -362 590 -362 q 433 -326 474 -362 q 392 -219 392 -289 q 425 -115 392 -165 q 517 -22 458 -65 q 222 99 308 -17 q 135 408 135 214 l 135 744 q 140 869 135 822 l 36 865 l 36 972 l 435 972 l 435 881 q 378 872 399 879 q 347 839 358 864 q 336 760 336 814 l 336 378 q 569 83 336 83 q 740 158 679 83 q 800 381 800 233 l 800 744 q 806 869 800 838 l 700 865 l 700 972 l 1022 972 z "},"Ů":{"ha":1056,"x_min":36,"x_max":1022,"o":"m 1022 881 q 965 872 985 879 q 935 839 946 864 q 924 760 924 814 l 924 413 q 819 81 924 185 q 535 -22 714 -22 q 226 94 317 -22 q 135 408 135 210 l 135 744 q 140 869 135 822 l 36 865 l 36 972 l 435 972 l 435 881 q 378 872 399 879 q 347 839 358 864 q 336 760 336 814 l 336 378 q 569 83 336 83 q 740 158 679 83 q 800 381 800 233 l 800 744 q 806 869 800 838 l 700 865 l 700 972 l 1022 972 l 1022 881 m 535 1382 q 649 1341 600 1382 q 699 1224 699 1300 q 675 1138 699 1175 q 614 1081 651 1101 q 536 1060 576 1060 q 458 1078 496 1060 q 395 1134 419 1097 q 371 1219 371 1171 q 394 1302 371 1265 q 454 1360 417 1339 q 535 1382 492 1382 m 533 1299 q 500 1281 514 1297 q 486 1232 486 1264 q 501 1167 486 1189 q 543 1144 517 1144 q 576 1163 563 1146 q 589 1211 589 1181 q 574 1277 589 1256 q 533 1299 558 1299 z "},"Ũ":{"ha":1056,"x_min":36,"x_max":1022,"o":"m 1022 881 q 965 872 985 879 q 935 839 946 864 q 924 760 924 814 l 924 413 q 819 81 924 185 q 535 -22 714 -22 q 226 94 317 -22 q 135 408 135 210 l 135 744 q 140 869 135 822 l 36 865 l 36 972 l 435 972 l 435 881 q 378 872 399 879 q 347 839 358 864 q 336 760 336 814 l 336 378 q 569 83 336 83 q 740 158 679 83 q 800 381 800 233 l 800 744 q 806 869 800 838 l 700 865 l 700 972 l 1022 972 l 1022 881 m 783 1283 q 710 1162 756 1203 q 618 1121 664 1121 q 570 1128 592 1121 q 521 1151 549 1136 q 483 1169 497 1164 q 450 1175 468 1175 q 406 1162 429 1175 q 364 1118 383 1149 l 286 1164 q 355 1267 308 1226 q 449 1307 401 1307 q 500 1299 479 1307 q 544 1278 521 1292 q 581 1260 565 1265 q 618 1254 597 1254 q 664 1272 642 1254 q 704 1324 686 1290 l 783 1283 z "},"V":{"ha":983,"x_min":11,"x_max":983,"o":"m 983 881 q 900 844 935 878 q 836 732 865 810 l 558 -8 l 444 -8 l 125 738 q 86 869 86 829 l 11 865 l 11 972 l 421 972 l 421 881 q 329 822 329 883 q 340 774 329 800 l 468 460 q 510 357 485 421 q 547 261 518 335 l 549 261 l 615 453 l 721 743 q 778 869 751 839 l 778 871 l 706 867 l 671 865 l 671 972 l 983 972 l 983 881 z "},"W":{"ha":1411,"x_min":18,"x_max":1413,"o":"m 1413 881 q 1328 844 1364 878 q 1265 732 1292 810 l 1039 -8 l 915 -8 l 751 489 q 707 660 729 554 q 700 694 706 672 l 699 694 q 658 513 685 604 l 500 -8 l 379 -8 l 132 740 q 92 869 92 835 l 18 865 l 18 972 l 428 972 l 428 881 q 360 869 383 882 q 338 822 338 856 q 346 776 338 804 l 429 460 q 446 395 432 449 q 475 263 460 342 l 476 263 l 556 547 l 685 972 l 810 972 l 968 461 q 1018 261 988 397 l 1019 261 l 1072 453 l 1150 743 q 1207 869 1172 831 l 1207 871 l 1135 867 l 1100 865 l 1100 972 l 1413 972 l 1413 881 z "},"X":{"ha":971,"x_min":19,"x_max":965,"o":"m 904 881 q 810 838 857 875 q 708 724 764 800 l 575 542 l 836 208 q 908 103 890 142 q 965 107 954 107 l 965 0 l 550 0 l 550 92 q 628 125 628 92 q 596 186 628 144 l 456 365 l 454 365 l 332 197 q 256 103 282 129 l 256 101 q 354 107 317 107 l 354 0 l 49 0 l 49 92 q 128 136 88 101 q 221 240 169 171 l 382 456 l 158 739 q 89 869 115 794 l 19 865 l 19 972 l 442 972 l 442 881 q 356 842 356 881 q 382 786 356 819 l 504 629 l 506 629 l 611 775 q 693 869 657 838 l 693 871 l 624 867 l 589 865 l 589 972 l 904 972 l 904 881 z "},"Y":{"ha":926,"x_min":4,"x_max":921,"o":"m 921 881 q 838 841 872 874 q 763 732 803 808 l 582 385 l 582 228 q 576 103 582 150 q 688 107 622 107 l 688 0 l 282 0 l 282 92 q 339 101 319 93 q 369 133 358 108 q 381 213 381 158 l 381 333 l 125 738 q 88 810 104 772 q 72 869 72 847 l 4 865 l 4 972 l 414 972 l 414 881 q 342 869 369 883 q 315 826 315 856 q 332 774 315 801 l 438 600 q 469 546 442 593 q 508 465 496 499 l 510 465 q 519 487 514 475 q 532 514 525 499 q 575 601 567 583 l 647 743 q 721 869 690 835 l 721 871 l 649 867 l 614 865 l 614 972 l 921 972 l 921 881 z "},"Ý":{"ha":926,"x_min":4,"x_max":921,"o":"m 921 881 q 838 841 872 874 q 763 732 803 808 l 582 385 l 582 228 q 576 103 582 150 q 688 107 622 107 l 688 0 l 282 0 l 282 92 q 339 101 319 93 q 369 133 358 108 q 381 213 381 158 l 381 333 l 125 738 q 88 810 104 772 q 72 869 72 847 l 4 865 l 4 972 l 414 972 l 414 881 q 342 869 369 883 q 315 826 315 856 q 332 774 315 801 l 438 600 q 469 546 442 593 q 508 465 496 499 l 510 465 q 519 487 514 475 q 532 514 525 499 q 575 601 567 583 l 647 743 q 721 869 690 835 l 721 871 l 649 867 l 614 865 l 614 972 l 921 972 l 921 881 m 663 1276 q 676 1235 676 1257 q 660 1185 676 1210 q 621 1146 644 1161 l 424 1042 l 374 1110 l 528 1274 q 563 1298 543 1289 q 601 1307 582 1307 q 663 1276 638 1307 z "},"Ÿ":{"ha":926,"x_min":4,"x_max":921,"o":"m 921 881 q 838 841 872 874 q 763 732 803 808 l 582 385 l 582 228 q 576 103 582 150 q 688 107 622 107 l 688 0 l 282 0 l 282 92 q 339 101 319 93 q 369 133 358 108 q 381 213 381 158 l 381 333 l 125 738 q 88 810 104 772 q 72 869 72 847 l 4 865 l 4 972 l 414 972 l 414 881 q 342 869 369 883 q 315 826 315 856 q 332 774 315 801 l 438 600 q 469 546 442 593 q 508 465 496 499 l 510 465 q 519 487 514 475 q 532 514 525 499 q 575 601 567 583 l 647 743 q 721 869 690 835 l 721 871 l 649 867 l 614 865 l 614 972 l 921 972 l 921 881 m 360 1318 q 425 1287 399 1318 q 451 1211 451 1256 q 424 1138 451 1168 q 358 1107 396 1107 q 293 1138 321 1107 q 265 1211 265 1168 q 294 1286 265 1254 q 360 1318 322 1318 m 601 1318 q 667 1287 640 1318 q 693 1211 693 1256 q 665 1138 693 1168 q 600 1107 638 1107 q 535 1138 563 1107 q 508 1211 508 1168 q 536 1286 508 1254 q 601 1318 564 1318 z "},"Ỵ":{"ha":926,"x_min":4,"x_max":921,"o":"m 921 881 q 838 841 872 874 q 763 732 803 808 l 582 385 l 582 228 q 576 103 582 150 q 688 107 622 107 l 688 0 l 282 0 l 282 92 q 339 101 319 93 q 369 133 358 108 q 381 213 381 158 l 381 333 l 125 738 q 88 810 104 772 q 72 869 72 847 l 4 865 l 4 972 l 414 972 l 414 881 q 342 869 369 883 q 315 826 315 856 q 332 774 315 801 l 438 600 q 469 546 442 593 q 508 465 496 499 l 510 465 q 519 487 514 475 q 532 514 525 499 q 575 601 567 583 l 647 743 q 721 869 690 835 l 721 871 l 649 867 l 614 865 l 614 972 l 921 972 l 921 881 m 465 -86 q 524 -112 500 -86 q 547 -176 547 -139 q 525 -240 547 -214 q 467 -265 503 -265 q 405 -240 429 -265 q 381 -176 381 -214 q 406 -112 381 -139 q 465 -86 431 -86 z "},"Ỳ":{"ha":926,"x_min":4,"x_max":921,"o":"m 921 881 q 838 841 872 874 q 763 732 803 808 l 582 385 l 582 228 q 576 103 582 150 q 688 107 622 107 l 688 0 l 282 0 l 282 92 q 339 101 319 93 q 369 133 358 108 q 381 213 381 158 l 381 333 l 125 738 q 88 810 104 772 q 72 869 72 847 l 4 865 l 4 972 l 414 972 l 414 881 q 342 869 369 883 q 315 826 315 856 q 332 774 315 801 l 438 600 q 469 546 442 593 q 508 465 496 499 l 510 465 q 519 487 514 475 q 532 514 525 499 q 575 601 567 583 l 647 743 q 721 869 690 835 l 721 871 l 649 867 l 614 865 l 614 972 l 921 972 l 921 881 m 371 1347 q 418 1364 392 1364 q 464 1350 442 1364 q 500 1314 486 1336 l 614 1119 l 550 1063 l 382 1210 q 355 1247 365 1226 q 344 1289 344 1268 q 371 1347 344 1322 z "},"Ỷ":{"ha":926,"x_min":4,"x_max":921,"o":"m 921 881 q 838 841 872 874 q 763 732 803 808 l 582 385 l 582 228 q 576 103 582 150 q 688 107 622 107 l 688 0 l 282 0 l 282 92 q 339 101 319 93 q 369 133 358 108 q 381 213 381 158 l 381 333 l 125 738 q 88 810 104 772 q 72 869 72 847 l 4 865 l 4 972 l 414 972 l 414 881 q 342 869 369 883 q 315 826 315 856 q 332 774 315 801 l 438 600 q 469 546 442 593 q 508 465 496 499 l 510 465 q 519 487 514 475 q 532 514 525 499 q 575 601 567 583 l 647 743 q 721 869 690 835 l 721 871 l 649 867 l 614 865 l 614 972 l 921 972 l 921 881 m 460 1315 q 586 1280 540 1315 q 632 1182 632 1244 q 619 1139 632 1156 q 581 1103 606 1122 q 551 1077 560 1086 q 543 1054 543 1068 l 451 1054 q 461 1084 451 1072 q 489 1111 471 1096 q 518 1141 508 1128 q 528 1174 528 1154 q 513 1217 528 1201 q 460 1232 499 1232 q 415 1221 431 1232 q 397 1194 400 1210 q 406 1184 404 1190 q 408 1165 408 1178 q 395 1143 408 1153 q 353 1133 382 1133 q 313 1148 325 1133 q 301 1190 301 1163 q 340 1276 301 1238 q 460 1315 378 1315 z "},"Ỹ":{"ha":926,"x_min":4,"x_max":921,"o":"m 921 881 q 838 841 872 874 q 763 732 803 808 l 582 385 l 582 228 q 576 103 582 150 q 688 107 622 107 l 688 0 l 282 0 l 282 92 q 339 101 319 93 q 369 133 358 108 q 381 213 381 158 l 381 333 l 125 738 q 88 810 104 772 q 72 869 72 847 l 4 865 l 4 972 l 414 972 l 414 881 q 342 869 369 883 q 315 826 315 856 q 332 774 315 801 l 438 600 q 469 546 442 593 q 508 465 496 499 l 510 465 q 519 487 514 475 q 532 514 525 499 q 575 601 567 583 l 647 743 q 721 869 690 835 l 721 871 l 649 867 l 614 865 l 614 972 l 921 972 l 921 881 m 728 1283 q 654 1162 700 1203 q 563 1121 608 1121 q 515 1128 536 1121 q 465 1151 493 1136 q 427 1169 442 1164 q 394 1175 413 1175 q 351 1162 374 1175 q 308 1118 328 1149 l 231 1164 q 299 1267 253 1226 q 393 1307 346 1307 q 444 1299 424 1307 q 489 1278 465 1292 q 526 1260 510 1265 q 563 1254 542 1254 q 608 1272 586 1254 q 649 1324 631 1290 l 728 1283 z "},"Z":{"ha":839,"x_min":56,"x_max":779,"o":"m 778 868 l 378 263 q 258 99 304 153 l 258 97 l 513 92 q 641 140 594 90 q 688 297 688 189 l 779 297 l 771 0 l 56 0 l 56 104 l 471 738 q 568 874 532 831 l 568 875 l 331 882 q 201 835 249 885 q 154 676 154 785 l 63 676 l 71 972 l 778 972 l 778 868 z "},"Ź":{"ha":839,"x_min":56,"x_max":779,"o":"m 778 868 l 378 263 q 258 99 304 153 l 258 97 l 513 92 q 641 140 594 90 q 688 297 688 189 l 779 297 l 771 0 l 56 0 l 56 104 l 471 738 q 568 874 532 831 l 568 875 l 331 882 q 201 835 249 885 q 154 676 154 785 l 63 676 l 71 972 l 778 972 l 778 868 m 619 1276 q 633 1235 633 1257 q 617 1185 633 1210 q 578 1146 601 1161 l 381 1042 l 331 1110 l 485 1274 q 519 1298 500 1289 q 558 1307 539 1307 q 619 1276 594 1307 z "},"Ž":{"ha":839,"x_min":56,"x_max":779,"o":"m 778 868 l 378 263 q 258 99 304 153 l 258 97 l 513 92 q 641 140 594 90 q 688 297 688 189 l 779 297 l 771 0 l 56 0 l 56 104 l 471 738 q 568 874 532 831 l 568 875 l 331 882 q 201 835 249 885 q 154 676 154 785 l 63 676 l 71 972 l 778 972 l 778 868 m 690 1338 l 726 1275 l 443 1063 l 417 1063 l 146 1271 l 189 1335 l 436 1214 l 690 1338 z "},"Ż":{"ha":839,"x_min":56,"x_max":779,"o":"m 778 868 l 378 263 q 258 99 304 153 l 258 97 l 513 92 q 641 140 594 90 q 688 297 688 189 l 779 297 l 771 0 l 56 0 l 56 104 l 471 738 q 568 874 532 831 l 568 875 l 331 882 q 201 835 249 885 q 154 676 154 785 l 63 676 l 71 972 l 778 972 l 778 868 m 438 1324 q 512 1290 482 1324 q 542 1210 542 1257 q 513 1128 542 1161 q 439 1096 485 1096 q 361 1129 392 1096 q 331 1210 331 1163 q 363 1290 331 1257 q 438 1324 394 1324 z "},"a":{"ha":728,"x_min":42,"x_max":706,"o":"m 365 717 q 622 451 622 717 l 621 224 q 615 101 621 157 q 706 106 661 106 l 706 0 l 443 0 q 438 64 440 18 l 436 64 q 231 -22 351 -22 q 92 30 143 -22 q 42 163 42 82 q 156 348 42 285 q 429 418 269 411 l 429 490 q 335 617 429 617 q 235 578 274 617 q 251 525 251 558 q 228 465 251 492 q 161 439 206 439 q 96 466 119 439 q 72 533 72 493 q 111 629 72 588 q 217 694 150 671 q 365 717 285 717 m 428 319 q 292 278 346 311 q 239 188 239 244 q 262 132 239 150 q 318 114 285 114 q 428 164 381 114 l 428 319 z "},"á":{"ha":728,"x_min":42,"x_max":706,"o":"m 365 717 q 622 451 622 717 l 621 224 q 615 101 621 157 q 706 106 661 106 l 706 0 l 443 0 q 438 64 440 18 l 436 64 q 231 -22 351 -22 q 92 30 143 -22 q 42 163 42 82 q 156 348 42 285 q 429 418 269 411 l 429 490 q 335 617 429 617 q 235 578 274 617 q 251 525 251 558 q 228 465 251 492 q 161 439 206 439 q 96 466 119 439 q 72 533 72 493 q 111 629 72 588 q 217 694 150 671 q 365 717 285 717 m 428 319 q 292 278 346 311 q 239 188 239 244 q 262 132 239 150 q 318 114 285 114 q 428 164 381 114 l 428 319 m 460 1069 q 485 1013 485 1046 q 474 969 485 992 q 447 932 464 947 l 279 785 l 215 842 l 329 1036 q 367 1073 344 1060 q 413 1086 389 1086 q 460 1069 438 1086 z "},"ă":{"ha":728,"x_min":42,"x_max":706,"o":"m 365 717 q 622 451 622 717 l 621 224 q 615 101 621 157 q 706 106 661 106 l 706 0 l 443 0 q 438 64 440 18 l 436 64 q 231 -22 351 -22 q 92 30 143 -22 q 42 163 42 82 q 156 348 42 285 q 429 418 269 411 l 429 490 q 335 617 429 617 q 235 578 274 617 q 251 525 251 558 q 228 465 251 492 q 161 439 206 439 q 96 466 119 439 q 72 533 72 493 q 111 629 72 588 q 217 694 150 671 q 365 717 285 717 m 428 319 q 292 278 346 311 q 239 188 239 244 q 262 132 239 150 q 318 114 285 114 q 428 164 381 114 l 428 319 m 569 1021 q 347 833 501 833 q 221 877 281 833 q 131 1014 161 921 l 221 1060 q 278 988 247 1014 q 353 961 308 961 q 426 988 396 961 q 479 1061 456 1015 l 569 1021 z "},"ắ":{"ha":728,"x_min":42,"x_max":706,"o":"m 365 717 q 622 451 622 717 l 621 224 q 615 101 621 157 q 706 106 661 106 l 706 0 l 443 0 q 438 64 440 18 l 436 64 q 231 -22 351 -22 q 92 30 143 -22 q 42 163 42 82 q 156 348 42 285 q 429 418 269 411 l 429 490 q 335 617 429 617 q 235 578 274 617 q 251 525 251 558 q 228 465 251 492 q 161 439 206 439 q 96 466 119 439 q 72 533 72 493 q 111 629 72 588 q 217 694 150 671 q 365 717 285 717 m 428 319 q 292 278 346 311 q 239 188 239 244 q 262 132 239 150 q 318 114 285 114 q 428 164 381 114 l 428 319 m 569 956 q 347 768 501 768 q 221 812 281 768 q 131 949 161 856 l 221 994 q 278 922 247 949 q 353 896 308 896 q 426 923 396 896 q 479 996 456 950 l 569 956 m 535 1267 q 560 1210 560 1243 q 549 1167 560 1189 q 522 1129 539 1144 l 354 982 l 290 1039 l 404 1233 q 442 1270 419 1257 q 488 1283 464 1283 q 535 1267 511 1283 z "},"ặ":{"ha":728,"x_min":42,"x_max":706,"o":"m 365 717 q 622 451 622 717 l 621 224 q 615 101 621 157 q 706 106 661 106 l 706 0 l 443 0 q 438 64 440 18 l 436 64 q 231 -22 351 -22 q 92 30 143 -22 q 42 163 42 82 q 156 348 42 285 q 429 418 269 411 l 429 490 q 335 617 429 617 q 235 578 274 617 q 251 525 251 558 q 228 465 251 492 q 161 439 206 439 q 96 466 119 439 q 72 533 72 493 q 111 629 72 588 q 217 694 150 671 q 365 717 285 717 m 428 319 q 292 278 346 311 q 239 188 239 244 q 262 132 239 150 q 318 114 285 114 q 428 164 381 114 l 428 319 m 365 -86 q 424 -112 400 -86 q 447 -176 447 -139 q 425 -240 447 -214 q 367 -265 403 -265 q 305 -240 329 -265 q 281 -176 281 -214 q 306 -112 281 -139 q 365 -86 331 -86 m 569 1021 q 347 833 501 833 q 221 877 281 833 q 131 1014 161 921 l 221 1060 q 278 988 247 1014 q 353 961 308 961 q 426 988 396 961 q 479 1061 456 1015 l 569 1021 z "},"ằ":{"ha":728,"x_min":42,"x_max":706,"o":"m 365 717 q 622 451 622 717 l 621 224 q 615 101 621 157 q 706 106 661 106 l 706 0 l 443 0 q 438 64 440 18 l 436 64 q 231 -22 351 -22 q 92 30 143 -22 q 42 163 42 82 q 156 348 42 285 q 429 418 269 411 l 429 490 q 335 617 429 617 q 235 578 274 617 q 251 525 251 558 q 228 465 251 492 q 161 439 206 439 q 96 466 119 439 q 72 533 72 493 q 111 629 72 588 q 217 694 150 671 q 365 717 285 717 m 428 319 q 292 278 346 311 q 239 188 239 244 q 262 132 239 150 q 318 114 285 114 q 428 164 381 114 l 428 319 m 569 951 q 347 764 501 764 q 221 808 281 764 q 131 944 161 851 l 221 990 q 278 918 247 944 q 353 892 308 892 q 426 919 396 892 q 479 992 456 946 l 569 951 m 172 1267 q 219 1283 193 1283 q 265 1269 243 1283 q 301 1233 288 1256 l 415 1039 l 351 982 l 183 1129 q 156 1167 167 1146 q 146 1208 146 1188 q 172 1267 146 1242 z "},"ẳ":{"ha":728,"x_min":42,"x_max":706,"o":"m 365 717 q 622 451 622 717 l 621 224 q 615 101 621 157 q 706 106 661 106 l 706 0 l 443 0 q 438 64 440 18 l 436 64 q 231 -22 351 -22 q 92 30 143 -22 q 42 163 42 82 q 156 348 42 285 q 429 418 269 411 l 429 490 q 335 617 429 617 q 235 578 274 617 q 251 525 251 558 q 228 465 251 492 q 161 439 206 439 q 96 466 119 439 q 72 533 72 493 q 111 629 72 588 q 217 694 150 671 q 365 717 285 717 m 428 319 q 292 278 346 311 q 239 188 239 244 q 262 132 239 150 q 318 114 285 114 q 428 164 381 114 l 428 319 m 569 953 q 347 765 501 765 q 221 809 281 765 q 131 946 161 853 l 221 992 q 278 919 247 946 q 353 893 308 893 q 426 920 396 893 q 479 993 456 947 l 569 953 m 317 1254 q 443 1219 397 1254 q 489 1121 489 1183 q 476 1078 489 1094 q 438 1042 463 1061 q 408 1016 417 1025 q 400 993 400 1007 l 308 993 q 318 1023 308 1011 q 346 1050 328 1035 q 375 1080 365 1067 q 385 1113 385 1093 q 370 1156 385 1140 q 317 1171 356 1171 q 272 1160 288 1171 q 254 1133 257 1149 q 263 1123 261 1129 q 265 1104 265 1117 q 252 1082 265 1092 q 210 1072 239 1072 q 170 1087 182 1072 q 158 1129 158 1101 q 197 1215 158 1176 q 317 1254 235 1254 z "},"ẵ":{"ha":728,"x_min":42,"x_max":706,"o":"m 365 717 q 622 451 622 717 l 621 224 q 615 101 621 157 q 706 106 661 106 l 706 0 l 443 0 q 438 64 440 18 l 436 64 q 231 -22 351 -22 q 92 30 143 -22 q 42 163 42 82 q 156 348 42 285 q 429 418 269 411 l 429 490 q 335 617 429 617 q 235 578 274 617 q 251 525 251 558 q 228 465 251 492 q 161 439 206 439 q 96 466 119 439 q 72 533 72 493 q 111 629 72 588 q 217 694 150 671 q 365 717 285 717 m 428 319 q 292 278 346 311 q 239 188 239 244 q 262 132 239 150 q 318 114 285 114 q 428 164 381 114 l 428 319 m 550 953 q 328 765 482 765 q 201 809 261 765 q 111 946 142 853 l 201 992 q 258 919 228 946 q 333 893 289 893 q 406 920 376 893 q 460 993 436 947 l 550 953 m 599 1200 q 525 1078 571 1119 q 433 1038 479 1038 q 385 1045 407 1038 q 336 1068 364 1053 q 298 1086 313 1081 q 265 1092 283 1092 q 222 1078 244 1092 q 179 1035 199 1065 l 101 1081 q 170 1183 124 1143 q 264 1224 217 1224 q 315 1216 294 1224 q 360 1194 336 1208 q 397 1176 381 1182 q 433 1171 413 1171 q 479 1189 457 1171 q 519 1240 501 1207 l 599 1200 z "},"â":{"ha":728,"x_min":42,"x_max":706,"o":"m 365 717 q 622 451 622 717 l 621 224 q 615 101 621 157 q 706 106 661 106 l 706 0 l 443 0 q 438 64 440 18 l 436 64 q 231 -22 351 -22 q 92 30 143 -22 q 42 163 42 82 q 156 348 42 285 q 429 418 269 411 l 429 490 q 335 617 429 617 q 235 578 274 617 q 251 525 251 558 q 228 465 251 492 q 161 439 206 439 q 96 466 119 439 q 72 533 72 493 q 111 629 72 588 q 217 694 150 671 q 365 717 285 717 m 428 319 q 292 278 346 311 q 239 188 239 244 q 262 132 239 150 q 318 114 285 114 q 428 164 381 114 l 428 319 m 364 1088 l 586 851 l 526 781 l 350 926 l 349 926 l 171 790 l 113 857 l 350 1088 l 364 1088 z "},"ấ":{"ha":728,"x_min":42,"x_max":799,"o":"m 774 1188 q 799 1131 799 1164 q 788 1088 799 1110 q 761 1050 778 1065 l 593 903 l 529 960 l 643 1154 q 681 1191 658 1178 q 726 1204 703 1204 q 774 1188 750 1204 m 367 1006 l 590 833 l 556 781 l 350 881 l 142 782 l 110 833 l 344 1006 l 367 1006 m 365 717 q 622 451 622 717 l 621 224 q 615 101 621 157 q 706 106 661 106 l 706 0 l 443 0 q 438 64 440 18 l 436 64 q 231 -22 351 -22 q 92 30 143 -22 q 42 163 42 82 q 156 348 42 285 q 429 418 269 411 l 429 490 q 335 617 429 617 q 235 578 274 617 q 251 525 251 558 q 228 465 251 492 q 161 439 206 439 q 96 466 119 439 q 72 533 72 493 q 111 629 72 588 q 217 694 150 671 q 365 717 285 717 m 428 319 q 292 278 346 311 q 239 188 239 244 q 262 132 239 150 q 318 114 285 114 q 428 164 381 114 l 428 319 z "},"ậ":{"ha":728,"x_min":42,"x_max":706,"o":"m 365 717 q 622 451 622 717 l 621 224 q 615 101 621 157 q 706 106 661 106 l 706 0 l 443 0 q 438 64 440 18 l 436 64 q 231 -22 351 -22 q 92 30 143 -22 q 42 163 42 82 q 156 348 42 285 q 429 418 269 411 l 429 490 q 335 617 429 617 q 235 578 274 617 q 251 525 251 558 q 228 465 251 492 q 161 439 206 439 q 96 466 119 439 q 72 533 72 493 q 111 629 72 588 q 217 694 150 671 q 365 717 285 717 m 428 319 q 292 278 346 311 q 239 188 239 244 q 262 132 239 150 q 318 114 285 114 q 428 164 381 114 l 428 319 m 365 -86 q 424 -112 400 -86 q 447 -176 447 -139 q 425 -240 447 -214 q 367 -265 403 -265 q 305 -240 329 -265 q 281 -176 281 -214 q 306 -112 281 -139 q 365 -86 331 -86 m 364 1088 l 586 851 l 526 781 l 350 926 l 349 926 l 171 790 l 113 857 l 350 1088 l 364 1088 z "},"ầ":{"ha":728,"x_min":42,"x_max":706,"o":"m 383 1247 q 431 1264 404 1264 q 476 1250 454 1264 q 513 1214 499 1236 l 626 1019 l 563 963 l 394 1110 q 367 1147 378 1126 q 357 1189 357 1168 q 383 1247 357 1222 m 367 1006 l 590 833 l 556 781 l 350 881 l 142 782 l 110 833 l 344 1006 l 367 1006 m 365 717 q 622 451 622 717 l 621 224 q 615 101 621 157 q 706 106 661 106 l 706 0 l 443 0 q 438 64 440 18 l 436 64 q 231 -22 351 -22 q 92 30 143 -22 q 42 163 42 82 q 156 348 42 285 q 429 418 269 411 l 429 490 q 335 617 429 617 q 235 578 274 617 q 251 525 251 558 q 228 465 251 492 q 161 439 206 439 q 96 466 119 439 q 72 533 72 493 q 111 629 72 588 q 217 694 150 671 q 365 717 285 717 m 428 319 q 292 278 346 311 q 239 188 239 244 q 262 132 239 150 q 318 114 285 114 q 428 164 381 114 l 428 319 z "},"ẩ":{"ha":728,"x_min":42,"x_max":706,"o":"m 528 1236 q 654 1201 608 1236 q 700 1103 700 1165 q 687 1060 700 1076 q 649 1024 674 1043 q 619 998 628 1007 q 611 975 611 989 l 519 975 q 529 1005 519 993 q 557 1032 539 1017 q 586 1062 576 1049 q 596 1094 596 1075 q 581 1138 596 1122 q 528 1153 567 1153 q 483 1142 499 1153 q 465 1115 468 1131 q 474 1105 472 1111 q 476 1086 476 1099 q 463 1064 476 1074 q 421 1054 450 1054 q 381 1069 393 1054 q 369 1111 369 1083 q 408 1197 369 1158 q 528 1236 446 1236 m 367 1006 l 590 833 l 556 781 l 350 881 l 142 782 l 110 833 l 344 1006 l 367 1006 m 365 717 q 622 451 622 717 l 621 224 q 615 101 621 157 q 706 106 661 106 l 706 0 l 443 0 q 438 64 440 18 l 436 64 q 231 -22 351 -22 q 92 30 143 -22 q 42 163 42 82 q 156 348 42 285 q 429 418 269 411 l 429 490 q 335 617 429 617 q 235 578 274 617 q 251 525 251 558 q 228 465 251 492 q 161 439 206 439 q 96 466 119 439 q 72 533 72 493 q 111 629 72 588 q 217 694 150 671 q 365 717 285 717 m 428 319 q 292 278 346 311 q 239 188 239 244 q 262 132 239 150 q 318 114 285 114 q 428 164 381 114 l 428 319 z "},"ẫ":{"ha":728,"x_min":42,"x_max":706,"o":"m 633 1189 q 560 1067 606 1108 q 468 1026 514 1026 q 420 1034 442 1026 q 371 1057 399 1042 q 333 1075 347 1069 q 300 1081 318 1081 q 256 1067 279 1081 q 214 1024 233 1054 l 136 1069 q 205 1172 158 1132 q 299 1213 251 1213 q 350 1205 329 1213 q 394 1183 371 1197 q 431 1165 415 1171 q 468 1160 447 1160 q 514 1178 492 1160 q 554 1229 536 1196 l 633 1189 m 367 1006 l 590 833 l 556 781 l 350 881 l 142 782 l 110 833 l 344 1006 l 367 1006 m 365 717 q 622 451 622 717 l 621 224 q 615 101 621 157 q 706 106 661 106 l 706 0 l 443 0 q 438 64 440 18 l 436 64 q 231 -22 351 -22 q 92 30 143 -22 q 42 163 42 82 q 156 348 42 285 q 429 418 269 411 l 429 490 q 335 617 429 617 q 235 578 274 617 q 251 525 251 558 q 228 465 251 492 q 161 439 206 439 q 96 466 119 439 q 72 533 72 493 q 111 629 72 588 q 217 694 150 671 q 365 717 285 717 m 428 319 q 292 278 346 311 q 239 188 239 244 q 262 132 239 150 q 318 114 285 114 q 428 164 381 114 l 428 319 z "},"ä":{"ha":728,"x_min":42,"x_max":706,"o":"m 365 717 q 622 451 622 717 l 621 224 q 615 101 621 157 q 706 106 661 106 l 706 0 l 443 0 q 438 64 440 18 l 436 64 q 231 -22 351 -22 q 92 30 143 -22 q 42 163 42 82 q 156 348 42 285 q 429 418 269 411 l 429 490 q 335 617 429 617 q 235 578 274 617 q 251 525 251 558 q 228 465 251 492 q 161 439 206 439 q 96 466 119 439 q 72 533 72 493 q 111 629 72 588 q 217 694 150 671 q 365 717 285 717 m 428 319 q 292 278 346 311 q 239 188 239 244 q 262 132 239 150 q 318 114 285 114 q 428 164 381 114 l 428 319 m 231 1043 q 296 1012 269 1043 q 322 938 322 981 q 294 864 322 894 q 229 833 267 833 q 165 864 192 833 q 138 938 138 894 q 165 1012 138 981 q 231 1043 193 1043 m 472 1043 q 538 1012 511 1043 q 564 938 564 981 q 536 864 564 894 q 471 833 508 833 q 406 864 433 833 q 379 938 379 894 q 407 1012 379 981 q 472 1043 435 1043 z "},"ạ":{"ha":728,"x_min":42,"x_max":706,"o":"m 365 717 q 622 451 622 717 l 621 224 q 615 101 621 157 q 706 106 661 106 l 706 0 l 443 0 q 438 64 440 18 l 436 64 q 231 -22 351 -22 q 92 30 143 -22 q 42 163 42 82 q 156 348 42 285 q 429 418 269 411 l 429 490 q 335 617 429 617 q 235 578 274 617 q 251 525 251 558 q 228 465 251 492 q 161 439 206 439 q 96 466 119 439 q 72 533 72 493 q 111 629 72 588 q 217 694 150 671 q 365 717 285 717 m 428 319 q 292 278 346 311 q 239 188 239 244 q 262 132 239 150 q 318 114 285 114 q 428 164 381 114 l 428 319 m 365 -86 q 424 -112 400 -86 q 447 -176 447 -139 q 425 -240 447 -214 q 367 -265 403 -265 q 305 -240 329 -265 q 281 -176 281 -214 q 306 -112 281 -139 q 365 -86 331 -86 z "},"à":{"ha":728,"x_min":42,"x_max":706,"o":"m 365 717 q 622 451 622 717 l 621 224 q 615 101 621 157 q 706 106 661 106 l 706 0 l 443 0 q 438 64 440 18 l 436 64 q 231 -22 351 -22 q 92 30 143 -22 q 42 163 42 82 q 156 348 42 285 q 429 418 269 411 l 429 490 q 335 617 429 617 q 235 578 274 617 q 251 525 251 558 q 228 465 251 492 q 161 439 206 439 q 96 466 119 439 q 72 533 72 493 q 111 629 72 588 q 217 694 150 671 q 365 717 285 717 m 428 319 q 292 278 346 311 q 239 188 239 244 q 262 132 239 150 q 318 114 285 114 q 428 164 381 114 l 428 319 m 242 1069 q 289 1086 263 1086 q 335 1072 313 1086 q 371 1036 357 1058 l 485 842 l 421 785 l 253 932 q 226 969 236 949 q 215 1011 215 990 q 242 1069 215 1044 z "},"ả":{"ha":728,"x_min":42,"x_max":706,"o":"m 365 717 q 622 451 622 717 l 621 224 q 615 101 621 157 q 706 106 661 106 l 706 0 l 443 0 q 438 64 440 18 l 436 64 q 231 -22 351 -22 q 92 30 143 -22 q 42 163 42 82 q 156 348 42 285 q 429 418 269 411 l 429 490 q 335 617 429 617 q 235 578 274 617 q 251 525 251 558 q 228 465 251 492 q 161 439 206 439 q 96 466 119 439 q 72 533 72 493 q 111 629 72 588 q 217 694 150 671 q 365 717 285 717 m 428 319 q 292 278 346 311 q 239 188 239 244 q 262 132 239 150 q 318 114 285 114 q 428 164 381 114 l 428 319 m 331 1038 q 457 1002 411 1038 q 503 904 503 967 q 490 861 503 878 q 451 825 476 844 q 422 799 431 808 q 414 776 414 790 l 322 776 q 332 806 322 794 q 360 833 342 818 q 389 863 379 850 q 399 896 399 876 q 384 939 399 924 q 331 954 369 954 q 286 943 301 954 q 268 917 271 932 q 277 906 275 913 q 279 888 279 900 q 266 865 279 875 q 224 856 253 856 q 184 870 196 856 q 172 913 172 885 q 210 999 172 960 q 331 1038 249 1038 z "},"ā":{"ha":728,"x_min":42,"x_max":706,"o":"m 365 717 q 622 451 622 717 l 621 224 q 615 101 621 157 q 706 106 661 106 l 706 0 l 443 0 q 438 64 440 18 l 436 64 q 231 -22 351 -22 q 92 30 143 -22 q 42 163 42 82 q 156 348 42 285 q 429 418 269 411 l 429 490 q 335 617 429 617 q 235 578 274 617 q 251 525 251 558 q 228 465 251 492 q 161 439 206 439 q 96 466 119 439 q 72 533 72 493 q 111 629 72 588 q 217 694 150 671 q 365 717 285 717 m 428 319 q 292 278 346 311 q 239 188 239 244 q 262 132 239 150 q 318 114 285 114 q 428 164 381 114 l 428 319 m 547 1004 l 547 876 l 153 871 l 153 1004 l 547 1004 z "},"ą":{"ha":728,"x_min":42,"x_max":706,"o":"m 642 0 q 526 -78 574 -31 q 478 -176 478 -126 q 494 -220 478 -204 q 539 -236 510 -236 q 625 -196 581 -236 l 674 -256 q 588 -333 636 -304 q 490 -362 539 -362 q 381 -326 422 -362 q 340 -219 340 -289 q 383 -101 340 -158 q 499 0 426 -44 l 443 0 q 438 64 440 18 l 436 64 q 231 -22 351 -22 q 92 30 143 -22 q 42 163 42 82 q 156 348 42 285 q 429 418 269 411 l 429 490 q 335 617 429 617 q 235 578 274 617 q 251 525 251 558 q 228 465 251 492 q 161 439 206 439 q 96 466 119 439 q 72 533 72 493 q 111 629 72 588 q 217 694 150 671 q 365 717 285 717 q 622 451 622 717 l 621 224 q 615 101 621 157 q 706 106 661 106 l 706 0 l 642 0 m 428 319 q 292 278 346 311 q 239 188 239 244 q 262 132 239 150 q 318 114 285 114 q 428 164 381 114 l 428 319 z "},"å":{"ha":728,"x_min":42,"x_max":706,"o":"m 365 717 q 622 451 622 717 l 621 224 q 615 101 621 157 q 706 106 661 106 l 706 0 l 443 0 q 438 64 440 18 l 436 64 q 231 -22 351 -22 q 92 30 143 -22 q 42 163 42 82 q 156 348 42 285 q 429 418 269 411 l 429 490 q 335 617 429 617 q 235 578 274 617 q 251 525 251 558 q 228 465 251 492 q 161 439 206 439 q 96 466 119 439 q 72 533 72 493 q 111 629 72 588 q 217 694 150 671 q 365 717 285 717 m 428 319 q 292 278 346 311 q 239 188 239 244 q 262 132 239 150 q 318 114 285 114 q 428 164 381 114 l 428 319 m 350 1104 q 465 1063 415 1104 q 514 946 514 1022 q 490 860 514 897 q 429 803 467 824 q 351 782 392 782 q 273 801 311 782 q 210 856 235 819 q 186 942 186 893 q 209 1024 186 988 q 269 1083 232 1061 q 350 1104 307 1104 m 349 1021 q 315 1003 329 1019 q 301 954 301 986 q 317 889 301 911 q 358 867 332 867 q 391 885 378 868 q 404 933 404 903 q 389 999 404 978 q 349 1021 374 1021 z "},"ã":{"ha":728,"x_min":42,"x_max":706,"o":"m 365 717 q 622 451 622 717 l 621 224 q 615 101 621 157 q 706 106 661 106 l 706 0 l 443 0 q 438 64 440 18 l 436 64 q 231 -22 351 -22 q 92 30 143 -22 q 42 163 42 82 q 156 348 42 285 q 429 418 269 411 l 429 490 q 335 617 429 617 q 235 578 274 617 q 251 525 251 558 q 228 465 251 492 q 161 439 206 439 q 96 466 119 439 q 72 533 72 493 q 111 629 72 588 q 217 694 150 671 q 365 717 285 717 m 428 319 q 292 278 346 311 q 239 188 239 244 q 262 132 239 150 q 318 114 285 114 q 428 164 381 114 l 428 319 m 599 1006 q 525 884 571 925 q 433 843 479 843 q 385 851 407 843 q 336 874 364 858 q 298 892 313 886 q 265 897 283 897 q 222 884 244 897 q 179 840 199 871 l 101 886 q 170 989 124 949 q 264 1029 217 1029 q 315 1022 294 1029 q 360 1000 336 1014 q 397 982 381 988 q 433 976 413 976 q 479 994 457 976 q 519 1046 501 1013 l 599 1006 z "},"æ":{"ha":1069,"x_min":40,"x_max":1042,"o":"m 763 717 q 886 681 829 715 q 979 570 943 647 q 1014 374 1015 493 l 621 365 q 658 170 621 239 q 789 101 694 101 q 886 126 836 101 q 981 206 936 151 l 1042 147 q 899 14 975 50 q 738 -22 822 -22 q 514 94 601 -22 q 385 3 456 28 q 232 -22 314 -22 q 92 30 144 -22 q 40 163 40 82 q 155 348 40 285 q 429 418 269 411 l 429 493 q 407 584 429 550 q 339 618 385 618 q 233 581 269 618 q 251 525 251 563 q 228 466 251 493 q 160 439 204 439 q 95 466 119 439 q 71 533 71 493 q 108 626 71 585 q 210 692 144 668 q 354 717 275 717 q 542 600 510 717 l 543 600 q 632 690 582 664 q 763 717 682 717 m 739 618 q 629 463 642 618 l 831 463 q 803 581 829 543 q 739 618 776 618 m 429 319 q 292 278 347 311 q 238 190 238 244 q 263 133 238 153 q 321 114 288 114 q 383 128 353 114 q 435 167 413 142 q 429 319 429 238 z "},"b":{"ha":796,"x_min":-6,"x_max":751,"o":"m 283 642 q 471 717 368 717 q 617 674 554 717 q 716 551 681 631 q 751 365 751 471 q 710 165 751 253 q 593 28 669 78 q 414 -22 517 -22 q 310 -3 365 -22 q 213 61 256 15 l 211 61 l 171 0 l 88 0 l 88 785 q 92 906 88 865 l -6 901 l -6 1007 q 136 1019 82 1007 q 208 1049 190 1032 l 283 1049 l 283 642 m 400 592 q 334 576 365 592 q 283 532 303 560 l 283 208 q 315 110 283 140 q 390 79 346 79 q 510 154 474 79 q 547 344 547 229 q 510 519 547 447 q 400 592 474 592 z "},"c":{"ha":719,"x_min":43,"x_max":701,"o":"m 404 717 q 549 690 489 717 q 640 620 610 664 q 671 526 671 576 q 645 453 671 483 q 575 422 619 422 q 506 450 529 422 q 483 513 483 478 q 500 574 483 544 q 460 609 488 599 q 404 619 432 619 q 290 555 333 619 q 246 372 246 490 q 292 178 246 254 q 436 101 338 101 q 546 131 492 101 q 638 208 600 160 l 701 146 q 553 14 632 50 q 385 -22 474 -22 q 213 20 290 -22 q 89 142 135 63 q 43 332 43 222 q 89 524 43 436 q 217 665 135 613 q 404 717 300 717 z "},"ć":{"ha":719,"x_min":43,"x_max":701,"o":"m 404 717 q 549 690 489 717 q 640 620 610 664 q 671 526 671 576 q 645 453 671 483 q 575 422 619 422 q 506 450 529 422 q 483 513 483 478 q 500 574 483 544 q 460 609 488 599 q 404 619 432 619 q 290 555 333 619 q 246 372 246 490 q 292 178 246 254 q 436 101 338 101 q 546 131 492 101 q 638 208 600 160 l 701 146 q 553 14 632 50 q 385 -22 474 -22 q 213 20 290 -22 q 89 142 135 63 q 43 332 43 222 q 89 524 43 436 q 217 665 135 613 q 404 717 300 717 m 526 1069 q 551 1013 551 1046 q 541 969 551 992 q 514 932 531 947 l 346 785 l 282 842 l 396 1036 q 433 1073 411 1060 q 479 1086 456 1086 q 526 1069 504 1086 z "},"č":{"ha":719,"x_min":43,"x_max":701,"o":"m 404 717 q 549 690 489 717 q 640 620 610 664 q 671 526 671 576 q 645 453 671 483 q 575 422 619 422 q 506 450 529 422 q 483 513 483 478 q 500 574 483 544 q 460 609 488 599 q 404 619 432 619 q 290 555 333 619 q 246 372 246 490 q 292 178 246 254 q 436 101 338 101 q 546 131 492 101 q 638 208 600 160 l 701 146 q 553 14 632 50 q 385 -22 474 -22 q 213 20 290 -22 q 89 142 135 63 q 43 332 43 222 q 89 524 43 436 q 217 665 135 613 q 404 717 300 717 m 590 1079 l 649 1013 l 422 774 l 407 774 l 182 1008 l 242 1079 l 421 933 l 422 933 l 590 1079 z "},"ç":{"ha":719,"x_min":43,"x_max":701,"o":"m 557 -74 q 631 -99 603 -75 q 658 -171 658 -124 q 561 -299 658 -256 q 343 -360 464 -343 l 332 -287 q 448 -256 397 -275 q 499 -200 499 -236 q 488 -174 499 -182 q 460 -165 476 -165 q 431 -171 446 -165 q 404 -185 415 -176 l 353 -162 l 388 -22 l 385 -22 q 213 20 290 -22 q 89 142 135 63 q 43 332 43 222 q 89 524 43 436 q 217 665 135 613 q 404 717 300 717 q 549 690 489 717 q 640 620 610 664 q 671 526 671 576 q 645 453 671 483 q 575 422 619 422 q 506 450 529 422 q 483 513 483 478 q 500 574 483 544 q 460 609 488 599 q 404 619 432 619 q 290 555 333 619 q 246 372 246 490 q 292 178 246 254 q 436 101 338 101 q 546 131 492 101 q 638 208 600 160 l 701 146 q 493 -8 611 24 l 461 -96 l 463 -96 q 508 -81 479 -87 q 557 -74 538 -74 z "},"ĉ":{"ha":719,"x_min":43,"x_max":701,"o":"m 404 717 q 549 690 489 717 q 640 620 610 664 q 671 526 671 576 q 645 453 671 483 q 575 422 619 422 q 506 450 529 422 q 483 513 483 478 q 500 574 483 544 q 460 609 488 599 q 404 619 432 619 q 290 555 333 619 q 246 372 246 490 q 292 178 246 254 q 436 101 338 101 q 546 131 492 101 q 638 208 600 160 l 701 146 q 553 14 632 50 q 385 -22 474 -22 q 213 20 290 -22 q 89 142 135 63 q 43 332 43 222 q 89 524 43 436 q 217 665 135 613 q 404 717 300 717 m 431 1088 l 653 851 l 593 781 l 417 926 l 415 926 l 238 790 l 179 857 l 417 1088 l 431 1088 z "},"d":{"ha":828,"x_min":44,"x_max":793,"o":"m 708 224 q 703 101 708 157 q 793 106 749 106 l 793 0 l 529 0 l 522 64 l 521 64 q 325 -22 439 -22 q 178 21 242 -22 q 80 144 115 64 q 44 329 44 224 q 88 528 44 440 q 209 667 131 617 q 389 717 288 717 q 513 692 443 717 l 513 783 q 518 906 513 850 q 419 901 472 901 l 419 1007 q 561 1019 507 1007 q 633 1049 615 1032 l 708 1049 l 708 224 m 414 614 q 287 538 325 613 q 249 350 249 463 q 285 177 249 250 q 397 104 322 104 q 463 122 432 104 q 513 171 493 140 l 513 588 q 469 606 497 599 q 414 614 442 614 z "},"ð":{"ha":753,"x_min":46,"x_max":689,"o":"m 463 1025 l 404 956 q 612 715 535 867 q 689 375 689 563 q 652 174 689 264 q 542 31 615 83 q 364 -22 469 -22 q 199 18 271 -22 q 87 137 128 58 q 46 324 46 215 q 82 499 46 415 q 190 636 118 583 q 363 689 261 689 q 485 649 438 689 l 486 649 q 424 762 472 701 q 328 854 375 822 l 247 756 l 164 831 l 232 910 q 104 954 179 939 l 124 1056 q 311 1004 226 1044 l 382 1097 l 463 1025 m 375 579 q 275 510 313 579 q 238 343 238 440 q 276 163 238 229 q 374 96 315 96 q 471 158 432 96 q 510 332 510 219 q 476 503 510 428 q 375 579 443 579 z "},"ď":{"ha":961,"x_min":44,"x_max":975,"o":"m 956 1067 q 975 997 975 1028 q 940 872 975 936 q 849 754 904 808 l 794 794 q 849 981 849 893 q 832 1090 849 1028 l 956 1067 m 708 224 q 703 101 708 157 q 793 106 749 106 l 793 0 l 529 0 l 522 64 l 521 64 q 325 -22 439 -22 q 178 21 242 -22 q 80 144 115 64 q 44 329 44 224 q 88 528 44 440 q 209 667 131 617 q 389 717 288 717 q 513 692 443 717 l 513 783 q 518 906 513 850 q 419 901 472 901 l 419 1007 q 561 1019 507 1007 q 633 1049 615 1032 l 708 1049 l 708 224 m 414 614 q 287 538 325 613 q 249 350 249 463 q 285 177 249 250 q 397 104 322 104 q 463 122 432 104 q 513 171 493 140 l 513 588 q 469 606 497 599 q 414 614 442 614 z "},"đ":{"ha":828,"x_min":44,"x_max":814,"o":"m 708 224 q 703 101 708 157 q 793 106 749 106 l 793 0 l 529 0 l 522 64 l 521 64 q 325 -22 439 -22 q 179 19 243 -22 q 80 131 115 60 q 44 289 44 203 q 88 474 44 392 q 209 602 131 556 q 389 649 288 649 q 513 624 443 649 l 513 729 l 285 726 l 285 835 l 514 835 q 518 906 514 872 q 419 901 472 901 l 419 1007 q 561 1019 507 1007 q 633 1049 615 1032 l 708 1049 l 708 835 l 814 835 l 814 732 l 708 731 l 708 224 m 513 521 q 469 538 497 531 q 414 546 442 546 q 291 478 333 546 q 249 310 249 411 q 285 159 249 214 q 397 104 321 104 q 463 122 432 104 q 513 171 493 140 l 513 521 z "},"e":{"ha":747,"x_min":43,"x_max":710,"o":"m 390 717 q 615 638 525 717 q 703 374 704 558 l 247 365 q 294 172 247 243 q 443 101 340 101 q 547 126 492 101 q 647 206 603 151 l 710 147 q 386 -22 592 -22 q 207 23 285 -22 q 86 151 129 68 q 43 346 43 235 q 87 528 43 443 q 210 665 131 614 q 390 717 289 717 m 397 619 q 302 577 338 619 q 256 463 267 535 l 511 463 q 397 619 507 619 z "},"é":{"ha":747,"x_min":43,"x_max":710,"o":"m 390 717 q 615 638 525 717 q 703 374 704 558 l 247 365 q 294 172 247 243 q 443 101 340 101 q 547 126 492 101 q 647 206 603 151 l 710 147 q 386 -22 592 -22 q 207 23 285 -22 q 86 151 129 68 q 43 346 43 235 q 87 528 43 443 q 210 665 131 614 q 390 717 289 717 m 397 619 q 302 577 338 619 q 256 463 267 535 l 511 463 q 397 619 507 619 m 504 1069 q 529 1013 529 1046 q 519 969 529 992 q 492 932 508 947 l 324 785 l 260 842 l 374 1036 q 411 1073 389 1060 q 457 1086 433 1086 q 504 1069 482 1086 z "},"ě":{"ha":747,"x_min":43,"x_max":710,"o":"m 390 717 q 615 638 525 717 q 703 374 704 558 l 247 365 q 294 172 247 243 q 443 101 340 101 q 547 126 492 101 q 647 206 603 151 l 710 147 q 386 -22 592 -22 q 207 23 285 -22 q 86 151 129 68 q 43 346 43 235 q 87 528 43 443 q 210 665 131 614 q 390 717 289 717 m 397 619 q 302 577 338 619 q 256 463 267 535 l 511 463 q 397 619 507 619 m 568 1079 l 626 1013 l 400 774 l 385 774 l 160 1008 l 219 1079 l 399 933 l 400 933 l 568 1079 z "},"ê":{"ha":747,"x_min":43,"x_max":710,"o":"m 390 717 q 615 638 525 717 q 703 374 704 558 l 247 365 q 294 172 247 243 q 443 101 340 101 q 547 126 492 101 q 647 206 603 151 l 710 147 q 386 -22 592 -22 q 207 23 285 -22 q 86 151 129 68 q 43 346 43 235 q 87 528 43 443 q 210 665 131 614 q 390 717 289 717 m 397 619 q 302 577 338 619 q 256 463 267 535 l 511 463 q 397 619 507 619 m 408 1088 l 631 851 l 571 781 l 394 926 l 393 926 l 215 790 l 157 857 l 394 1088 l 408 1088 z "},"ế":{"ha":747,"x_min":43,"x_max":843,"o":"m 818 1188 q 843 1131 843 1164 q 833 1088 843 1110 q 806 1050 822 1065 l 638 903 l 574 960 l 688 1154 q 725 1191 703 1178 q 771 1204 747 1204 q 818 1188 796 1204 m 411 1006 l 635 833 l 600 781 l 394 881 l 186 782 l 154 833 l 389 1006 l 411 1006 m 390 717 q 615 638 525 717 q 703 374 704 558 l 247 365 q 294 172 247 243 q 443 101 340 101 q 547 126 492 101 q 647 206 603 151 l 710 147 q 386 -22 592 -22 q 207 23 285 -22 q 86 151 129 68 q 43 346 43 235 q 87 528 43 443 q 210 665 131 614 q 390 717 289 717 m 397 619 q 302 577 338 619 q 256 463 267 535 l 511 463 q 397 619 507 619 z "},"ệ":{"ha":747,"x_min":43,"x_max":710,"o":"m 390 717 q 615 638 525 717 q 703 374 704 558 l 247 365 q 294 172 247 243 q 443 101 340 101 q 547 126 492 101 q 647 206 603 151 l 710 147 q 386 -22 592 -22 q 207 23 285 -22 q 86 151 129 68 q 43 346 43 235 q 87 528 43 443 q 210 665 131 614 q 390 717 289 717 m 397 619 q 302 577 338 619 q 256 463 267 535 l 511 463 q 397 619 507 619 m 469 -86 q 528 -112 504 -86 q 551 -176 551 -139 q 529 -240 551 -214 q 471 -265 507 -265 q 409 -240 433 -265 q 385 -176 385 -214 q 410 -112 385 -139 q 469 -86 435 -86 m 408 1088 l 631 851 l 571 781 l 394 926 l 393 926 l 215 790 l 157 857 l 394 1088 l 408 1088 z "},"ề":{"ha":747,"x_min":43,"x_max":710,"o":"m 428 1247 q 475 1264 449 1264 q 521 1250 499 1264 q 557 1214 543 1236 l 671 1019 l 607 963 l 439 1110 q 412 1147 422 1126 q 401 1189 401 1168 q 428 1247 401 1222 m 411 1006 l 635 833 l 600 781 l 394 881 l 186 782 l 154 833 l 389 1006 l 411 1006 m 390 717 q 615 638 525 717 q 703 374 704 558 l 247 365 q 294 172 247 243 q 443 101 340 101 q 547 126 492 101 q 647 206 603 151 l 710 147 q 386 -22 592 -22 q 207 23 285 -22 q 86 151 129 68 q 43 346 43 235 q 87 528 43 443 q 210 665 131 614 q 390 717 289 717 m 397 619 q 302 577 338 619 q 256 463 267 535 l 511 463 q 397 619 507 619 z "},"ể":{"ha":747,"x_min":43,"x_max":744,"o":"m 572 1236 q 699 1201 653 1236 q 744 1103 744 1165 q 731 1060 744 1076 q 693 1024 718 1043 q 664 998 672 1007 q 656 975 656 989 l 564 975 q 574 1005 564 993 q 601 1032 583 1017 q 631 1062 621 1049 q 640 1094 640 1075 q 626 1138 640 1122 q 572 1153 611 1153 q 528 1142 543 1153 q 510 1115 513 1131 q 519 1105 517 1111 q 521 1086 521 1099 q 508 1064 521 1074 q 465 1054 494 1054 q 426 1069 438 1054 q 414 1111 414 1083 q 452 1197 414 1158 q 572 1236 490 1236 m 411 1006 l 635 833 l 600 781 l 394 881 l 186 782 l 154 833 l 389 1006 l 411 1006 m 390 717 q 615 638 525 717 q 703 374 704 558 l 247 365 q 294 172 247 243 q 443 101 340 101 q 547 126 492 101 q 647 206 603 151 l 710 147 q 386 -22 592 -22 q 207 23 285 -22 q 86 151 129 68 q 43 346 43 235 q 87 528 43 443 q 210 665 131 614 q 390 717 289 717 m 397 619 q 302 577 338 619 q 256 463 267 535 l 511 463 q 397 619 507 619 z "},"ễ":{"ha":747,"x_min":43,"x_max":710,"o":"m 678 1189 q 604 1067 650 1108 q 513 1026 558 1026 q 465 1034 486 1026 q 415 1057 443 1042 q 377 1075 392 1069 q 344 1081 363 1081 q 301 1067 324 1081 q 258 1024 278 1054 l 181 1069 q 249 1172 203 1132 q 343 1213 296 1213 q 394 1205 374 1213 q 439 1183 415 1197 q 476 1165 460 1171 q 513 1160 492 1160 q 558 1178 536 1160 q 599 1229 581 1196 l 678 1189 m 411 1006 l 635 833 l 600 781 l 394 881 l 186 782 l 154 833 l 389 1006 l 411 1006 m 390 717 q 615 638 525 717 q 703 374 704 558 l 247 365 q 294 172 247 243 q 443 101 340 101 q 547 126 492 101 q 647 206 603 151 l 710 147 q 386 -22 592 -22 q 207 23 285 -22 q 86 151 129 68 q 43 346 43 235 q 87 528 43 443 q 210 665 131 614 q 390 717 289 717 m 397 619 q 302 577 338 619 q 256 463 267 535 l 511 463 q 397 619 507 619 z "},"ë":{"ha":747,"x_min":43,"x_max":710,"o":"m 390 717 q 615 638 525 717 q 703 374 704 558 l 247 365 q 294 172 247 243 q 443 101 340 101 q 547 126 492 101 q 647 206 603 151 l 710 147 q 386 -22 592 -22 q 207 23 285 -22 q 86 151 129 68 q 43 346 43 235 q 87 528 43 443 q 210 665 131 614 q 390 717 289 717 m 397 619 q 302 577 338 619 q 256 463 267 535 l 511 463 q 397 619 507 619 m 275 1043 q 340 1012 314 1043 q 367 938 367 981 q 339 864 367 894 q 274 833 311 833 q 209 864 236 833 q 182 938 182 894 q 210 1012 182 981 q 275 1043 238 1043 m 517 1043 q 582 1012 556 1043 q 608 938 608 981 q 581 864 608 894 q 515 833 553 833 q 451 864 478 833 q 424 938 424 894 q 451 1012 424 981 q 517 1043 479 1043 z "},"ė":{"ha":747,"x_min":43,"x_max":710,"o":"m 390 717 q 615 638 525 717 q 703 374 704 558 l 247 365 q 294 172 247 243 q 443 101 340 101 q 547 126 492 101 q 647 206 603 151 l 710 147 q 386 -22 592 -22 q 207 23 285 -22 q 86 151 129 68 q 43 346 43 235 q 87 528 43 443 q 210 665 131 614 q 390 717 289 717 m 397 619 q 302 577 338 619 q 256 463 267 535 l 511 463 q 397 619 507 619 m 396 1046 q 470 1013 440 1046 q 500 932 500 979 q 472 851 500 883 q 397 818 443 818 q 319 851 350 818 q 289 932 289 885 q 321 1013 289 979 q 396 1046 353 1046 z "},"ẹ":{"ha":747,"x_min":43,"x_max":710,"o":"m 390 717 q 615 638 525 717 q 703 374 704 558 l 247 365 q 294 172 247 243 q 443 101 340 101 q 547 126 492 101 q 647 206 603 151 l 710 147 q 386 -22 592 -22 q 207 23 285 -22 q 86 151 129 68 q 43 346 43 235 q 87 528 43 443 q 210 665 131 614 q 390 717 289 717 m 397 619 q 302 577 338 619 q 256 463 267 535 l 511 463 q 397 619 507 619 m 469 -86 q 528 -112 504 -86 q 551 -176 551 -139 q 529 -240 551 -214 q 471 -265 507 -265 q 409 -240 433 -265 q 385 -176 385 -214 q 410 -112 385 -139 q 469 -86 435 -86 z "},"è":{"ha":747,"x_min":43,"x_max":710,"o":"m 390 717 q 615 638 525 717 q 703 374 704 558 l 247 365 q 294 172 247 243 q 443 101 340 101 q 547 126 492 101 q 647 206 603 151 l 710 147 q 386 -22 592 -22 q 207 23 285 -22 q 86 151 129 68 q 43 346 43 235 q 87 528 43 443 q 210 665 131 614 q 390 717 289 717 m 397 619 q 302 577 338 619 q 256 463 267 535 l 511 463 q 397 619 507 619 m 286 1069 q 333 1086 307 1086 q 379 1072 357 1086 q 415 1036 401 1058 l 529 842 l 465 785 l 297 932 q 270 969 281 949 q 260 1011 260 990 q 286 1069 260 1044 z "},"ẻ":{"ha":747,"x_min":43,"x_max":710,"o":"m 390 717 q 615 638 525 717 q 703 374 704 558 l 247 365 q 294 172 247 243 q 443 101 340 101 q 547 126 492 101 q 647 206 603 151 l 710 147 q 386 -22 592 -22 q 207 23 285 -22 q 86 151 129 68 q 43 346 43 235 q 87 528 43 443 q 210 665 131 614 q 390 717 289 717 m 397 619 q 302 577 338 619 q 256 463 267 535 l 511 463 q 397 619 507 619 m 375 1038 q 501 1002 456 1038 q 547 904 547 967 q 534 861 547 878 q 496 825 521 844 q 467 799 475 808 q 458 776 458 790 l 367 776 q 376 806 367 794 q 404 833 386 818 q 433 863 424 850 q 443 896 443 876 q 428 939 443 924 q 375 954 414 954 q 331 943 346 954 q 313 917 315 932 q 322 906 319 913 q 324 888 324 900 q 310 865 324 875 q 268 856 297 856 q 228 870 240 856 q 217 913 217 885 q 255 999 217 960 q 375 1038 293 1038 z "},"ē":{"ha":747,"x_min":43,"x_max":710,"o":"m 390 717 q 615 638 525 717 q 703 374 704 558 l 247 365 q 294 172 247 243 q 443 101 340 101 q 547 126 492 101 q 647 206 603 151 l 710 147 q 386 -22 592 -22 q 207 23 285 -22 q 86 151 129 68 q 43 346 43 235 q 87 528 43 443 q 210 665 131 614 q 390 717 289 717 m 397 619 q 302 577 338 619 q 256 463 267 535 l 511 463 q 397 619 507 619 m 592 1004 l 592 876 l 197 871 l 197 1004 l 592 1004 z "},"ę":{"ha":747,"x_min":43,"x_max":710,"o":"m 546 6 q 422 -74 474 -25 q 369 -178 369 -124 q 385 -220 369 -204 q 431 -236 401 -236 q 517 -196 472 -236 l 565 -256 q 479 -333 528 -304 q 382 -362 431 -362 q 273 -326 314 -362 q 232 -219 232 -289 q 266 -115 232 -165 q 358 -21 300 -64 q 193 32 264 -15 q 83 160 122 79 q 43 346 43 240 q 87 528 43 443 q 210 665 131 614 q 390 717 289 717 q 615 638 525 717 q 703 374 704 558 l 247 365 q 294 172 247 243 q 443 101 340 101 q 547 126 492 101 q 647 206 603 151 l 710 147 q 546 8 642 50 l 546 6 m 397 619 q 302 577 338 619 q 256 463 267 535 l 511 463 q 397 619 507 619 z "},"ẽ":{"ha":747,"x_min":43,"x_max":710,"o":"m 390 717 q 615 638 525 717 q 703 374 704 558 l 247 365 q 294 172 247 243 q 443 101 340 101 q 547 126 492 101 q 647 206 603 151 l 710 147 q 386 -22 592 -22 q 207 23 285 -22 q 86 151 129 68 q 43 346 43 235 q 87 528 43 443 q 210 665 131 614 q 390 717 289 717 m 397 619 q 302 577 338 619 q 256 463 267 535 l 511 463 q 397 619 507 619 m 643 1006 q 569 884 615 925 q 478 843 524 843 q 430 851 451 843 q 381 874 408 858 q 342 892 357 886 q 310 897 328 897 q 266 884 289 897 q 224 840 243 871 l 146 886 q 215 989 168 949 q 308 1029 261 1029 q 360 1022 339 1029 q 404 1000 381 1014 q 441 982 425 988 q 478 976 457 976 q 524 994 501 976 q 564 1046 546 1013 l 643 1006 z "},"f":{"ha":513,"x_min":42,"x_max":592,"o":"m 415 1049 q 549 1013 506 1049 q 592 926 592 976 q 568 860 592 888 q 503 833 544 833 q 442 856 464 833 q 421 913 421 878 q 424 940 421 931 q 392 951 413 951 q 336 865 336 950 l 336 694 l 492 694 l 492 588 l 338 583 l 339 226 q 333 101 339 157 q 431 106 379 106 l 431 0 l 60 0 l 60 90 q 128 119 113 90 q 143 214 143 149 l 143 581 l 42 579 l 42 694 l 143 694 l 143 735 q 214 973 143 897 q 415 1049 285 1049 z "},"g":{"ha":774,"x_min":39,"x_max":814,"o":"m 718 842 q 789 818 764 842 q 814 753 814 794 q 794 694 814 721 q 731 668 774 668 q 687 684 708 668 q 661 722 665 700 q 625 687 643 717 q 604 632 607 657 q 665 551 643 597 q 686 453 686 506 q 642 312 686 375 q 525 213 597 249 q 371 178 453 178 l 332 179 q 288 182 301 182 q 236 171 257 182 q 215 140 215 160 q 253 105 215 115 q 393 89 292 94 q 658 31 568 79 q 749 -132 749 -18 q 691 -262 749 -207 q 542 -347 633 -318 q 356 -376 451 -376 q 113 -325 188 -376 q 39 -194 39 -274 q 70 -103 39 -146 q 171 -35 101 -61 q 92 13 117 -19 q 68 88 68 44 q 101 172 68 129 q 203 236 133 215 l 203 238 q 103 316 140 263 q 67 443 67 369 q 110 583 67 521 q 226 681 154 646 q 376 717 297 717 q 464 706 418 717 q 542 674 510 696 q 613 794 568 746 q 718 842 657 842 m 375 624 q 290 575 322 624 q 258 460 258 526 q 290 326 258 382 q 376 271 322 271 q 460 318 429 271 q 492 428 492 365 q 461 565 492 507 q 375 624 431 624 m 254 -67 q 222 -110 233 -83 q 210 -162 210 -136 q 260 -249 210 -217 q 396 -281 311 -281 q 503 -264 458 -281 q 572 -222 549 -247 q 596 -169 596 -196 q 547 -104 596 -126 q 396 -78 497 -82 q 360 -76 385 -76 q 311 -73 346 -75 q 254 -67 276 -71 z "},"ğ":{"ha":774,"x_min":39,"x_max":814,"o":"m 718 842 q 789 818 764 842 q 814 753 814 794 q 794 694 814 721 q 731 668 774 668 q 687 684 708 668 q 661 722 665 700 q 625 687 643 717 q 604 632 607 657 q 665 551 643 597 q 686 453 686 506 q 642 312 686 375 q 525 213 597 249 q 371 178 453 178 l 332 179 q 288 182 301 182 q 236 171 257 182 q 215 140 215 160 q 253 105 215 115 q 393 89 292 94 q 658 31 568 79 q 749 -132 749 -18 q 691 -262 749 -207 q 542 -347 633 -318 q 356 -376 451 -376 q 113 -325 188 -376 q 39 -194 39 -274 q 70 -103 39 -146 q 171 -35 101 -61 q 92 13 117 -19 q 68 88 68 44 q 101 172 68 129 q 203 236 133 215 l 203 238 q 103 316 140 263 q 67 443 67 369 q 110 583 67 521 q 226 681 154 646 q 376 717 297 717 q 464 706 418 717 q 542 674 510 696 q 613 794 568 746 q 718 842 657 842 m 375 624 q 290 575 322 624 q 258 460 258 526 q 290 326 258 382 q 376 271 322 271 q 460 318 429 271 q 492 428 492 365 q 461 565 492 507 q 375 624 431 624 m 254 -67 q 222 -110 233 -83 q 210 -162 210 -136 q 260 -249 210 -217 q 396 -281 311 -281 q 503 -264 458 -281 q 572 -222 549 -247 q 596 -169 596 -196 q 547 -104 596 -126 q 396 -78 497 -82 q 360 -76 385 -76 q 311 -73 346 -75 q 254 -67 276 -71 m 585 1021 q 363 833 517 833 q 236 877 296 833 q 146 1014 176 921 l 236 1060 q 293 988 263 1014 q 368 961 324 961 q 441 988 411 961 q 494 1061 471 1015 l 585 1021 z "},"ĝ":{"ha":774,"x_min":39,"x_max":814,"o":"m 379 1088 l 567 890 l 510 821 l 365 926 l 364 926 l 186 790 l 128 857 l 365 1088 l 379 1088 m 718 842 q 789 818 764 842 q 814 753 814 794 q 794 694 814 721 q 731 668 774 668 q 687 684 708 668 q 661 722 665 700 q 625 687 643 717 q 604 632 607 657 q 665 551 643 597 q 686 453 686 506 q 642 312 686 375 q 525 213 597 249 q 371 178 453 178 l 332 179 q 288 182 301 182 q 236 171 257 182 q 215 140 215 160 q 253 105 215 115 q 393 89 292 94 q 658 31 568 79 q 749 -132 749 -18 q 691 -262 749 -207 q 542 -347 633 -318 q 356 -376 451 -376 q 113 -325 188 -376 q 39 -194 39 -274 q 70 -103 39 -146 q 171 -35 101 -61 q 92 13 117 -19 q 68 88 68 44 q 101 172 68 129 q 203 236 133 215 l 203 238 q 103 316 140 263 q 67 443 67 369 q 110 583 67 521 q 226 681 154 646 q 376 717 297 717 q 464 706 418 717 q 542 674 510 696 q 613 794 568 746 q 718 842 657 842 m 375 624 q 290 575 322 624 q 258 460 258 526 q 290 326 258 382 q 376 271 322 271 q 460 318 429 271 q 492 428 492 365 q 461 565 492 507 q 375 624 431 624 m 254 -67 q 222 -110 233 -83 q 210 -162 210 -136 q 260 -249 210 -217 q 396 -281 311 -281 q 503 -264 458 -281 q 572 -222 549 -247 q 596 -169 596 -196 q 547 -104 596 -126 q 396 -78 497 -82 q 360 -76 385 -76 q 311 -73 346 -75 q 254 -67 276 -71 z "},"ģ":{"ha":774,"x_min":39,"x_max":814,"o":"m 293 803 q 264 903 264 851 q 301 1025 264 963 q 401 1147 338 1088 l 464 1099 q 419 1002 433 1046 q 406 915 406 958 q 418 828 406 874 l 293 803 m 718 842 q 789 818 764 842 q 814 753 814 794 q 794 694 814 721 q 731 668 774 668 q 687 684 708 668 q 661 722 665 700 q 625 687 643 717 q 604 632 607 657 q 665 551 643 597 q 686 453 686 506 q 642 312 686 375 q 525 213 597 249 q 371 178 453 178 l 332 179 q 288 182 301 182 q 236 171 257 182 q 215 140 215 160 q 253 105 215 115 q 393 89 292 94 q 658 31 568 79 q 749 -132 749 -18 q 691 -262 749 -207 q 542 -347 633 -318 q 356 -376 451 -376 q 113 -325 188 -376 q 39 -194 39 -274 q 70 -103 39 -146 q 171 -35 101 -61 q 92 13 117 -19 q 68 88 68 44 q 101 172 68 129 q 203 236 133 215 l 203 238 q 103 316 140 263 q 67 443 67 369 q 110 583 67 521 q 226 681 154 646 q 376 717 297 717 q 464 706 418 717 q 542 674 510 696 q 613 794 568 746 q 718 842 657 842 m 375 624 q 290 575 322 624 q 258 460 258 526 q 290 326 258 382 q 376 271 322 271 q 460 318 429 271 q 492 428 492 365 q 461 565 492 507 q 375 624 431 624 m 254 -67 q 222 -110 233 -83 q 210 -162 210 -136 q 260 -249 210 -217 q 396 -281 311 -281 q 503 -264 458 -281 q 572 -222 549 -247 q 596 -169 596 -196 q 547 -104 596 -126 q 396 -78 497 -82 q 360 -76 385 -76 q 311 -73 346 -75 q 254 -67 276 -71 z "},"h":{"ha":863,"x_min":25,"x_max":836,"o":"m 314 639 q 414 694 354 671 q 517 717 474 717 q 696 644 642 717 q 751 410 750 572 l 751 224 q 746 101 751 157 q 836 106 790 106 l 836 0 l 471 0 l 471 90 q 539 119 524 90 q 554 214 554 149 l 553 411 q 526 546 553 503 q 440 589 499 589 q 372 574 407 589 q 314 538 338 560 l 314 224 q 308 101 314 157 q 399 106 354 106 l 399 0 l 35 0 l 35 90 q 90 105 72 90 q 112 144 107 119 q 117 214 117 169 l 117 785 q 122 906 117 851 l 25 901 l 25 1007 q 167 1019 113 1007 q 239 1049 221 1032 l 314 1049 l 314 639 z "},"ĥ":{"ha":863,"x_min":-1,"x_max":836,"o":"m 314 639 q 414 694 354 671 q 517 717 474 717 q 696 644 642 717 q 751 410 750 572 l 751 224 q 746 101 751 157 q 836 106 790 106 l 836 0 l 471 0 l 471 90 q 539 119 524 90 q 554 214 554 149 l 553 411 q 526 546 553 503 q 440 589 499 589 q 372 574 407 589 q 314 538 338 560 l 314 224 q 308 101 314 157 q 399 106 354 106 l 399 0 l 35 0 l 35 90 q 90 105 72 90 q 112 144 107 119 q 117 214 117 169 l 117 785 q 122 906 117 851 l 25 901 l 25 1007 q 167 1019 113 1007 q 239 1049 221 1032 l 314 1049 l 314 639 m 250 1371 l 472 1135 l 413 1064 l 236 1210 l 235 1210 l 57 1074 l -1 1140 l 236 1371 l 250 1371 z "},"i":{"ha":454,"x_min":47,"x_max":421,"o":"m 251 1060 q 326 1026 296 1060 q 356 944 356 993 q 327 864 356 896 q 253 832 299 832 q 175 865 206 832 q 144 944 144 897 q 176 1026 144 992 q 251 1060 208 1060 m 336 224 q 331 101 336 157 q 421 106 375 106 l 421 0 l 57 0 l 57 90 q 124 119 110 90 q 139 214 139 149 l 139 444 q 144 565 139 510 l 47 561 l 47 667 q 189 679 135 667 q 261 708 243 692 l 336 708 l 336 224 z "},"ı":{"ha":454,"x_min":47,"x_max":421,"o":"m 336 224 q 331 101 336 157 q 421 106 375 106 l 421 0 l 57 0 l 57 90 q 124 119 110 90 q 139 214 139 149 l 139 444 q 144 565 139 510 l 47 561 l 47 667 q 189 679 135 667 q 261 708 243 692 l 336 708 l 336 224 z "},"í":{"ha":454,"x_min":47,"x_max":421,"o":"m 336 224 q 331 101 336 157 q 421 106 375 106 l 421 0 l 57 0 l 57 90 q 124 119 110 90 q 139 214 139 149 l 139 444 q 144 565 139 510 l 47 561 l 47 667 q 189 679 135 667 q 261 708 243 692 l 336 708 l 336 224 m 338 1069 q 363 1013 363 1046 q 352 969 363 992 q 325 932 342 947 l 157 785 l 93 842 l 207 1036 q 244 1073 222 1060 q 290 1086 267 1086 q 338 1069 315 1086 z "},"î":{"ha":454,"x_min":6,"x_max":426,"o":"m 231 1088 l 426 851 l 367 781 l 218 919 l 217 919 l 64 790 l 6 857 l 217 1088 l 231 1088 m 336 224 q 331 101 336 157 q 421 106 375 106 l 421 0 l 57 0 l 57 90 q 124 119 110 90 q 139 214 139 149 l 139 444 q 144 565 139 510 l 47 561 l 47 667 q 189 679 135 667 q 261 708 243 692 l 336 708 l 336 224 z "},"ï":{"ha":454,"x_min":29,"x_max":432,"o":"m 117 1043 q 180 1013 156 1043 q 204 938 204 982 q 179 863 204 893 q 117 833 154 833 q 54 863 79 833 q 29 938 29 893 q 55 1012 29 981 q 117 1043 81 1043 m 346 1043 q 408 1013 385 1043 q 432 938 432 982 q 407 863 432 893 q 344 833 382 833 q 282 863 307 833 q 257 938 257 893 q 283 1012 257 981 q 346 1043 308 1043 m 336 224 q 331 101 336 157 q 421 106 375 106 l 421 0 l 57 0 l 57 90 q 124 119 110 90 q 139 214 139 149 l 139 444 q 144 565 139 510 l 47 561 l 47 667 q 189 679 135 667 q 261 708 243 692 l 336 708 l 336 224 z "},"ị":{"ha":454,"x_min":47,"x_max":421,"o":"m 251 1060 q 326 1026 296 1060 q 356 944 356 993 q 327 864 356 896 q 253 832 299 832 q 175 865 206 832 q 144 944 144 897 q 176 1026 144 992 q 251 1060 208 1060 m 336 224 q 331 101 336 157 q 421 106 375 106 l 421 0 l 57 0 l 57 90 q 124 119 110 90 q 139 214 139 149 l 139 444 q 144 565 139 510 l 47 561 l 47 667 q 189 679 135 667 q 261 708 243 692 l 336 708 l 336 224 m 229 -86 q 288 -112 264 -86 q 311 -176 311 -139 q 289 -240 311 -214 q 231 -265 267 -265 q 169 -240 193 -265 q 144 -176 144 -214 q 169 -112 144 -139 q 229 -86 194 -86 z "},"ì":{"ha":454,"x_min":47,"x_max":421,"o":"m 336 224 q 331 101 336 157 q 421 106 375 106 l 421 0 l 57 0 l 57 90 q 124 119 110 90 q 139 214 139 149 l 139 444 q 144 565 139 510 l 47 561 l 47 667 q 189 679 135 667 q 261 708 243 692 l 336 708 l 336 224 m 119 1069 q 167 1086 140 1086 q 213 1072 190 1086 q 249 1036 235 1058 l 363 842 l 299 785 l 131 932 q 103 969 114 949 q 93 1011 93 990 q 119 1069 93 1044 z "},"ỉ":{"ha":454,"x_min":47,"x_max":421,"o":"m 336 224 q 331 101 336 157 q 421 106 375 106 l 421 0 l 57 0 l 57 90 q 124 119 110 90 q 139 214 139 149 l 139 444 q 144 565 139 510 l 47 561 l 47 667 q 189 679 135 667 q 261 708 243 692 l 336 708 l 336 224 m 208 1038 q 335 1002 289 1038 q 381 904 381 967 q 367 861 381 878 q 329 825 354 844 q 300 799 308 808 q 292 776 292 790 l 200 776 q 210 806 200 794 q 238 833 219 818 q 267 863 257 850 q 276 896 276 876 q 262 939 276 924 q 208 954 247 954 q 164 943 179 954 q 146 917 149 932 q 155 906 153 913 q 157 888 157 900 q 144 865 157 875 q 101 856 131 856 q 62 870 74 856 q 50 913 50 885 q 88 999 50 960 q 208 1038 126 1038 z "},"ī":{"ha":454,"x_min":31,"x_max":425,"o":"m 336 224 q 331 101 336 157 q 421 106 375 106 l 421 0 l 57 0 l 57 90 q 124 119 110 90 q 139 214 139 149 l 139 444 q 144 565 139 510 l 47 561 l 47 667 q 189 679 135 667 q 261 708 243 692 l 336 708 l 336 224 m 425 1004 l 425 876 l 31 871 l 31 1004 l 425 1004 z "},"į":{"ha":454,"x_min":47,"x_max":439,"o":"m 253 832 q 175 865 206 832 q 144 944 144 897 q 176 1026 144 992 q 251 1060 208 1060 q 326 1026 296 1060 q 356 944 356 993 q 327 864 356 896 q 253 832 299 832 m 439 -261 q 353 -339 401 -310 q 256 -368 304 -368 q 147 -331 188 -368 q 106 -225 106 -294 q 151 -103 106 -162 q 272 0 197 -44 l 57 0 l 57 90 q 124 119 110 90 q 139 214 139 149 l 139 444 q 144 565 139 510 l 47 561 l 47 667 q 189 679 135 667 q 261 708 243 692 l 336 708 l 336 224 q 331 101 336 157 q 421 106 375 106 l 421 0 l 419 0 q 295 -80 347 -31 q 243 -183 243 -129 q 259 -226 243 -210 q 304 -242 275 -242 q 390 -201 346 -242 l 439 -261 z "},"ĩ":{"ha":454,"x_min":-21,"x_max":476,"o":"m 336 224 q 331 101 336 157 q 421 106 375 106 l 421 0 l 57 0 l 57 90 q 124 119 110 90 q 139 214 139 149 l 139 444 q 144 565 139 510 l 47 561 l 47 667 q 189 679 135 667 q 261 708 243 692 l 336 708 l 336 224 m 476 1006 q 403 884 449 925 q 311 843 357 843 q 263 851 285 843 q 214 874 242 858 q 176 892 190 886 q 143 897 161 897 q 99 884 122 897 q 57 840 76 871 l -21 886 q 48 989 1 949 q 142 1029 94 1029 q 193 1022 172 1029 q 238 1000 214 1014 q 274 982 258 988 q 311 976 290 976 q 357 994 335 976 q 397 1046 379 1013 l 476 1006 z "},"j":{"ha":408,"x_min":-122,"x_max":335,"o":"m 231 1060 q 305 1026 275 1060 q 335 944 335 993 q 306 864 335 896 q 232 832 278 832 q 154 865 185 832 q 124 944 124 897 q 156 1026 124 992 q 231 1060 188 1060 m 322 3 q 241 -280 322 -183 q 29 -376 160 -376 q -83 -343 -44 -376 q -122 -262 -122 -310 q -98 -196 -122 -224 q -32 -168 -74 -168 q 27 -191 4 -168 q 50 -250 50 -214 q 47 -274 50 -257 q 58 -278 51 -276 q 71 -279 65 -279 q 129 -175 129 -279 l 125 444 q 131 565 125 510 l 33 561 l 33 667 q 175 679 121 667 q 247 708 229 692 l 322 708 l 322 3 z "},"ĵ":{"ha":407,"x_min":-122,"x_max":419,"o":"m 224 1088 l 419 851 l 360 781 l 211 919 l 210 919 l 58 790 l 0 857 l 210 1088 l 224 1088 m 322 3 q 241 -280 322 -183 q 29 -376 160 -376 q -83 -343 -44 -376 q -122 -262 -122 -310 q -98 -196 -122 -224 q -32 -168 -74 -168 q 27 -191 4 -168 q 50 -250 50 -214 q 47 -274 50 -257 q 58 -278 51 -276 q 71 -279 65 -279 q 129 -175 129 -279 l 125 444 q 131 565 125 510 l 33 561 l 33 667 q 175 679 121 667 q 247 708 229 692 l 322 708 l 322 3 z "},"k":{"ha":825,"x_min":26,"x_max":800,"o":"m 315 415 l 382 415 l 482 531 q 536 589 525 579 l 536 590 l 463 589 l 463 694 l 775 694 l 775 606 q 662 569 708 599 q 578 496 615 539 l 489 397 l 489 396 q 531 366 511 385 q 579 310 551 347 l 672 188 q 736 117 708 143 q 800 90 764 90 l 800 0 l 640 0 q 567 28 599 0 q 486 121 535 56 q 385 265 433 192 l 347 318 l 315 317 l 315 224 q 310 101 315 157 q 400 106 354 106 l 400 0 l 35 0 l 35 90 q 103 119 88 90 q 118 214 118 149 l 118 785 q 124 906 118 851 l 26 901 l 26 1007 q 168 1019 114 1007 q 239 1049 222 1032 l 315 1049 l 315 415 z "},"ķ":{"ha":825,"x_min":26,"x_max":800,"o":"m 315 415 l 382 415 l 482 531 q 536 589 525 579 l 536 590 l 463 589 l 463 694 l 775 694 l 775 606 q 662 569 708 599 q 578 496 615 539 l 489 397 l 489 396 q 531 366 511 385 q 579 310 551 347 l 672 188 q 736 117 708 143 q 800 90 764 90 l 800 0 l 640 0 q 567 28 599 0 q 486 121 535 56 q 385 265 433 192 l 347 318 l 315 317 l 315 224 q 310 101 315 157 q 400 106 354 106 l 400 0 l 35 0 l 35 90 q 103 119 88 90 q 118 214 118 149 l 118 785 q 124 906 118 851 l 26 901 l 26 1007 q 168 1019 114 1007 q 239 1049 222 1032 l 315 1049 l 315 415 m 532 -50 q 561 -150 561 -99 q 524 -272 561 -210 q 424 -394 488 -335 l 361 -346 q 406 -249 392 -293 q 419 -162 419 -206 q 407 -75 419 -121 l 532 -50 z "},"l":{"ha":433,"x_min":25,"x_max":399,"o":"m 314 224 q 308 101 314 157 q 399 106 354 106 l 399 0 l 35 0 l 35 90 q 90 105 72 90 q 112 144 107 119 q 117 214 117 169 l 117 785 q 122 906 117 851 l 25 901 l 25 1007 q 167 1019 113 1007 q 239 1049 221 1032 l 314 1049 l 314 224 z "},"ĺ":{"ha":433,"x_min":25,"x_max":399,"o":"m 314 224 q 308 101 314 157 q 399 106 354 106 l 399 0 l 35 0 l 35 90 q 90 105 72 90 q 112 144 107 119 q 117 214 117 169 l 117 785 q 122 906 117 851 l 25 901 l 25 1007 q 167 1019 113 1007 q 239 1049 221 1032 l 314 1049 l 314 224 m 326 1347 q 351 1290 351 1324 q 341 1247 351 1269 q 314 1210 331 1225 l 146 1063 l 82 1119 l 196 1314 q 233 1351 211 1338 q 279 1364 256 1364 q 326 1347 304 1364 z "},"ľ":{"ha":550,"x_min":25,"x_max":561,"o":"m 542 1053 q 561 983 561 1014 q 526 858 561 922 q 435 740 490 794 l 381 781 q 435 967 435 879 q 418 1076 435 1014 l 542 1053 m 314 224 q 308 101 314 157 q 399 106 354 106 l 399 0 l 35 0 l 35 90 q 90 105 72 90 q 112 144 107 119 q 117 214 117 169 l 117 785 q 122 906 117 851 l 25 901 l 25 1007 q 167 1019 113 1007 q 239 1049 221 1032 l 314 1049 l 314 224 z "},"ļ":{"ha":433,"x_min":25,"x_max":399,"o":"m 314 224 q 308 101 314 157 q 399 106 354 106 l 399 0 l 35 0 l 35 90 q 90 105 72 90 q 112 144 107 119 q 117 214 117 169 l 117 785 q 122 906 117 851 l 25 901 l 25 1007 q 167 1019 113 1007 q 239 1049 221 1032 l 314 1049 l 314 224 m 332 -50 q 361 -150 361 -99 q 324 -272 361 -210 q 224 -394 288 -335 l 161 -346 q 206 -249 192 -293 q 219 -162 219 -206 q 207 -75 219 -121 l 332 -50 z "},"ł":{"ha":446,"x_min":24,"x_max":411,"o":"m 322 619 l 411 682 l 411 529 l 322 465 l 322 224 q 318 101 322 164 q 407 106 363 106 l 407 0 l 43 0 l 43 90 q 111 119 96 90 q 126 214 126 149 l 126 325 l 24 251 l 24 408 l 126 481 l 126 785 q 132 906 126 851 l 33 901 l 33 1007 q 176 1019 121 1007 q 247 1049 231 1032 l 322 1049 l 322 619 z "},"m":{"ha":1278,"x_min":47,"x_max":1251,"o":"m 939 717 q 1110 650 1054 717 q 1167 428 1167 583 l 1167 224 q 1161 101 1167 157 q 1251 106 1206 106 l 1251 0 l 900 0 l 900 90 q 957 120 944 90 q 969 214 969 150 l 969 426 q 940 551 968 514 q 860 588 913 588 q 740 542 799 588 q 753 410 753 486 l 753 224 q 747 101 753 157 q 838 106 792 106 l 838 0 l 479 0 l 479 90 q 542 119 528 90 q 556 214 556 149 l 554 431 q 529 552 554 517 q 454 589 504 588 q 336 538 393 589 l 336 224 q 331 101 336 157 q 414 106 375 106 l 414 0 l 57 0 l 57 90 q 124 119 110 90 q 139 214 139 149 l 139 447 q 144 565 139 510 l 47 561 l 47 667 q 189 679 135 667 q 261 708 243 692 l 329 708 q 335 639 329 706 l 338 639 q 435 695 381 674 q 540 717 489 717 q 645 694 603 717 q 713 625 688 671 q 824 692 763 667 q 939 717 885 717 z "},"n":{"ha":883,"x_min":47,"x_max":857,"o":"m 538 717 q 718 644 664 717 q 772 410 772 572 l 772 224 q 767 101 772 157 q 857 106 813 106 l 857 0 l 493 0 l 493 90 q 561 119 546 90 q 576 214 576 149 l 575 411 q 549 546 575 503 q 463 589 524 589 q 394 574 429 589 q 336 538 360 560 l 336 224 q 331 101 336 157 q 421 106 375 106 l 421 0 l 57 0 l 57 90 q 124 119 110 90 q 139 214 139 149 l 139 447 q 144 565 139 510 l 47 561 l 47 667 q 189 679 135 667 q 261 708 243 692 l 329 708 q 335 639 329 706 l 338 639 q 437 694 378 671 q 538 717 496 717 z "},"ń":{"ha":883,"x_min":47,"x_max":857,"o":"m 538 717 q 718 644 664 717 q 772 410 772 572 l 772 224 q 767 101 772 157 q 857 106 813 106 l 857 0 l 493 0 l 493 90 q 561 119 546 90 q 576 214 576 149 l 575 411 q 549 546 575 503 q 463 589 524 589 q 394 574 429 589 q 336 538 360 560 l 336 224 q 331 101 336 157 q 421 106 375 106 l 421 0 l 57 0 l 57 90 q 124 119 110 90 q 139 214 139 149 l 139 447 q 144 565 139 510 l 47 561 l 47 667 q 189 679 135 667 q 261 708 243 692 l 329 708 q 335 639 329 706 l 338 639 q 437 694 378 671 q 538 717 496 717 m 588 1069 q 613 1013 613 1046 q 602 969 613 992 q 575 932 592 947 l 407 785 l 343 842 l 457 1036 q 494 1073 472 1060 q 540 1086 517 1086 q 588 1069 565 1086 z "},"ŉ":{"ha":883,"x_min":24,"x_max":857,"o":"m 538 717 q 718 644 664 717 q 772 410 772 572 l 772 224 q 767 101 772 157 q 857 106 813 106 l 857 0 l 493 0 l 493 90 q 561 119 546 90 q 576 214 576 149 l 575 411 q 549 546 575 503 q 463 589 524 589 q 394 574 429 589 q 336 538 360 560 l 336 224 q 331 101 336 157 q 421 106 375 106 l 421 0 l 57 0 l 57 90 q 124 119 110 90 q 139 214 139 149 l 139 447 q 144 565 139 510 l 47 561 l 47 667 q 189 679 135 667 q 261 708 243 692 l 329 708 q 335 639 329 706 l 338 639 q 437 694 378 671 q 538 717 496 717 m 126 1247 q 219 1206 186 1247 q 251 1101 251 1165 q 219 954 251 1033 q 124 797 186 875 l 69 836 q 124 937 97 872 q 149 1056 150 1001 q 119 1051 136 1051 q 51 1074 79 1051 q 24 1143 24 1097 q 52 1217 24 1188 q 126 1247 81 1247 z "},"ň":{"ha":883,"x_min":47,"x_max":857,"o":"m 538 717 q 718 644 664 717 q 772 410 772 572 l 772 224 q 767 101 772 157 q 857 106 813 106 l 857 0 l 493 0 l 493 90 q 561 119 546 90 q 576 214 576 149 l 575 411 q 549 546 575 503 q 463 589 524 589 q 394 574 429 589 q 336 538 360 560 l 336 224 q 331 101 336 157 q 421 106 375 106 l 421 0 l 57 0 l 57 90 q 124 119 110 90 q 139 214 139 149 l 139 447 q 144 565 139 510 l 47 561 l 47 667 q 189 679 135 667 q 261 708 243 692 l 329 708 q 335 639 329 706 l 338 639 q 437 694 378 671 q 538 717 496 717 m 651 1079 l 710 1013 l 483 774 l 468 774 l 243 1008 l 303 1079 l 482 933 l 483 933 l 651 1079 z "},"ņ":{"ha":883,"x_min":47,"x_max":857,"o":"m 538 717 q 718 644 664 717 q 772 410 772 572 l 772 224 q 767 101 772 157 q 857 106 813 106 l 857 0 l 493 0 l 493 90 q 561 119 546 90 q 576 214 576 149 l 575 411 q 549 546 575 503 q 463 589 524 589 q 394 574 429 589 q 336 538 360 560 l 336 224 q 331 101 336 157 q 421 106 375 106 l 421 0 l 57 0 l 57 90 q 124 119 110 90 q 139 214 139 149 l 139 447 q 144 565 139 510 l 47 561 l 47 667 q 189 679 135 667 q 261 708 243 692 l 329 708 q 335 639 329 706 l 338 639 q 437 694 378 671 q 538 717 496 717 m 558 -50 q 588 -150 588 -99 q 551 -272 588 -210 q 450 -394 514 -335 l 388 -346 q 432 -249 418 -293 q 446 -162 446 -206 q 433 -75 446 -121 l 558 -50 z "},"ñ":{"ha":883,"x_min":47,"x_max":857,"o":"m 538 717 q 718 644 664 717 q 772 410 772 572 l 772 224 q 767 101 772 157 q 857 106 813 106 l 857 0 l 493 0 l 493 90 q 561 119 546 90 q 576 214 576 149 l 575 411 q 549 546 575 503 q 463 589 524 589 q 394 574 429 589 q 336 538 360 560 l 336 224 q 331 101 336 157 q 421 106 375 106 l 421 0 l 57 0 l 57 90 q 124 119 110 90 q 139 214 139 149 l 139 447 q 144 565 139 510 l 47 561 l 47 667 q 189 679 135 667 q 261 708 243 692 l 329 708 q 335 639 329 706 l 338 639 q 437 694 378 671 q 538 717 496 717 m 726 1006 q 653 884 699 925 q 561 843 607 843 q 513 851 535 843 q 464 874 492 858 q 426 892 440 886 q 393 897 411 897 q 349 884 372 897 q 307 840 326 871 l 229 886 q 298 989 251 949 q 392 1029 344 1029 q 443 1022 422 1029 q 488 1000 464 1014 q 524 982 508 988 q 561 976 540 976 q 607 994 585 976 q 647 1046 629 1013 l 726 1006 z "},"o":{"ha":786,"x_min":43,"x_max":743,"o":"m 393 717 q 572 674 493 717 q 697 549 651 631 q 743 360 743 468 q 699 158 743 244 q 577 25 656 72 q 397 -22 499 -22 q 215 21 296 -22 q 89 144 135 64 q 43 332 43 225 q 90 532 43 444 q 217 668 138 619 q 393 717 297 717 m 393 619 q 282 547 317 619 q 247 369 247 475 q 285 163 247 249 q 400 76 322 76 q 507 147 476 76 q 538 325 538 218 q 503 532 538 444 q 393 619 468 619 z "},"ó":{"ha":786,"x_min":43,"x_max":743,"o":"m 393 717 q 572 674 493 717 q 697 549 651 631 q 743 360 743 468 q 699 158 743 244 q 577 25 656 72 q 397 -22 499 -22 q 215 21 296 -22 q 89 144 135 64 q 43 332 43 225 q 90 532 43 444 q 217 668 138 619 q 393 717 297 717 m 393 619 q 282 547 317 619 q 247 369 247 475 q 285 163 247 249 q 400 76 322 76 q 507 147 476 76 q 538 325 538 218 q 503 532 538 444 q 393 619 468 619 m 503 1069 q 528 1013 528 1046 q 517 969 528 992 q 490 932 507 947 l 322 785 l 258 842 l 372 1036 q 410 1073 388 1060 q 456 1086 432 1086 q 503 1069 481 1086 z "},"ô":{"ha":786,"x_min":43,"x_max":743,"o":"m 393 717 q 572 674 493 717 q 697 549 651 631 q 743 360 743 468 q 699 158 743 244 q 577 25 656 72 q 397 -22 499 -22 q 215 21 296 -22 q 89 144 135 64 q 43 332 43 225 q 90 532 43 444 q 217 668 138 619 q 393 717 297 717 m 393 619 q 282 547 317 619 q 247 369 247 475 q 285 163 247 249 q 400 76 322 76 q 507 147 476 76 q 538 325 538 218 q 503 532 538 444 q 393 619 468 619 m 407 1088 l 629 851 l 569 781 l 393 926 l 392 926 l 214 790 l 156 857 l 393 1088 l 407 1088 z "},"ố":{"ha":786,"x_min":43,"x_max":842,"o":"m 817 1188 q 842 1131 842 1164 q 831 1088 842 1110 q 804 1050 821 1065 l 636 903 l 572 960 l 686 1154 q 724 1191 701 1178 q 769 1204 746 1204 q 817 1188 793 1204 m 410 1006 l 633 833 l 599 781 l 393 881 l 185 782 l 153 833 l 388 1006 l 410 1006 m 393 717 q 572 674 493 717 q 697 549 651 631 q 743 360 743 468 q 699 158 743 244 q 577 25 656 72 q 397 -22 499 -22 q 215 21 296 -22 q 89 144 135 64 q 43 332 43 225 q 90 532 43 444 q 217 668 138 619 q 393 717 297 717 m 393 619 q 282 547 317 619 q 247 369 247 475 q 285 163 247 249 q 400 76 322 76 q 507 147 476 76 q 538 325 538 218 q 503 532 538 444 q 393 619 468 619 z "},"ộ":{"ha":786,"x_min":43,"x_max":743,"o":"m 393 717 q 572 674 493 717 q 697 549 651 631 q 743 360 743 468 q 699 158 743 244 q 577 25 656 72 q 397 -22 499 -22 q 215 21 296 -22 q 89 144 135 64 q 43 332 43 225 q 90 532 43 444 q 217 668 138 619 q 393 717 297 717 m 393 619 q 282 547 317 619 q 247 369 247 475 q 285 163 247 249 q 400 76 322 76 q 507 147 476 76 q 538 325 538 218 q 503 532 538 444 q 393 619 468 619 m 394 -86 q 453 -112 429 -86 q 476 -176 476 -139 q 454 -240 476 -214 q 396 -265 432 -265 q 334 -240 358 -265 q 310 -176 310 -214 q 335 -112 310 -139 q 394 -86 360 -86 m 407 1088 l 629 851 l 569 781 l 393 926 l 392 926 l 214 790 l 156 857 l 393 1088 l 407 1088 z "},"ồ":{"ha":786,"x_min":43,"x_max":743,"o":"m 426 1247 q 474 1264 447 1264 q 519 1250 497 1264 q 556 1214 542 1236 l 669 1019 l 606 963 l 438 1110 q 410 1147 421 1126 q 400 1189 400 1168 q 426 1247 400 1222 m 410 1006 l 633 833 l 599 781 l 393 881 l 185 782 l 153 833 l 388 1006 l 410 1006 m 393 717 q 572 674 493 717 q 697 549 651 631 q 743 360 743 468 q 699 158 743 244 q 577 25 656 72 q 397 -22 499 -22 q 215 21 296 -22 q 89 144 135 64 q 43 332 43 225 q 90 532 43 444 q 217 668 138 619 q 393 717 297 717 m 393 619 q 282 547 317 619 q 247 369 247 475 q 285 163 247 249 q 400 76 322 76 q 507 147 476 76 q 538 325 538 218 q 503 532 538 444 q 393 619 468 619 z "},"ổ":{"ha":786,"x_min":43,"x_max":743,"o":"m 571 1236 q 697 1201 651 1236 q 743 1103 743 1165 q 730 1060 743 1076 q 692 1024 717 1043 q 663 998 671 1007 q 654 975 654 989 l 563 975 q 572 1005 563 993 q 600 1032 582 1017 q 629 1062 619 1049 q 639 1094 639 1075 q 624 1138 639 1122 q 571 1153 610 1153 q 526 1142 542 1153 q 508 1115 511 1131 q 517 1105 515 1111 q 519 1086 519 1099 q 506 1064 519 1074 q 464 1054 493 1054 q 424 1069 436 1054 q 413 1111 413 1083 q 451 1197 413 1158 q 571 1236 489 1236 m 410 1006 l 633 833 l 599 781 l 393 881 l 185 782 l 153 833 l 388 1006 l 410 1006 m 393 717 q 572 674 493 717 q 697 549 651 631 q 743 360 743 468 q 699 158 743 244 q 577 25 656 72 q 397 -22 499 -22 q 215 21 296 -22 q 89 144 135 64 q 43 332 43 225 q 90 532 43 444 q 217 668 138 619 q 393 717 297 717 m 393 619 q 282 547 317 619 q 247 369 247 475 q 285 163 247 249 q 400 76 322 76 q 507 147 476 76 q 538 325 538 218 q 503 532 538 444 q 393 619 468 619 z "},"ỗ":{"ha":786,"x_min":43,"x_max":743,"o":"m 676 1189 q 603 1067 649 1108 q 511 1026 557 1026 q 463 1034 485 1026 q 414 1057 442 1042 q 376 1075 390 1069 q 343 1081 361 1081 q 299 1067 322 1081 q 257 1024 276 1054 l 179 1069 q 248 1172 201 1132 q 342 1213 294 1213 q 393 1205 372 1213 q 438 1183 414 1197 q 474 1165 458 1171 q 511 1160 490 1160 q 557 1178 535 1160 q 597 1229 579 1196 l 676 1189 m 410 1006 l 633 833 l 599 781 l 393 881 l 185 782 l 153 833 l 388 1006 l 410 1006 m 393 717 q 572 674 493 717 q 697 549 651 631 q 743 360 743 468 q 699 158 743 244 q 577 25 656 72 q 397 -22 499 -22 q 215 21 296 -22 q 89 144 135 64 q 43 332 43 225 q 90 532 43 444 q 217 668 138 619 q 393 717 297 717 m 393 619 q 282 547 317 619 q 247 369 247 475 q 285 163 247 249 q 400 76 322 76 q 507 147 476 76 q 538 325 538 218 q 503 532 538 444 q 393 619 468 619 z "},"ö":{"ha":786,"x_min":43,"x_max":743,"o":"m 393 717 q 572 674 493 717 q 697 549 651 631 q 743 360 743 468 q 699 158 743 244 q 577 25 656 72 q 397 -22 499 -22 q 215 21 296 -22 q 89 144 135 64 q 43 332 43 225 q 90 532 43 444 q 217 668 138 619 q 393 717 297 717 m 393 619 q 282 547 317 619 q 247 369 247 475 q 285 163 247 249 q 400 76 322 76 q 507 147 476 76 q 538 325 538 218 q 503 532 538 444 q 393 619 468 619 m 274 1043 q 339 1012 313 1043 q 365 938 365 981 q 338 864 365 894 q 272 833 310 833 q 208 864 235 833 q 181 938 181 894 q 208 1012 181 981 q 274 1043 236 1043 m 515 1043 q 581 1012 554 1043 q 607 938 607 981 q 579 864 607 894 q 514 833 551 833 q 449 864 476 833 q 422 938 422 894 q 450 1012 422 981 q 515 1043 478 1043 z "},"ọ":{"ha":786,"x_min":43,"x_max":743,"o":"m 393 717 q 572 674 493 717 q 697 549 651 631 q 743 360 743 468 q 699 158 743 244 q 577 25 656 72 q 397 -22 499 -22 q 215 21 296 -22 q 89 144 135 64 q 43 332 43 225 q 90 532 43 444 q 217 668 138 619 q 393 717 297 717 m 393 619 q 282 547 317 619 q 247 369 247 475 q 285 163 247 249 q 400 76 322 76 q 507 147 476 76 q 538 325 538 218 q 503 532 538 444 q 393 619 468 619 m 394 -86 q 453 -112 429 -86 q 476 -176 476 -139 q 454 -240 476 -214 q 396 -265 432 -265 q 334 -240 358 -265 q 310 -176 310 -214 q 335 -112 310 -139 q 394 -86 360 -86 z "},"ò":{"ha":786,"x_min":43,"x_max":743,"o":"m 393 717 q 572 674 493 717 q 697 549 651 631 q 743 360 743 468 q 699 158 743 244 q 577 25 656 72 q 397 -22 499 -22 q 215 21 296 -22 q 89 144 135 64 q 43 332 43 225 q 90 532 43 444 q 217 668 138 619 q 393 717 297 717 m 393 619 q 282 547 317 619 q 247 369 247 475 q 285 163 247 249 q 400 76 322 76 q 507 147 476 76 q 538 325 538 218 q 503 532 538 444 q 393 619 468 619 m 285 1069 q 332 1086 306 1086 q 378 1072 356 1086 q 414 1036 400 1058 l 528 842 l 464 785 l 296 932 q 269 969 279 949 q 258 1011 258 990 q 285 1069 258 1044 z "},"ỏ":{"ha":786,"x_min":43,"x_max":743,"o":"m 393 717 q 572 674 493 717 q 697 549 651 631 q 743 360 743 468 q 699 158 743 244 q 577 25 656 72 q 397 -22 499 -22 q 215 21 296 -22 q 89 144 135 64 q 43 332 43 225 q 90 532 43 444 q 217 668 138 619 q 393 717 297 717 m 393 619 q 282 547 317 619 q 247 369 247 475 q 285 163 247 249 q 400 76 322 76 q 507 147 476 76 q 538 325 538 218 q 503 532 538 444 q 393 619 468 619 m 374 1038 q 500 1002 454 1038 q 546 904 546 967 q 533 861 546 878 q 494 825 519 844 q 465 799 474 808 q 457 776 457 790 l 365 776 q 375 806 365 794 q 403 833 385 818 q 432 863 422 850 q 442 896 442 876 q 427 939 442 924 q 374 954 413 954 q 329 943 344 954 q 311 917 314 932 q 320 906 318 913 q 322 888 322 900 q 309 865 322 875 q 267 856 296 856 q 227 870 239 856 q 215 913 215 885 q 253 999 215 960 q 374 1038 292 1038 z "},"ơ":{"ha":786,"x_min":43,"x_max":782,"o":"m 782 801 q 746 688 782 735 q 644 619 710 642 q 717 506 692 572 q 743 360 743 440 q 699 158 743 244 q 577 25 656 72 q 397 -22 499 -22 q 215 21 296 -22 q 89 144 135 64 q 43 332 43 225 q 90 532 43 444 q 217 668 138 619 q 393 717 297 717 q 533 692 471 717 q 603 731 576 697 q 631 801 631 764 l 782 801 m 400 76 q 507 147 476 76 q 538 325 538 218 q 503 532 538 444 q 393 619 468 619 q 282 547 317 619 q 247 369 247 475 q 285 163 247 249 q 400 76 322 76 z "},"ớ":{"ha":786,"x_min":43,"x_max":782,"o":"m 782 801 q 746 688 782 735 q 644 619 710 642 q 717 506 692 572 q 743 360 743 440 q 699 158 743 244 q 577 25 656 72 q 397 -22 499 -22 q 215 21 296 -22 q 89 144 135 64 q 43 332 43 225 q 90 532 43 444 q 217 668 138 619 q 393 717 297 717 q 533 692 471 717 q 603 731 576 697 q 631 801 631 764 l 782 801 m 400 76 q 507 147 476 76 q 538 325 538 218 q 503 532 538 444 q 393 619 468 619 q 282 547 317 619 q 247 369 247 475 q 285 163 247 249 q 400 76 322 76 m 503 1069 q 528 1013 528 1046 q 517 969 528 992 q 490 932 507 947 l 322 785 l 258 842 l 372 1036 q 410 1073 388 1060 q 456 1086 432 1086 q 503 1069 479 1086 z "},"ợ":{"ha":786,"x_min":43,"x_max":782,"o":"m 782 801 q 746 688 782 735 q 644 619 710 642 q 717 506 692 572 q 743 360 743 440 q 699 158 743 244 q 577 25 656 72 q 397 -22 499 -22 q 215 21 296 -22 q 89 144 135 64 q 43 332 43 225 q 90 532 43 444 q 217 668 138 619 q 393 717 297 717 q 533 692 471 717 q 603 731 576 697 q 631 801 631 764 l 782 801 m 400 76 q 507 147 476 76 q 538 325 538 218 q 503 532 538 444 q 393 619 468 619 q 282 547 317 619 q 247 369 247 475 q 285 163 247 249 q 400 76 322 76 m 394 -86 q 453 -112 429 -86 q 476 -176 476 -139 q 454 -240 476 -214 q 396 -265 432 -265 q 334 -240 358 -265 q 310 -176 310 -214 q 335 -112 310 -139 q 394 -86 360 -86 z "},"ờ":{"ha":786,"x_min":43,"x_max":782,"o":"m 782 801 q 746 688 782 735 q 644 619 710 642 q 717 506 692 572 q 743 360 743 440 q 699 158 743 244 q 577 25 656 72 q 397 -22 499 -22 q 215 21 296 -22 q 89 144 135 64 q 43 332 43 225 q 90 532 43 444 q 217 668 138 619 q 393 717 297 717 q 533 692 471 717 q 603 731 576 697 q 631 801 631 764 l 782 801 m 400 76 q 507 147 476 76 q 538 325 538 218 q 503 532 538 444 q 393 619 468 619 q 282 547 317 619 q 247 369 247 475 q 285 163 247 249 q 400 76 322 76 m 285 1069 q 332 1086 306 1086 q 378 1072 356 1086 q 414 1036 400 1058 l 528 842 l 464 785 l 296 932 q 269 969 279 949 q 258 1011 258 990 q 285 1069 258 1044 z "},"ở":{"ha":786,"x_min":43,"x_max":782,"o":"m 782 801 q 746 688 782 735 q 644 619 710 642 q 717 506 692 572 q 743 360 743 440 q 699 158 743 244 q 577 25 656 72 q 397 -22 499 -22 q 215 21 296 -22 q 89 144 135 64 q 43 332 43 225 q 90 532 43 444 q 217 668 138 619 q 393 717 297 717 q 533 692 471 717 q 603 731 576 697 q 631 801 631 764 l 782 801 m 400 76 q 507 147 476 76 q 538 325 538 218 q 503 532 538 444 q 393 619 468 619 q 282 547 317 619 q 247 369 247 475 q 285 163 247 249 q 400 76 322 76 m 374 1038 q 500 1002 454 1038 q 546 904 546 967 q 533 861 546 878 q 494 825 519 844 q 465 799 474 808 q 457 776 457 790 l 365 776 q 375 806 365 794 q 403 833 385 818 q 432 863 422 850 q 442 896 442 876 q 427 939 442 924 q 374 954 413 954 q 329 943 344 954 q 311 917 314 932 q 320 906 318 913 q 322 888 322 900 q 309 865 322 875 q 267 856 296 856 q 227 870 239 856 q 215 913 215 885 q 253 999 215 960 q 374 1038 292 1038 z "},"ỡ":{"ha":786,"x_min":43,"x_max":782,"o":"m 782 801 q 746 688 782 735 q 644 619 710 642 q 717 506 692 572 q 743 360 743 440 q 699 158 743 244 q 577 25 656 72 q 397 -22 499 -22 q 215 21 296 -22 q 89 144 135 64 q 43 332 43 225 q 90 532 43 444 q 217 668 138 619 q 393 717 297 717 q 533 692 471 717 q 603 731 576 697 q 631 801 631 764 l 782 801 m 400 76 q 507 147 476 76 q 538 325 538 218 q 503 532 538 444 q 393 619 468 619 q 282 547 317 619 q 247 369 247 475 q 285 163 247 249 q 400 76 322 76 m 642 1006 q 568 884 614 925 q 476 843 522 843 q 428 851 450 843 q 379 874 407 858 q 341 892 356 886 q 308 897 326 897 q 265 884 288 897 q 222 840 242 871 l 144 886 q 213 989 167 949 q 307 1029 260 1029 q 358 1022 338 1029 q 403 1000 379 1014 q 440 982 424 988 q 476 976 456 976 q 522 994 500 976 q 563 1046 544 1013 l 642 1006 z "},"ő":{"ha":786,"x_min":43,"x_max":743,"o":"m 393 717 q 572 674 493 717 q 697 549 651 631 q 743 360 743 468 q 699 158 743 244 q 577 25 656 72 q 397 -22 499 -22 q 215 21 296 -22 q 89 144 135 64 q 43 332 43 225 q 90 532 43 444 q 217 668 138 619 q 393 717 297 717 m 393 619 q 282 547 317 619 q 247 369 247 475 q 285 163 247 249 q 400 76 322 76 q 507 147 476 76 q 538 325 538 218 q 503 532 538 444 q 393 619 468 619 m 393 1101 q 422 1047 422 1083 q 414 1007 422 1028 q 392 968 406 986 l 253 794 l 182 842 l 272 1032 q 314 1088 289 1065 q 364 1110 339 1110 q 393 1101 378 1110 m 661 1068 q 676 1029 676 1051 q 658 981 676 1006 q 615 939 640 957 l 436 807 l 382 872 l 519 1032 q 568 1073 542 1058 q 618 1088 594 1088 q 661 1068 644 1088 z "},"ō":{"ha":786,"x_min":43,"x_max":743,"o":"m 393 717 q 572 674 493 717 q 697 549 651 631 q 743 360 743 468 q 699 158 743 244 q 577 25 656 72 q 397 -22 499 -22 q 215 21 296 -22 q 89 144 135 64 q 43 332 43 225 q 90 532 43 444 q 217 668 138 619 q 393 717 297 717 m 393 619 q 282 547 317 619 q 247 369 247 475 q 285 163 247 249 q 400 76 322 76 q 507 147 476 76 q 538 325 538 218 q 503 532 538 444 q 393 619 468 619 m 590 1004 l 590 876 l 196 871 l 196 1004 l 590 1004 z "},"ø":{"ha":786,"x_min":43,"x_max":743,"o":"m 711 738 l 639 625 q 715 510 688 578 q 743 360 743 442 q 699 158 743 244 q 577 25 656 72 q 397 -22 499 -22 q 242 8 314 -22 l 161 -115 l 76 -50 l 150 67 q 71 181 99 114 q 43 332 43 249 q 90 532 43 444 q 217 668 138 619 q 393 717 297 717 q 547 686 474 717 l 618 797 l 711 738 m 390 619 q 281 546 315 618 q 247 369 247 474 q 260 238 247 292 l 261 238 l 476 576 q 390 619 444 619 m 526 453 l 313 118 q 399 76 350 76 q 507 147 476 76 q 538 325 538 218 q 528 453 538 394 l 526 453 z "},"õ":{"ha":786,"x_min":43,"x_max":743,"o":"m 393 717 q 572 674 493 717 q 697 549 651 631 q 743 360 743 468 q 699 158 743 244 q 577 25 656 72 q 397 -22 499 -22 q 215 21 296 -22 q 89 144 135 64 q 43 332 43 225 q 90 532 43 444 q 217 668 138 619 q 393 717 297 717 m 393 619 q 282 547 317 619 q 247 369 247 475 q 285 163 247 249 q 400 76 322 76 q 507 147 476 76 q 538 325 538 218 q 503 532 538 444 q 393 619 468 619 m 642 1006 q 568 884 614 925 q 476 843 522 843 q 428 851 450 843 q 379 874 407 858 q 341 892 356 886 q 308 897 326 897 q 265 884 288 897 q 222 840 242 871 l 144 886 q 213 989 167 949 q 307 1029 260 1029 q 358 1022 338 1029 q 403 1000 379 1014 q 440 982 424 988 q 476 976 456 976 q 522 994 500 976 q 563 1046 544 1013 l 642 1006 z "},"œ":{"ha":1233,"x_min":43,"x_max":1196,"o":"m 879 717 q 1098 636 1010 717 q 1185 374 1186 556 l 726 365 q 775 177 726 253 q 929 101 824 101 q 1033 126 978 101 q 1133 206 1089 151 l 1196 147 q 872 -22 1078 -22 q 735 6 800 -22 q 632 86 671 35 l 631 86 q 527 6 588 33 q 397 -22 467 -22 q 215 21 296 -22 q 89 144 135 64 q 43 332 43 225 q 90 532 43 444 q 217 668 138 619 q 393 717 297 717 q 537 690 482 717 q 638 604 592 663 l 640 604 q 744 688 690 660 q 879 717 797 717 m 393 619 q 282 547 317 619 q 247 369 247 475 q 285 163 247 249 q 400 76 322 76 q 538 322 538 76 q 504 528 538 436 q 393 619 471 619 m 878 619 q 783 578 818 619 q 738 463 749 536 l 993 463 q 878 619 988 619 z "},"p":{"ha":835,"x_min":33,"x_max":790,"o":"m 510 717 q 656 674 593 717 q 755 551 719 631 q 790 365 790 471 q 747 166 790 254 q 626 28 704 78 q 446 -22 547 -22 q 322 3 392 -22 l 322 -131 q 318 -253 322 -190 q 407 -249 361 -249 l 407 -354 l 43 -354 l 43 -264 q 111 -235 96 -264 q 126 -140 126 -206 l 126 447 q 132 565 126 510 l 33 561 l 33 667 q 175 679 121 667 q 247 708 229 692 l 315 708 q 322 642 318 685 l 324 642 q 510 717 410 717 m 439 592 q 373 575 404 592 q 322 531 342 558 l 322 107 q 363 90 336 97 q 418 82 390 82 q 586 344 586 82 q 549 519 586 447 q 439 592 513 592 z "},"þ":{"ha":796,"x_min":-6,"x_max":751,"o":"m 283 642 l 286 642 q 471 717 371 717 q 617 674 554 717 q 716 551 681 631 q 751 365 751 471 q 708 166 751 254 q 587 28 665 78 q 407 -22 508 -22 q 283 3 353 -22 l 283 -131 q 278 -253 283 -197 q 368 -249 324 -249 l 368 -354 l 4 -354 l 4 -264 q 72 -235 57 -264 q 88 -140 88 -206 l 88 785 q 92 906 88 865 l -6 901 l -6 1007 q 136 1019 82 1007 q 208 1049 190 1032 l 283 1049 l 283 642 m 400 592 q 334 575 365 592 q 283 531 303 558 l 283 107 q 324 90 297 97 q 378 82 351 82 q 547 344 547 82 q 510 519 547 447 q 400 592 474 592 z "},"q":{"ha":796,"x_min":44,"x_max":794,"o":"m 392 717 q 465 711 433 717 q 536 696 497 706 q 586 686 572 686 q 612 692 597 686 q 635 708 626 699 l 710 708 l 710 -131 q 704 -253 710 -197 q 794 -249 749 -249 l 794 -354 l 431 -354 l 431 -264 q 498 -235 483 -264 q 513 -140 513 -206 l 514 56 l 513 56 q 325 -22 433 -22 q 178 21 242 -22 q 80 144 115 64 q 44 329 44 224 q 88 528 44 440 q 210 667 131 617 q 392 717 289 717 m 406 615 q 286 542 324 614 q 249 364 249 471 q 285 181 249 258 q 397 103 321 103 q 463 121 432 103 q 513 168 494 139 l 513 493 q 481 589 513 563 q 406 615 450 615 z "},"r":{"ha":667,"x_min":47,"x_max":658,"o":"m 538 717 q 624 688 590 717 q 658 601 658 658 q 635 535 658 565 q 564 504 611 504 q 502 522 529 504 q 471 585 475 540 q 391 540 432 585 q 336 450 350 494 l 336 224 q 331 101 336 157 q 421 106 375 106 l 421 0 l 57 0 l 57 90 q 124 119 110 90 q 139 214 139 149 l 139 447 q 144 565 139 510 l 47 561 l 47 667 q 189 679 135 667 q 261 708 243 692 l 329 708 q 333 654 332 688 q 335 589 335 621 l 338 589 q 538 717 432 717 z "},"ŕ":{"ha":667,"x_min":47,"x_max":658,"o":"m 538 717 q 624 688 590 717 q 658 601 658 658 q 635 535 658 565 q 564 504 611 504 q 502 522 529 504 q 471 585 475 540 q 391 540 432 585 q 336 450 350 494 l 336 224 q 331 101 336 157 q 421 106 375 106 l 421 0 l 57 0 l 57 90 q 124 119 110 90 q 139 214 139 149 l 139 447 q 144 565 139 510 l 47 561 l 47 667 q 189 679 135 667 q 261 708 243 692 l 329 708 q 333 654 332 688 q 335 589 335 621 l 338 589 q 538 717 432 717 m 510 1069 q 535 1013 535 1046 q 524 969 535 992 q 497 932 514 947 l 329 785 l 265 842 l 379 1036 q 417 1073 394 1060 q 463 1086 439 1086 q 510 1069 488 1086 z "},"ř":{"ha":667,"x_min":47,"x_max":658,"o":"m 538 717 q 624 688 590 717 q 658 601 658 658 q 635 535 658 565 q 564 504 611 504 q 502 522 529 504 q 471 585 475 540 q 391 540 432 585 q 336 450 350 494 l 336 224 q 331 101 336 157 q 421 106 375 106 l 421 0 l 57 0 l 57 90 q 124 119 110 90 q 139 214 139 149 l 139 447 q 144 565 139 510 l 47 561 l 47 667 q 189 679 135 667 q 261 708 243 692 l 329 708 q 333 654 332 688 q 335 589 335 621 l 338 589 q 538 717 432 717 m 574 1079 l 632 1013 l 406 774 l 390 774 l 165 1008 l 225 1079 l 404 933 l 406 933 l 574 1079 z "},"ŗ":{"ha":667,"x_min":47,"x_max":658,"o":"m 538 717 q 624 688 590 717 q 658 601 658 658 q 635 535 658 565 q 564 504 611 504 q 502 522 529 504 q 471 585 475 540 q 391 540 432 585 q 336 450 350 494 l 336 224 q 331 101 336 157 q 421 106 375 106 l 421 0 l 57 0 l 57 90 q 124 119 110 90 q 139 214 139 149 l 139 447 q 144 565 139 510 l 47 561 l 47 667 q 189 679 135 667 q 261 708 243 692 l 329 708 q 333 654 332 688 q 335 589 335 621 l 338 589 q 538 717 432 717 m 396 -50 q 425 -150 425 -99 q 388 -272 425 -210 q 288 -394 351 -335 l 225 -346 q 269 -249 256 -293 q 283 -162 283 -206 q 271 -75 283 -121 l 396 -50 z "},"s":{"ha":674,"x_min":54,"x_max":629,"o":"m 315 717 q 403 704 356 717 q 482 669 450 692 l 483 669 l 482 710 l 588 710 l 588 464 l 497 464 q 433 578 485 536 q 307 619 382 619 q 242 601 268 619 q 215 546 215 583 q 246 488 215 507 q 349 446 276 469 q 385 435 357 444 q 566 338 503 393 q 629 192 629 282 q 594 74 629 122 q 501 2 558 26 q 376 -22 443 -22 q 260 -7 317 -22 q 171 32 203 8 l 169 32 l 174 -10 l 68 -10 l 63 229 l 153 229 q 220 122 160 165 q 368 78 281 78 q 435 96 407 78 q 464 147 464 114 q 446 189 464 172 q 403 217 428 206 q 303 257 378 228 q 169 314 214 292 q 90 380 125 336 q 54 493 54 424 q 83 601 54 550 q 170 684 111 651 q 315 717 229 717 z "},"ś":{"ha":674,"x_min":54,"x_max":629,"o":"m 315 717 q 403 704 356 717 q 482 669 450 692 l 483 669 l 482 710 l 588 710 l 588 464 l 497 464 q 433 578 485 536 q 307 619 382 619 q 242 601 268 619 q 215 546 215 583 q 246 488 215 507 q 349 446 276 469 q 385 435 357 444 q 566 338 503 393 q 629 192 629 282 q 594 74 629 122 q 501 2 558 26 q 376 -22 443 -22 q 260 -7 317 -22 q 171 32 203 8 l 169 32 l 174 -10 l 68 -10 l 63 229 l 153 229 q 220 122 160 165 q 368 78 281 78 q 435 96 407 78 q 464 147 464 114 q 446 189 464 172 q 403 217 428 206 q 303 257 378 228 q 169 314 214 292 q 90 380 125 336 q 54 493 54 424 q 83 601 54 550 q 170 684 111 651 q 315 717 229 717 m 436 1069 q 461 1013 461 1046 q 451 969 461 992 q 424 932 440 947 l 256 785 l 192 842 l 306 1036 q 343 1073 321 1060 q 389 1086 365 1086 q 436 1069 414 1086 z "},"š":{"ha":674,"x_min":54,"x_max":629,"o":"m 315 717 q 403 704 356 717 q 482 669 450 692 l 483 669 l 482 710 l 588 710 l 588 464 l 497 464 q 433 578 485 536 q 307 619 382 619 q 242 601 268 619 q 215 546 215 583 q 246 488 215 507 q 349 446 276 469 q 385 435 357 444 q 566 338 503 393 q 629 192 629 282 q 594 74 629 122 q 501 2 558 26 q 376 -22 443 -22 q 260 -7 317 -22 q 171 32 203 8 l 169 32 l 174 -10 l 68 -10 l 63 229 l 153 229 q 220 122 160 165 q 368 78 281 78 q 435 96 407 78 q 464 147 464 114 q 446 189 464 172 q 403 217 428 206 q 303 257 378 228 q 169 314 214 292 q 90 380 125 336 q 54 493 54 424 q 83 601 54 550 q 170 684 111 651 q 315 717 229 717 m 500 1079 l 558 1013 l 332 774 l 317 774 l 92 1008 l 151 1079 l 331 933 l 332 933 l 500 1079 z "},"ş":{"ha":674,"x_min":54,"x_max":629,"o":"m 629 192 q 564 41 629 96 q 401 -21 499 -14 l 374 -96 l 375 -96 q 421 -81 392 -87 q 469 -74 450 -74 q 543 -99 515 -75 q 571 -171 571 -124 q 474 -299 571 -256 q 256 -360 376 -343 l 244 -287 q 360 -256 310 -275 q 411 -200 411 -236 q 400 -174 411 -182 q 372 -165 389 -165 q 343 -171 358 -165 q 317 -185 328 -176 l 265 -162 l 301 -17 q 171 32 214 0 l 169 32 l 174 -10 l 68 -10 l 63 229 l 153 229 q 220 122 160 165 q 368 78 281 78 q 435 96 407 78 q 464 147 464 114 q 446 189 464 172 q 403 217 428 206 q 303 257 378 228 q 169 314 214 292 q 90 380 125 336 q 54 493 54 424 q 83 601 54 550 q 170 684 111 651 q 315 717 229 717 q 403 704 356 717 q 482 669 450 692 l 483 669 l 482 710 l 588 710 l 588 464 l 497 464 q 433 578 485 536 q 307 619 382 619 q 242 601 268 619 q 215 546 215 583 q 246 488 215 507 q 349 446 276 469 q 385 435 357 444 q 566 338 503 393 q 629 192 629 282 z "},"ŝ":{"ha":674,"x_min":54,"x_max":629,"o":"m 315 717 q 403 704 356 717 q 482 669 450 692 l 483 669 l 482 710 l 588 710 l 588 464 l 497 464 q 433 578 485 536 q 307 619 382 619 q 242 601 268 619 q 215 546 215 583 q 246 488 215 507 q 349 446 276 469 q 385 435 357 444 q 566 338 503 393 q 629 192 629 282 q 594 74 629 122 q 501 2 558 26 q 376 -22 443 -22 q 260 -7 317 -22 q 171 32 203 8 l 169 32 l 174 -10 l 68 -10 l 63 229 l 153 229 q 220 122 160 165 q 368 78 281 78 q 435 96 407 78 q 464 147 464 114 q 446 189 464 172 q 403 217 428 206 q 303 257 378 228 q 169 314 214 292 q 90 380 125 336 q 54 493 54 424 q 83 601 54 550 q 170 684 111 651 q 315 717 229 717 m 340 1088 l 563 851 l 503 781 l 326 926 l 325 926 l 147 790 l 89 857 l 326 1088 l 340 1088 z "},"ș":{"ha":674,"x_min":54,"x_max":629,"o":"m 315 717 q 403 704 356 717 q 482 669 450 692 l 483 669 l 482 710 l 588 710 l 588 464 l 497 464 q 433 578 485 536 q 307 619 382 619 q 242 601 268 619 q 215 546 215 583 q 246 488 215 507 q 349 446 276 469 q 385 435 357 444 q 566 338 503 393 q 629 192 629 282 q 594 74 629 122 q 501 2 558 26 q 376 -22 443 -22 q 260 -7 317 -22 q 171 32 203 8 l 169 32 l 174 -10 l 68 -10 l 63 229 l 153 229 q 220 122 160 165 q 368 78 281 78 q 435 96 407 78 q 464 147 464 114 q 446 189 464 172 q 403 217 428 206 q 303 257 378 228 q 169 314 214 292 q 90 380 125 336 q 54 493 54 424 q 83 601 54 550 q 170 684 111 651 q 315 717 229 717 m 410 -50 q 439 -150 439 -99 q 402 -272 439 -210 q 301 -394 365 -335 l 239 -346 q 283 -249 269 -293 q 297 -162 297 -206 q 285 -75 297 -121 l 410 -50 z "},"ß":{"ha":1071,"x_min":42,"x_max":1051,"o":"m 521 1049 q 759 978 647 1049 q 871 692 871 908 q 867 617 871 657 q 813 619 831 619 q 671 546 672 619 q 701 488 671 507 q 814 439 731 468 q 990 342 928 400 q 1051 192 1051 283 q 981 33 1051 89 q 806 -22 910 -22 q 628 32 701 -22 l 626 32 l 631 -10 l 525 -10 l 519 229 l 608 229 q 664 120 615 163 q 797 78 713 78 q 858 97 831 78 q 886 146 886 115 q 853 206 886 183 q 732 263 821 229 q 613 317 657 292 q 539 385 568 342 q 510 500 510 429 q 553 635 510 576 q 686 711 597 693 q 517 944 685 944 q 390 884 440 944 q 339 676 339 824 l 339 226 q 333 101 339 157 q 431 106 378 106 l 431 0 l 58 0 l 58 90 q 126 119 111 90 q 142 214 142 149 l 142 582 l 42 579 l 42 694 l 144 694 q 259 968 160 888 q 521 1049 358 1049 z "},"t":{"ha":574,"x_min":24,"x_max":590,"o":"m 315 694 l 492 694 l 492 588 l 315 583 l 314 242 q 397 107 314 107 q 524 190 464 107 l 590 128 q 460 5 525 32 q 332 -22 394 -22 q 115 244 115 -22 l 118 579 l 24 579 l 24 694 q 108 722 68 694 q 175 790 147 750 q 214 868 203 831 l 317 868 l 315 694 z "},"ť":{"ha":574,"x_min":24,"x_max":590,"o":"m 550 1081 q 569 1011 569 1042 q 534 886 569 950 q 443 768 499 822 l 389 808 q 443 994 443 907 q 426 1104 443 1042 l 550 1081 m 315 694 l 492 694 l 492 588 l 315 583 l 314 242 q 397 107 314 107 q 524 190 464 107 l 590 128 q 460 5 525 32 q 332 -22 394 -22 q 115 244 115 -22 l 118 579 l 24 579 l 24 694 q 108 722 68 694 q 175 790 147 750 q 214 868 203 831 l 317 868 l 315 694 z "},"ţ":{"ha":574,"x_min":24,"x_max":590,"o":"m 465 -74 q 539 -99 511 -75 q 567 -171 567 -124 q 469 -299 567 -256 q 251 -360 372 -343 l 240 -287 q 356 -256 306 -275 q 407 -200 407 -236 q 396 -174 407 -182 q 368 -165 385 -165 q 339 -171 354 -165 q 313 -185 324 -176 l 261 -162 l 296 -21 q 115 244 115 3 l 118 579 l 24 579 l 24 694 q 108 722 68 694 q 175 790 147 750 q 214 868 203 831 l 317 868 l 315 694 l 492 694 l 492 588 l 315 583 l 314 242 q 397 107 314 107 q 524 190 464 107 l 590 128 q 399 -15 507 7 l 369 -96 l 371 -96 q 417 -81 388 -87 q 465 -74 446 -74 z "},"ț":{"ha":574,"x_min":24,"x_max":590,"o":"m 315 694 l 492 694 l 492 588 l 315 583 l 314 242 q 397 107 314 107 q 524 190 464 107 l 590 128 q 460 5 525 32 q 332 -22 394 -22 q 115 244 115 -22 l 118 579 l 24 579 l 24 694 q 108 722 68 694 q 175 790 147 750 q 214 868 203 831 l 317 868 l 315 694 m 406 -50 q 435 -150 435 -99 q 398 -272 435 -210 q 297 -394 361 -335 l 235 -346 q 279 -249 265 -293 q 293 -162 293 -206 q 281 -75 293 -121 l 406 -50 z "},"u":{"ha":858,"x_min":21,"x_max":825,"o":"m 740 224 q 735 101 740 157 q 825 106 779 106 l 825 0 l 561 0 l 553 72 l 551 72 q 452 3 500 28 q 344 -22 404 -22 q 167 50 221 -22 q 114 285 114 122 l 114 444 q 118 565 114 503 l 21 561 l 21 667 q 163 679 108 667 q 235 708 217 692 l 311 708 l 311 283 q 335 149 311 192 q 410 106 358 106 q 481 125 444 106 q 543 172 518 144 l 543 444 q 549 565 543 510 l 451 561 l 451 667 q 592 679 539 667 q 664 708 646 692 l 740 708 l 740 224 z "},"ú":{"ha":858,"x_min":21,"x_max":825,"o":"m 740 224 q 735 101 740 157 q 825 106 779 106 l 825 0 l 561 0 l 553 72 l 551 72 q 452 3 500 28 q 344 -22 404 -22 q 167 50 221 -22 q 114 285 114 122 l 114 444 q 118 565 114 503 l 21 561 l 21 667 q 163 679 108 667 q 235 708 217 692 l 311 708 l 311 283 q 335 149 311 192 q 410 106 358 106 q 481 125 444 106 q 543 172 518 144 l 543 444 q 549 565 543 510 l 451 561 l 451 667 q 592 679 539 667 q 664 708 646 692 l 740 708 l 740 224 m 535 1069 q 560 1013 560 1046 q 549 969 560 992 q 522 932 539 947 l 354 785 l 290 842 l 404 1036 q 442 1073 419 1060 q 488 1086 464 1086 q 535 1069 513 1086 z "},"ŭ":{"ha":858,"x_min":21,"x_max":825,"o":"m 740 224 q 735 101 740 157 q 825 106 779 106 l 825 0 l 561 0 l 553 72 l 551 72 q 452 3 500 28 q 344 -22 404 -22 q 167 50 221 -22 q 114 285 114 122 l 114 444 q 118 565 114 503 l 21 561 l 21 667 q 163 679 108 667 q 235 708 217 692 l 311 708 l 311 283 q 335 149 311 192 q 410 106 358 106 q 481 125 444 106 q 543 172 518 144 l 543 444 q 549 565 543 510 l 451 561 l 451 667 q 592 679 539 667 q 664 708 646 692 l 740 708 l 740 224 m 644 1021 q 422 833 576 833 q 296 877 356 833 q 206 1014 236 921 l 296 1060 q 353 988 322 1014 q 428 961 383 961 q 501 988 471 961 q 554 1061 531 1015 l 644 1021 z "},"û":{"ha":858,"x_min":21,"x_max":825,"o":"m 740 224 q 735 101 740 157 q 825 106 779 106 l 825 0 l 561 0 l 553 72 l 551 72 q 452 3 500 28 q 344 -22 404 -22 q 167 50 221 -22 q 114 285 114 122 l 114 444 q 118 565 114 503 l 21 561 l 21 667 q 163 679 108 667 q 235 708 217 692 l 311 708 l 311 283 q 335 149 311 192 q 410 106 358 106 q 481 125 444 106 q 543 172 518 144 l 543 444 q 549 565 543 510 l 451 561 l 451 667 q 592 679 539 667 q 664 708 646 692 l 740 708 l 740 224 m 439 1088 l 661 851 l 601 781 l 425 926 l 424 926 l 246 790 l 188 857 l 425 1088 l 439 1088 z "},"ü":{"ha":858,"x_min":21,"x_max":825,"o":"m 740 224 q 735 101 740 157 q 825 106 779 106 l 825 0 l 561 0 l 553 72 l 551 72 q 452 3 500 28 q 344 -22 404 -22 q 167 50 221 -22 q 114 285 114 122 l 114 444 q 118 565 114 503 l 21 561 l 21 667 q 163 679 108 667 q 235 708 217 692 l 311 708 l 311 283 q 335 149 311 192 q 410 106 358 106 q 481 125 444 106 q 543 172 518 144 l 543 444 q 549 565 543 510 l 451 561 l 451 667 q 592 679 539 667 q 664 708 646 692 l 740 708 l 740 224 m 306 1043 q 371 1012 344 1043 q 397 938 397 981 q 369 864 397 894 q 304 833 342 833 q 240 864 267 833 q 213 938 213 894 q 240 1012 213 981 q 306 1043 268 1043 m 547 1043 q 613 1012 586 1043 q 639 938 639 981 q 611 864 639 894 q 546 833 583 833 q 481 864 508 833 q 454 938 454 894 q 482 1012 454 981 q 547 1043 510 1043 z "},"ụ":{"ha":858,"x_min":21,"x_max":825,"o":"m 740 224 q 735 101 740 157 q 825 106 779 106 l 825 0 l 561 0 l 553 72 l 551 72 q 452 3 500 28 q 344 -22 404 -22 q 167 50 221 -22 q 114 285 114 122 l 114 444 q 118 565 114 503 l 21 561 l 21 667 q 163 679 108 667 q 235 708 217 692 l 311 708 l 311 283 q 335 149 311 192 q 410 106 358 106 q 481 125 444 106 q 543 172 518 144 l 543 444 q 549 565 543 510 l 451 561 l 451 667 q 592 679 539 667 q 664 708 646 692 l 740 708 l 740 224 m 431 -86 q 489 -112 465 -86 q 513 -176 513 -139 q 490 -240 513 -214 q 432 -265 468 -265 q 370 -240 394 -265 q 346 -176 346 -214 q 371 -112 346 -139 q 431 -86 396 -86 z "},"ù":{"ha":858,"x_min":21,"x_max":825,"o":"m 740 224 q 735 101 740 157 q 825 106 779 106 l 825 0 l 561 0 l 553 72 l 551 72 q 452 3 500 28 q 344 -22 404 -22 q 167 50 221 -22 q 114 285 114 122 l 114 444 q 118 565 114 503 l 21 561 l 21 667 q 163 679 108 667 q 235 708 217 692 l 311 708 l 311 283 q 335 149 311 192 q 410 106 358 106 q 481 125 444 106 q 543 172 518 144 l 543 444 q 549 565 543 510 l 451 561 l 451 667 q 592 679 539 667 q 664 708 646 692 l 740 708 l 740 224 m 317 1069 q 364 1086 338 1086 q 410 1072 388 1086 q 446 1036 432 1058 l 560 842 l 496 785 l 328 932 q 301 969 311 949 q 290 1011 290 990 q 317 1069 290 1044 z "},"ủ":{"ha":858,"x_min":21,"x_max":825,"o":"m 740 224 q 735 101 740 157 q 825 106 779 106 l 825 0 l 561 0 l 553 72 l 551 72 q 452 3 500 28 q 344 -22 404 -22 q 167 50 221 -22 q 114 285 114 122 l 114 444 q 118 565 114 503 l 21 561 l 21 667 q 163 679 108 667 q 235 708 217 692 l 311 708 l 311 283 q 335 149 311 192 q 410 106 358 106 q 481 125 444 106 q 543 172 518 144 l 543 444 q 549 565 543 510 l 451 561 l 451 667 q 592 679 539 667 q 664 708 646 692 l 740 708 l 740 224 m 406 1038 q 532 1002 486 1038 q 578 904 578 967 q 565 861 578 878 q 526 825 551 844 q 497 799 506 808 q 489 776 489 790 l 397 776 q 407 806 397 794 q 435 833 417 818 q 464 863 454 850 q 474 896 474 876 q 459 939 474 924 q 406 954 444 954 q 361 943 376 954 q 343 917 346 932 q 352 906 350 913 q 354 888 354 900 q 341 865 354 875 q 299 856 328 856 q 259 870 271 856 q 247 913 247 885 q 285 999 247 960 q 406 1038 324 1038 z "},"ư":{"ha":858,"x_min":21,"x_max":949,"o":"m 740 224 q 735 101 740 157 q 825 106 779 106 l 825 0 l 561 0 l 553 72 l 551 72 q 452 3 500 28 q 344 -22 404 -22 q 167 50 221 -22 q 114 285 114 122 l 114 444 q 118 565 114 503 l 21 561 l 21 667 q 163 679 108 667 q 235 708 217 692 l 311 708 l 311 283 q 335 149 311 192 q 410 106 358 106 q 481 125 444 106 q 543 172 518 144 l 543 444 q 549 565 543 510 l 451 561 l 451 667 q 592 679 539 667 q 664 708 646 692 l 740 708 l 740 706 q 782 747 767 721 q 797 801 797 774 l 949 801 q 893 666 949 718 q 740 603 838 614 l 740 224 z "},"ứ":{"ha":858,"x_min":21,"x_max":949,"o":"m 740 224 q 735 101 740 157 q 825 106 779 106 l 825 0 l 561 0 l 553 72 l 551 72 q 452 3 500 28 q 344 -22 404 -22 q 167 50 221 -22 q 114 285 114 122 l 114 444 q 118 565 114 503 l 21 561 l 21 667 q 163 679 108 667 q 235 708 217 692 l 311 708 l 311 283 q 335 149 311 192 q 410 106 358 106 q 481 125 444 106 q 543 172 518 144 l 543 444 q 549 565 543 510 l 451 561 l 451 667 q 592 679 539 667 q 664 708 646 692 l 740 708 l 740 706 q 782 747 767 721 q 797 801 797 774 l 949 801 q 893 666 949 718 q 740 603 838 614 l 740 224 m 535 1069 q 560 1013 560 1046 q 549 969 560 992 q 522 932 539 947 l 354 785 l 290 842 l 404 1036 q 442 1073 419 1060 q 488 1086 464 1086 q 535 1069 511 1086 z "},"ự":{"ha":858,"x_min":21,"x_max":949,"o":"m 740 224 q 735 101 740 157 q 825 106 779 106 l 825 0 l 561 0 l 553 72 l 551 72 q 452 3 500 28 q 344 -22 404 -22 q 167 50 221 -22 q 114 285 114 122 l 114 444 q 118 565 114 503 l 21 561 l 21 667 q 163 679 108 667 q 235 708 217 692 l 311 708 l 311 283 q 335 149 311 192 q 410 106 358 106 q 481 125 444 106 q 543 172 518 144 l 543 444 q 549 565 543 510 l 451 561 l 451 667 q 592 679 539 667 q 664 708 646 692 l 740 708 l 740 706 q 782 747 767 721 q 797 801 797 774 l 949 801 q 893 666 949 718 q 740 603 838 614 l 740 224 m 431 -86 q 489 -112 465 -86 q 513 -176 513 -139 q 490 -240 513 -214 q 432 -265 468 -265 q 370 -240 394 -265 q 346 -176 346 -214 q 371 -112 346 -139 q 431 -86 396 -86 z "}}}
